<svg width="1579" height="1808" viewBox="0 0 1579 1808" fill="none" xmlns="http://www.w3.org/2000/svg">
<path d="M153.057 0.13531C154.427 0.133961 155.797 0.132176 157.167 0.129997C160.925 0.125286 164.682 0.126763 168.44 0.129275C172.531 0.130912 176.621 0.126764 180.712 0.123366C187.879 0.118217 195.047 0.116794 202.214 0.117822C212.872 0.119347 223.531 0.115185 234.189 0.109947C254.332 0.100276 274.476 0.0974633 294.619 0.0968904C310.174 0.0964309 325.73 0.0943727 341.285 0.0911898C345.762 0.0902922 350.239 0.0894024 354.716 0.0885149C356.386 0.0881833 356.386 0.0881833 358.089 0.087845C389.397 0.0816909 420.705 0.0777445 452.013 0.0781883C453.784 0.0782117 453.784 0.0782117 455.59 0.0782355C461.573 0.0783186 467.556 0.0784177 473.539 0.0785202C475.321 0.0785502 475.321 0.0785502 477.139 0.0785807C479.542 0.0786211 481.945 0.0786629 484.348 0.0787061C521.735 0.0793189 559.123 0.0718111 596.511 0.0581335C638.514 0.0427739 680.517 0.0341672 722.52 0.0350967C726.998 0.0351714 731.477 0.0352201 735.955 0.035251C737.058 0.0352627 738.161 0.0352744 739.297 0.0352864C757.044 0.0353171 774.791 0.0289308 792.538 0.0203188C810.373 0.0118432 828.208 0.0108517 846.043 0.0174281C856.638 0.0211243 867.233 0.0192894 877.828 0.00948577C884.908 0.00348828 891.988 0.00477869 899.068 0.0119563C903.1 0.0158397 907.132 0.0166079 911.164 0.00849892C914.839 0.00117309 918.514 0.0032113 922.189 0.0124228C924.119 0.0149306 926.049 0.00771912 927.979 0C936.267 0.0335326 944.215 0.914341 952.387 2.26394C953.249 2.39614 954.11 2.52834 954.997 2.66454C981.193 6.69103 1004.31 19.4613 1024.39 36.2639C1025.25 36.9884 1026.12 37.7129 1027.02 38.4593C1031.94 42.7077 1036.29 47.2209 1040.39 52.2639C1041.53 53.6484 1041.53 53.6484 1042.69 55.0608C1056.01 71.5666 1066 90.7104 1071.39 111.264C1074.51 111.264 1076.36 109.451 1078.95 107.764C1091.31 99.9805 1104.05 94.2741 1118.39 91.2639C1119.2 91.0895 1120.01 90.9151 1120.84 90.7354C1150.25 84.827 1181.25 91.9319 1206.14 108.425C1230.71 125.616 1247.56 151.34 1252.88 180.945C1253.04 181.883 1253.21 182.821 1253.37 183.787C1253.54 184.788 1253.72 185.788 1253.89 186.819C1255.73 197.815 1256.87 208.86 1257.95 219.951C1258.25 222.914 1258.54 225.876 1258.84 228.838C1259.04 230.852 1259.24 232.866 1259.44 234.88C1259.97 240.181 1260.52 245.478 1261.1 250.772C1263.12 268.981 1264.71 287.207 1266.2 305.465C1266.51 309.268 1266.82 313.071 1267.14 316.873C1267.51 321.417 1267.89 325.961 1268.26 330.505C1268.9 338.386 1269.55 346.267 1270.22 354.147C1270.36 355.781 1270.5 357.415 1270.63 359.048C1270.83 361.39 1271.03 363.731 1271.23 366.072C1272.04 375.523 1272.75 384.966 1273.1 394.447C1273.2 397.317 1273.36 400.091 1273.87 402.92C1274.52 407.101 1274.71 411.236 1274.89 415.459C1274.97 417.244 1275.05 419.03 1275.14 420.815C1275.26 423.61 1275.39 426.406 1275.51 429.202C1275.63 431.913 1275.76 434.624 1275.89 437.334C1275.94 438.587 1275.94 438.587 1275.99 439.866C1276.03 440.647 1276.07 441.428 1276.11 442.233C1276.14 442.917 1276.17 443.6 1276.2 444.305C1276.33 446.263 1276.33 446.263 1276.88 448.105C1277.57 451.018 1277.68 453.855 1277.84 456.845C1277.89 457.828 1277.89 457.828 1277.95 458.832C1278.06 461.009 1278.18 463.187 1278.29 465.366C1278.37 466.905 1278.46 468.444 1278.54 469.984C1278.76 474.1 1278.98 478.218 1279.19 482.335C1279.37 485.74 1279.55 489.146 1279.73 492.551C1280.29 503.122 1280.84 513.693 1281.39 524.264C1281.45 525.499 1281.51 526.734 1281.58 528.006C1282.59 547.718 1283.52 567.426 1284.05 587.157C1284.2 592.728 1284.44 598.271 1284.87 603.828C1285.38 610.852 1285.71 617.867 1285.94 624.905C1285.96 625.552 1285.98 626.199 1286 626.865C1286.59 645.541 1286.54 664.222 1286.54 682.905C1286.55 688.265 1286.55 693.625 1286.56 698.984C1286.57 708.245 1286.58 717.505 1286.59 726.765C1286.6 741.459 1286.62 756.152 1286.64 770.846C1286.65 775.899 1286.65 780.952 1286.66 786.005C1286.66 787.268 1286.67 788.53 1286.67 789.831C1286.69 804.147 1286.71 818.464 1286.73 832.78C1286.73 834.739 1286.73 834.739 1286.73 836.737C1286.76 857.85 1286.78 878.962 1286.79 900.074C1286.81 921.872 1286.84 943.67 1286.88 965.469C1286.9 977.658 1286.91 989.847 1286.92 1002.04C1286.93 1089.34 1286.93 1089.34 1294.39 1176.26C1294.62 1178.17 1294.62 1178.17 1294.86 1180.12C1295.89 1188.19 1297.26 1196.12 1298.95 1204.08C1300.52 1211.47 1301.82 1218.72 1302.39 1226.26C1303.4 1225.99 1304.41 1225.71 1305.46 1225.42C1306.81 1225.06 1308.16 1224.69 1309.51 1224.33C1310.18 1224.14 1310.84 1223.96 1311.53 1223.77C1336.63 1217.01 1363.83 1221.93 1386.39 1234.36C1394.02 1238.82 1400.32 1244.35 1406.6 1250.53C1408.56 1252.43 1410.55 1254.3 1412.56 1256.17C1420.04 1263.14 1427.43 1270.2 1434.58 1277.52C1436.75 1279.64 1438.93 1281.63 1441.23 1283.6C1446.21 1287.92 1450.78 1292.6 1455.39 1297.3C1458.6 1300.55 1461.83 1303.7 1465.29 1306.67C1470.95 1311.54 1476.09 1316.92 1481.32 1322.24C1484.91 1325.86 1488.49 1329.41 1492.36 1332.73C1498.22 1337.77 1503.54 1343.38 1508.97 1348.88C1513.31 1353.27 1517.71 1357.48 1522.4 1361.49C1527.04 1365.62 1531.32 1370.16 1535.68 1374.59C1539.83 1378.79 1544.07 1382.8 1548.55 1386.65C1551.29 1389.06 1553.84 1391.65 1556.39 1394.26C1559.73 1397.67 1563.07 1400.92 1566.76 1403.95C1573.66 1409.86 1577.52 1416.9 1578.74 1425.87C1579.37 1434.83 1576.85 1442.18 1571.39 1449.26C1566.33 1454.9 1560.89 1460.15 1555.42 1465.38C1551.84 1468.8 1548.54 1472.32 1545.33 1476.09C1540.42 1481.59 1535.03 1486.67 1529.78 1491.85C1524.39 1497.18 1519.08 1502.51 1514.15 1508.28C1509.62 1513.38 1504.63 1518.06 1499.77 1522.84C1495.39 1527.18 1491.2 1531.57 1487.19 1536.24C1482.84 1541.12 1478.07 1545.62 1473.41 1550.2C1469.15 1554.42 1465.08 1558.7 1461.17 1563.25C1457.04 1567.91 1452.5 1572.19 1448.06 1576.55C1444.56 1580.02 1441.13 1583.49 1437.92 1587.23C1433.07 1592.87 1427.71 1597.99 1422.41 1603.2C1418.78 1606.79 1415.22 1610.39 1411.89 1614.26C1407.06 1619.89 1401.7 1625 1396.41 1630.2C1392.13 1634.44 1388.04 1638.74 1384.11 1643.32C1380.4 1647.5 1376.34 1651.35 1372.35 1655.26C1368.43 1659.14 1364.73 1663.12 1361.13 1667.3C1357.62 1671.26 1353.78 1674.91 1349.99 1678.62C1346.87 1681.7 1343.87 1684.81 1341.01 1688.14C1336.13 1693.8 1330.74 1698.96 1325.41 1704.2C1321.14 1708.43 1317.06 1712.72 1313.14 1717.29C1309.22 1721.71 1304.92 1725.77 1300.7 1729.91C1297.32 1733.26 1294.02 1736.62 1290.92 1740.23C1286.27 1745.64 1281.14 1750.56 1276.06 1755.55C1272.6 1758.98 1269.21 1762.4 1266.05 1766.1C1261.29 1771.64 1256.02 1776.7 1250.82 1781.83C1248.8 1783.82 1246.78 1785.83 1244.76 1787.83C1244.04 1788.54 1244.04 1788.54 1243.31 1789.27C1240.72 1791.86 1238.26 1794.5 1235.92 1797.3C1230.46 1803.68 1223.8 1806.66 1215.48 1807.59C1206.23 1808.08 1198.81 1805.78 1191.63 1799.8C1187.14 1795.71 1182.95 1791.34 1178.76 1786.95C1176.87 1785 1174.97 1783.06 1173.07 1781.11C1171.9 1779.91 1170.74 1778.7 1169.58 1777.49C1166.78 1774.5 1166.78 1774.5 1163.39 1772.26C1163.39 1771.6 1163.39 1770.94 1163.39 1770.26C1162.83 1770.03 1162.27 1769.8 1161.7 1769.56C1158.78 1767.92 1156.81 1765.89 1154.47 1763.5C1153.77 1762.8 1153.77 1762.8 1153.06 1762.08C1151.58 1760.58 1150.11 1759.08 1148.64 1757.58C1146.71 1755.61 1144.78 1753.65 1142.84 1751.69C1142.37 1751.21 1141.89 1750.73 1141.41 1750.24C1138.21 1747.03 1134.9 1744.05 1131.46 1741.11C1126.39 1736.59 1121.72 1731.64 1116.95 1726.81C1111.89 1721.68 1106.79 1716.66 1101.31 1711.97C1096.91 1708.07 1092.86 1703.78 1088.74 1699.58C1085.4 1696.21 1082.05 1692.92 1078.45 1689.83C1072.8 1684.97 1067.67 1679.6 1062.45 1674.29C1058.97 1670.77 1055.5 1667.29 1051.72 1664.08C1045.72 1658.92 1040.14 1653.31 1034.52 1647.74C1033.19 1646.43 1031.86 1645.13 1030.52 1643.83C1019.5 1633.12 1009.12 1621.65 1003.51 1607.08C1003.1 1606.04 1003.1 1606.04 1002.68 1604.97C995.012 1584.47 993.837 1563.13 1000.39 1542.26C1000.7 1541.2 1001.01 1540.13 1001.33 1539.03C1004.52 1528.69 1008.91 1519.38 1016.07 1511.2C1017.76 1509.1 1017.76 1509.1 1017.39 1505.26C1015.47 1503.23 1015.47 1503.23 1012.82 1501.33C1011.82 1500.54 1010.81 1499.75 1009.78 1498.94C1009.23 1498.52 1008.68 1498.09 1008.12 1497.65C1005.02 1495.17 1002.06 1492.56 999.075 1489.95C995.36 1486.71 991.646 1483.47 987.88 1480.29C980.029 1473.66 972.453 1466.77 964.981 1459.71C964.368 1459.13 963.755 1458.56 963.124 1457.97C961.387 1456.26 961.387 1456.26 959.883 1454.53C956.571 1450.75 954.24 1449.58 949.223 1449.23C948.098 1449.19 948.098 1449.19 946.95 1449.14C945.337 1449.01 943.725 1448.87 942.114 1448.73C941.315 1448.66 940.516 1448.59 939.693 1448.51C916.038 1445.95 894.933 1430.19 880.04 1412.47C869.851 1399.13 862.986 1383.55 855.566 1368.58C854.94 1367.31 854.315 1366.05 853.688 1364.79C852.206 1361.8 850.73 1358.81 849.269 1355.82C839.355 1335.42 839.355 1335.42 822.387 1321.26C817.527 1319.64 813.241 1319.63 808.512 1321.64C788.999 1332.5 778.747 1363.67 769.243 1382.49C753.205 1414.05 733.584 1442.24 698.661 1454.2C678.147 1460.67 656.152 1458.38 637.182 1448.6C612.904 1435.36 597.213 1413.33 584.519 1389.4C583.448 1387.38 582.362 1385.37 581.27 1383.36C577.901 1377.13 574.66 1370.85 571.513 1364.51C570.141 1361.76 568.765 1359.01 567.388 1356.26C566.993 1355.47 566.598 1354.68 566.191 1353.87C559.201 1339.95 552.887 1327.51 538.388 1320.26C532.084 1319.49 528.696 1320.62 523.606 1324.39C514.736 1331.87 509.728 1341.17 504.388 1351.26C503.55 1352.83 502.713 1354.39 501.876 1355.96C498.295 1362.69 494.774 1369.44 491.402 1376.27C483.352 1392.58 475.015 1408.19 463.388 1422.26C462.929 1422.82 462.47 1423.38 461.997 1423.95C447.426 1441.34 427.249 1454.36 404.388 1457.26C379.384 1458.74 359.004 1453.13 339.388 1437.26C338.66 1436.68 337.933 1436.09 337.184 1435.49C318.753 1419.97 307.061 1397.79 296.532 1376.55C295.885 1375.24 295.885 1375.24 295.224 1373.91C293.054 1369.53 290.899 1365.14 288.769 1360.74C279.111 1339.62 279.111 1339.62 263.325 1323.51C262.653 1323.11 261.982 1322.7 261.29 1322.28C257.127 1320.06 253.012 1319.53 248.387 1320.26C235.147 1326.13 228.289 1339.92 222.134 1352.21C220.525 1355.42 218.886 1358.62 217.247 1361.81C216.757 1362.77 216.757 1362.77 216.257 1363.74C198.06 1399.07 176.271 1431.39 137.387 1445.26C117.112 1451.36 93.5081 1448.03 75.0406 1438.39C73.146 1437.37 71.2647 1436.32 69.3875 1435.26C68.4001 1434.72 67.4127 1434.17 66.3953 1433.61C59.0031 1429.23 52.9457 1423.59 46.8123 1417.63C45.6341 1416.5 44.4247 1415.4 43.2078 1414.31C16.8257 1390.01 2.33502 1349.4 0.387502 1314.26C0.205988 1307.67 0.249451 1301.08 0.256063 1294.49C0.254412 1292.48 0.252334 1290.47 0.249853 1288.45C0.244302 1282.92 0.244959 1277.39 0.246633 1271.86C0.247366 1265.84 0.242338 1259.83 0.238058 1253.81C0.231365 1243.26 0.228384 1232.72 0.227926 1222.17C0.227423 1210.86 0.224772 1199.55 0.219518 1188.23C0.219188 1187.52 0.218851 1186.8 0.218511 1186.07C0.217161 1183.15 0.215801 1180.24 0.214422 1177.33C0.198131 1142.87 0.191732 1108.41 0.186971 1073.95C0.184587 1056.79 0.18088 1039.63 0.176931 1022.47C0.164268 967.407 0.153484 912.348 0.150091 857.289C0.149929 854.658 0.149769 852.028 0.149603 849.397C0.149269 844.121 0.148941 838.845 0.148611 833.569C0.148224 827.393 0.14783 821.216 0.147436 815.04C0.147323 813.272 0.147211 811.504 0.1471 809.736C0.143551 752.958 0.128462 696.18 0.105154 639.403C0.0884092 598.597 0.072943 557.791 0.0684259 516.985C0.0683324 516.146 0.0682323 515.306 0.068136 514.442C0.0661168 496.014 0.0649647 477.586 0.0646112 459.158C0.064475 452.564 0.0642642 445.969 0.0640161 439.375C0.0639545 437.735 0.0639033 436.095 0.0638483 434.454C0.062929 408.33 0.0529579 382.207 0.0383813 356.083C0.023756 329.767 0.0187436 303.451 0.0268152 277.134C0.0279305 273.495 0.0289339 269.855 0.0298822 266.215C0.0300722 265.502 0.0302663 264.788 0.030462 264.053C0.0331912 252.775 0.0258579 241.497 0.014303 230.219C0.00313983 219.118 0.00300714 208.017 0.0136774 196.916C0.0190723 190.982 0.0197785 185.049 0.00717711 179.116C-0.00420816 173.709 -0.00159985 168.304 0.011831 162.898C0.0142512 160.962 0.0117345 159.026 0.00343871 157.091C-0.0595326 141.354 1.46451 125.943 5.575 110.701C5.78077 109.932 5.98654 109.162 6.19854 108.369C8.67582 99.5975 12.369 91.4235 16.3875 83.2639C16.9547 82.1012 17.5219 80.9385 18.1063 79.7405C24.9761 66.3572 33.9896 55.0399 44.3875 44.2639C45.0527 43.5472 45.7178 42.8305 46.4031 42.0921C74.0923 13.0069 113.764 0.0707841 153.057 0.13531Z" fill="#F1585A"/>
<path d="M153.057 0.13531C154.427 0.133961 155.797 0.132176 157.167 0.129997C160.925 0.125286 164.682 0.126763 168.44 0.129275C172.531 0.130912 176.621 0.126764 180.712 0.123366C187.879 0.118217 195.047 0.116794 202.214 0.117822C212.872 0.119347 223.531 0.115185 234.189 0.109947C254.332 0.100276 274.476 0.0974633 294.619 0.0968904C310.174 0.0964309 325.73 0.0943727 341.285 0.0911898C345.762 0.0902922 350.239 0.0894024 354.716 0.0885149C356.386 0.0881833 356.386 0.0881833 358.089 0.087845C389.397 0.0816909 420.705 0.0777445 452.013 0.0781883C453.784 0.0782117 453.784 0.0782117 455.59 0.0782355C461.573 0.0783186 467.556 0.0784177 473.539 0.0785202C475.321 0.0785502 475.321 0.0785502 477.139 0.0785807C479.542 0.0786211 481.945 0.0786629 484.348 0.0787061C521.735 0.0793189 559.123 0.0718111 596.511 0.0581335C638.514 0.0427739 680.517 0.0341672 722.52 0.0350967C726.998 0.0351714 731.477 0.0352201 735.955 0.035251C737.058 0.0352627 738.161 0.0352744 739.297 0.0352864C757.044 0.0353171 774.791 0.0289308 792.538 0.0203188C810.373 0.0118432 828.208 0.0108517 846.043 0.0174281C856.638 0.0211243 867.233 0.0192894 877.828 0.00948577C884.908 0.00348828 891.988 0.00477869 899.068 0.0119563C903.1 0.0158397 907.132 0.0166079 911.164 0.00849892C914.839 0.00117309 918.514 0.0032113 922.189 0.0124228C924.119 0.0149306 926.049 0.00771912 927.979 0C936.267 0.0335326 944.215 0.914341 952.387 2.26394C953.249 2.39614 954.11 2.52834 954.997 2.66454C981.193 6.69103 1004.31 19.4613 1024.39 36.2639C1025.25 36.9884 1026.12 37.7129 1027.02 38.4593C1031.94 42.7077 1036.29 47.2209 1040.39 52.2639C1041.53 53.6484 1041.53 53.6484 1042.69 55.0608C1056.01 71.5666 1066 90.7104 1071.39 111.264C1074.51 111.264 1076.36 109.451 1078.95 107.764C1091.31 99.9805 1104.05 94.2741 1118.39 91.2639C1119.2 91.0895 1120.01 90.9151 1120.84 90.7354C1150.25 84.827 1181.25 91.9319 1206.14 108.425C1230.71 125.616 1247.56 151.34 1252.88 180.945C1253.04 181.883 1253.21 182.821 1253.37 183.787C1253.54 184.788 1253.72 185.788 1253.89 186.819C1255.73 197.815 1256.87 208.86 1257.95 219.951C1258.25 222.914 1258.54 225.876 1258.84 228.838C1259.04 230.852 1259.24 232.866 1259.44 234.88C1259.97 240.181 1260.52 245.478 1261.1 250.772C1263.12 268.981 1264.71 287.207 1266.2 305.465C1266.51 309.268 1266.82 313.071 1267.14 316.873C1267.51 321.417 1267.89 325.961 1268.26 330.505C1268.9 338.386 1269.55 346.267 1270.22 354.147C1270.36 355.781 1270.5 357.415 1270.63 359.048C1270.83 361.39 1271.03 363.731 1271.23 366.072C1272.04 375.523 1272.75 384.966 1273.1 394.447C1273.2 397.317 1273.36 400.091 1273.87 402.92C1274.52 407.101 1274.71 411.236 1274.89 415.459C1274.97 417.244 1275.05 419.03 1275.14 420.815C1275.26 423.61 1275.39 426.406 1275.51 429.202C1275.63 431.913 1275.76 434.624 1275.89 437.334C1275.94 438.587 1275.94 438.587 1275.99 439.866C1276.03 440.647 1276.07 441.428 1276.11 442.233C1276.14 442.917 1276.17 443.6 1276.2 444.305C1276.33 446.263 1276.33 446.263 1276.88 448.105C1277.57 451.018 1277.68 453.855 1277.84 456.845C1277.89 457.828 1277.89 457.828 1277.95 458.832C1278.06 461.009 1278.18 463.187 1278.29 465.366C1278.37 466.905 1278.46 468.444 1278.54 469.984C1278.76 474.1 1278.98 478.218 1279.19 482.335C1279.37 485.74 1279.55 489.146 1279.73 492.551C1280.29 503.122 1280.84 513.693 1281.39 524.264C1281.45 525.499 1281.51 526.734 1281.58 528.006C1282.59 547.718 1283.52 567.426 1284.05 587.157C1284.2 592.728 1284.44 598.271 1284.87 603.828C1285.38 610.852 1285.71 617.867 1285.94 624.905C1285.96 625.552 1285.98 626.199 1286 626.865C1286.59 645.541 1286.54 664.222 1286.54 682.905C1286.55 688.265 1286.55 693.625 1286.56 698.984C1286.57 708.245 1286.58 717.505 1286.59 726.765C1286.6 741.459 1286.62 756.152 1286.64 770.846C1286.65 775.899 1286.65 780.952 1286.66 786.005C1286.66 787.268 1286.67 788.53 1286.67 789.831C1286.69 804.147 1286.71 818.464 1286.73 832.78C1286.73 834.739 1286.73 834.739 1286.73 836.737C1286.76 857.85 1286.78 878.962 1286.79 900.074C1286.81 921.872 1286.84 943.67 1286.88 965.469C1286.9 977.658 1286.91 989.847 1286.92 1002.04C1286.93 1089.34 1286.93 1089.34 1294.39 1176.26C1294.62 1178.17 1294.62 1178.17 1294.86 1180.12C1295.89 1188.19 1297.26 1196.12 1298.95 1204.08C1300.52 1211.47 1301.82 1218.72 1302.39 1226.26C1303.4 1225.99 1304.41 1225.71 1305.46 1225.42C1306.81 1225.06 1308.16 1224.69 1309.51 1224.33C1310.18 1224.14 1310.84 1223.96 1311.53 1223.77C1336.63 1217.01 1363.83 1221.93 1386.39 1234.36C1394.02 1238.82 1400.32 1244.35 1406.6 1250.53C1408.56 1252.43 1410.55 1254.3 1412.56 1256.17C1420.04 1263.14 1427.43 1270.2 1434.58 1277.52C1436.75 1279.64 1438.93 1281.63 1441.23 1283.6C1446.21 1287.92 1450.78 1292.6 1455.39 1297.3C1458.6 1300.55 1461.83 1303.7 1465.29 1306.67C1470.95 1311.54 1476.09 1316.92 1481.32 1322.24C1484.91 1325.86 1488.49 1329.41 1492.36 1332.73C1498.22 1337.77 1503.54 1343.38 1508.97 1348.88C1513.31 1353.27 1517.71 1357.48 1522.4 1361.49C1527.04 1365.62 1531.32 1370.16 1535.68 1374.59C1539.83 1378.79 1544.07 1382.8 1548.55 1386.65C1551.29 1389.06 1553.84 1391.65 1556.39 1394.26C1559.73 1397.67 1563.07 1400.92 1566.76 1403.95C1573.66 1409.86 1577.52 1416.9 1578.74 1425.87C1579.37 1434.83 1576.85 1442.18 1571.39 1449.26C1566.33 1454.9 1560.89 1460.15 1555.42 1465.38C1551.84 1468.8 1548.54 1472.32 1545.33 1476.09C1540.42 1481.59 1535.03 1486.67 1529.78 1491.85C1524.39 1497.18 1519.08 1502.51 1514.15 1508.28C1509.62 1513.38 1504.63 1518.06 1499.77 1522.84C1495.39 1527.18 1491.2 1531.57 1487.19 1536.24C1482.84 1541.12 1478.07 1545.62 1473.41 1550.2C1469.15 1554.42 1465.08 1558.7 1461.17 1563.25C1457.04 1567.91 1452.5 1572.19 1448.06 1576.55C1444.56 1580.02 1441.13 1583.49 1437.92 1587.23C1433.07 1592.87 1427.71 1597.99 1422.41 1603.2C1418.78 1606.79 1415.22 1610.39 1411.89 1614.26C1407.06 1619.89 1401.7 1625 1396.41 1630.2C1392.13 1634.44 1388.04 1638.74 1384.11 1643.32C1380.4 1647.5 1376.34 1651.35 1372.35 1655.26C1368.43 1659.14 1364.73 1663.12 1361.13 1667.3C1357.62 1671.26 1353.78 1674.91 1349.99 1678.62C1346.87 1681.7 1343.87 1684.81 1341.01 1688.14C1336.13 1693.8 1330.74 1698.96 1325.41 1704.2C1321.14 1708.43 1317.06 1712.72 1313.14 1717.29C1309.22 1721.71 1304.92 1725.77 1300.7 1729.91C1297.32 1733.26 1294.02 1736.62 1290.92 1740.23C1286.27 1745.64 1281.14 1750.56 1276.06 1755.55C1272.6 1758.98 1269.21 1762.4 1266.05 1766.1C1261.29 1771.64 1256.02 1776.7 1250.82 1781.83C1248.8 1783.82 1246.78 1785.83 1244.76 1787.83C1244.04 1788.54 1244.04 1788.54 1243.31 1789.27C1240.72 1791.86 1238.26 1794.5 1235.92 1797.3C1230.46 1803.68 1223.8 1806.66 1215.48 1807.59C1206.23 1808.08 1198.81 1805.78 1191.63 1799.8C1187.14 1795.71 1182.95 1791.34 1178.76 1786.95C1176.87 1785 1174.97 1783.06 1173.07 1781.11C1171.9 1779.91 1170.74 1778.7 1169.58 1777.49C1166.78 1774.5 1166.78 1774.5 1163.39 1772.26C1163.39 1771.6 1163.39 1770.94 1163.39 1770.26C1162.83 1770.03 1162.27 1769.8 1161.7 1769.56C1158.78 1767.92 1156.81 1765.89 1154.47 1763.5C1153.77 1762.8 1153.77 1762.8 1153.06 1762.08C1151.58 1760.58 1150.11 1759.08 1148.64 1757.58C1146.71 1755.61 1144.78 1753.65 1142.84 1751.69C1142.37 1751.21 1141.89 1750.73 1141.41 1750.24C1138.21 1747.03 1134.9 1744.05 1131.46 1741.11C1126.39 1736.59 1121.72 1731.64 1116.95 1726.81C1111.89 1721.68 1106.79 1716.66 1101.31 1711.97C1096.91 1708.07 1092.86 1703.78 1088.74 1699.58C1085.4 1696.21 1082.05 1692.92 1078.45 1689.83C1072.8 1684.97 1067.67 1679.6 1062.45 1674.29C1058.97 1670.77 1055.5 1667.29 1051.72 1664.08C1045.72 1658.92 1040.14 1653.31 1034.52 1647.74C1033.19 1646.43 1031.86 1645.13 1030.52 1643.83C1019.5 1633.12 1009.12 1621.65 1003.51 1607.08C1003.1 1606.04 1003.1 1606.04 1002.68 1604.97C995.012 1584.47 993.837 1563.13 1000.39 1542.26C1000.7 1541.2 1001.01 1540.13 1001.33 1539.03C1004.52 1528.69 1008.91 1519.38 1016.07 1511.2C1017.76 1509.1 1017.76 1509.1 1017.39 1505.26C1015.47 1503.23 1015.47 1503.23 1012.82 1501.33C1011.82 1500.54 1010.81 1499.75 1009.78 1498.94C1009.23 1498.52 1008.68 1498.09 1008.12 1497.65C1005.02 1495.17 1002.06 1492.56 999.075 1489.95C995.36 1486.71 991.646 1483.47 987.88 1480.29C980.029 1473.66 972.453 1466.77 964.981 1459.71C964.368 1459.13 963.755 1458.56 963.124 1457.97C961.387 1456.26 961.387 1456.26 959.883 1454.53C956.571 1450.75 954.24 1449.58 949.223 1449.23C948.098 1449.19 948.098 1449.19 946.95 1449.14C945.337 1449.01 943.725 1448.87 942.114 1448.73C941.315 1448.66 940.516 1448.59 939.693 1448.51C916.038 1445.95 894.933 1430.19 880.04 1412.47C869.851 1399.13 862.986 1383.55 855.566 1368.58C854.94 1367.31 854.315 1366.05 853.688 1364.79C852.206 1361.8 850.73 1358.81 849.269 1355.82C839.355 1335.42 839.355 1335.42 822.387 1321.26C817.527 1319.64 813.241 1319.63 808.512 1321.64C788.999 1332.5 778.747 1363.67 769.243 1382.49C753.205 1414.05 733.584 1442.24 698.661 1454.2C678.147 1460.67 656.152 1458.38 637.182 1448.6C612.904 1435.36 597.213 1413.33 584.519 1389.4C583.448 1387.38 582.362 1385.37 581.27 1383.36C577.901 1377.13 574.66 1370.85 571.513 1364.51C570.141 1361.76 568.765 1359.01 567.388 1356.26C566.993 1355.47 566.598 1354.68 566.191 1353.87C559.201 1339.95 552.887 1327.51 538.388 1320.26C532.084 1319.49 528.696 1320.62 523.606 1324.39C514.736 1331.87 509.728 1341.17 504.388 1351.26C503.55 1352.83 502.713 1354.39 501.876 1355.96C498.295 1362.69 494.774 1369.44 491.402 1376.27C483.352 1392.58 475.015 1408.19 463.388 1422.26C462.929 1422.82 462.47 1423.38 461.997 1423.95C447.426 1441.34 427.249 1454.36 404.388 1457.26C379.384 1458.74 359.004 1453.13 339.388 1437.26C338.66 1436.68 337.933 1436.09 337.184 1435.49C318.753 1419.97 307.061 1397.79 296.532 1376.55C295.885 1375.24 295.885 1375.24 295.224 1373.91C293.054 1369.53 290.899 1365.14 288.769 1360.74C279.111 1339.62 279.111 1339.62 263.325 1323.51C262.653 1323.11 261.982 1322.7 261.29 1322.28C257.127 1320.06 253.012 1319.53 248.387 1320.26C235.147 1326.13 228.289 1339.92 222.134 1352.21C220.525 1355.42 218.886 1358.62 217.247 1361.81C216.757 1362.77 216.757 1362.77 216.257 1363.74C198.06 1399.07 176.271 1431.39 137.387 1445.26C117.112 1451.36 93.5081 1448.03 75.0406 1438.39C73.146 1437.37 71.2647 1436.32 69.3875 1435.26C68.4001 1434.72 67.4127 1434.17 66.3953 1433.61C59.0031 1429.23 52.9457 1423.59 46.8123 1417.63C45.6341 1416.5 44.4247 1415.4 43.2078 1414.31C16.8257 1390.01 2.33502 1349.4 0.387502 1314.26C0.205988 1307.67 0.249451 1301.08 0.256063 1294.49C0.254412 1292.48 0.252334 1290.47 0.249853 1288.45C0.244302 1282.92 0.244959 1277.39 0.246633 1271.86C0.247366 1265.84 0.242338 1259.83 0.238058 1253.81C0.231365 1243.26 0.228384 1232.72 0.227926 1222.17C0.227423 1210.86 0.224772 1199.55 0.219518 1188.23C0.219188 1187.52 0.218851 1186.8 0.218511 1186.07C0.217161 1183.15 0.215801 1180.24 0.214422 1177.33C0.198131 1142.87 0.191732 1108.41 0.186971 1073.95C0.184587 1056.79 0.18088 1039.63 0.176931 1022.47C0.164268 967.407 0.153484 912.348 0.150091 857.289C0.149929 854.658 0.149769 852.028 0.149603 849.397C0.149269 844.121 0.148941 838.845 0.148611 833.569C0.148224 827.393 0.14783 821.216 0.147436 815.04C0.147323 813.272 0.147211 811.504 0.1471 809.736C0.143551 752.958 0.128462 696.18 0.105154 639.403C0.0884092 598.597 0.072943 557.791 0.0684259 516.985C0.0683324 516.146 0.0682323 515.306 0.068136 514.442C0.0661168 496.014 0.0649647 477.586 0.0646112 459.158C0.064475 452.564 0.0642642 445.969 0.0640161 439.375C0.0639545 437.735 0.0639033 436.095 0.0638483 434.454C0.062929 408.33 0.0529579 382.207 0.0383813 356.083C0.023756 329.767 0.0187436 303.451 0.0268152 277.134C0.0279305 273.495 0.0289339 269.855 0.0298822 266.215C0.0300722 265.502 0.0302663 264.788 0.030462 264.053C0.0331912 252.775 0.0258579 241.497 0.014303 230.219C0.00313983 219.118 0.00300714 208.017 0.0136774 196.916C0.0190723 190.982 0.0197785 185.049 0.00717711 179.116C-0.00420816 173.709 -0.00159985 168.304 0.011831 162.898C0.0142512 160.962 0.0117345 159.026 0.00343871 157.091C-0.0595326 141.354 1.46451 125.943 5.575 110.701C5.78077 109.932 5.98654 109.162 6.19854 108.369C8.67582 99.5975 12.369 91.4235 16.3875 83.2639C16.9547 82.1012 17.5219 80.9385 18.1063 79.7405C24.9761 66.3572 33.9896 55.0399 44.3875 44.2639C45.0527 43.5472 45.7178 42.8305 46.4031 42.0921C74.0923 13.0069 113.764 0.0707841 153.057 0.13531ZM80.3563 90.7014C66.5447 108.678 58.1989 129.712 58.2575 152.582C58.2556 153.398 58.2537 154.213 58.2518 155.054C58.2466 157.792 58.2486 160.53 58.2505 163.268C58.2482 165.258 58.2455 167.247 58.2424 169.236C58.2352 174.728 58.2342 180.219 58.2342 185.71C58.2332 191.675 58.2264 197.64 58.2203 203.605C58.2105 214.069 58.2045 224.532 58.201 234.995C58.1972 246.224 58.1914 257.452 58.1829 268.681C58.1824 269.39 58.1819 270.099 58.1813 270.829C58.1791 273.717 58.177 276.604 58.1748 279.492C58.1483 314.499 58.1327 349.507 58.1196 384.514C58.1154 395.869 58.1108 407.223 58.106 418.577C58.0811 478.074 58.0591 537.571 58.0468 597.068C58.0459 601.423 58.045 605.779 58.0441 610.134C58.0439 610.998 58.0438 611.862 58.0436 612.752C58.0417 621.505 58.0399 630.258 58.038 639.01C58.0376 640.765 58.0372 642.52 58.0368 644.275C58.0248 700.616 57.9951 756.957 57.9534 813.297C57.9235 853.779 57.8958 894.261 57.8861 934.743C57.8859 935.576 57.8857 936.409 57.8855 937.267C57.8812 955.557 57.8782 973.846 57.8766 992.136C57.8759 999.496 57.8751 1006.86 57.8742 1014.22C57.8741 1015.02 57.874 1015.83 57.8739 1016.66C57.8708 1042.57 57.8523 1068.49 57.8258 1094.41C57.7992 1120.53 57.7885 1146.65 57.7996 1172.77C57.8011 1176.38 57.8024 1180 57.8037 1183.61C57.8039 1184.32 57.8042 1185.03 57.8044 1185.76C57.8079 1196.95 57.7947 1208.14 57.7743 1219.32C57.7546 1230.34 57.7533 1241.36 57.77 1252.39C57.7784 1258.27 57.7791 1264.16 57.7574 1270.05C57.6225 1309.12 59.9677 1347.2 88.3875 1377.26C97.117 1385.23 106.024 1389.77 117.962 1389.67C123.442 1389.02 127.08 1386.57 131.387 1383.26C132 1382.83 132.612 1382.4 133.243 1381.95C147.014 1371.36 154.521 1352.94 162.217 1337.89C178.325 1306.38 196.075 1276.7 231.114 1264.3C245.248 1260.25 263.605 1260.09 277.388 1265.26C278.362 1265.6 279.337 1265.94 280.341 1266.3C318.631 1280.83 334.904 1320.73 352.095 1354.63C359.7 1369.6 359.7 1369.6 369.388 1383.26C370.227 1384.36 370.227 1384.36 371.083 1385.48C375.684 1391.22 383.064 1397.62 390.638 1398.54C400.244 1398.89 407.646 1395.6 414.684 1389.09C425.956 1376.99 432.891 1361.35 440.154 1346.69C457.136 1312.41 474.676 1277.58 513.184 1264.3C533.271 1258.65 555.003 1261.99 573.161 1271.76C580.787 1276.32 587.09 1282.06 593.388 1288.26C594.108 1288.97 594.829 1289.68 595.571 1290.41C607.155 1302.6 614.364 1318.64 621.937 1333.44C624.521 1338.47 627.163 1343.47 629.809 1348.47C631.787 1352.21 633.745 1355.96 635.657 1359.73C643.663 1375.42 652.804 1392.07 670.387 1398.26C678.711 1399.86 685.606 1396.3 692.387 1391.76C706.713 1380.36 714.275 1360.56 722.2 1344.58C736.567 1315.6 751.128 1286.58 780.387 1270.26C781.152 1269.84 781.916 1269.41 782.704 1268.97C799.075 1260.86 819.996 1259.44 837.493 1264.28C843.861 1266.45 850.02 1269.01 856.012 1272.08C858.243 1273.41 858.243 1273.41 860.387 1273.26C860.478 1268.7 860.176 1264.52 859.403 1260.03C857.805 1249.33 858.089 1238.52 858.127 1227.73C858.137 1224.1 858.127 1220.47 858.114 1216.84C858.105 1203.19 858.651 1189.81 860.387 1176.26C860.47 1175.59 860.552 1174.92 860.636 1174.23C861.181 1169.77 861.799 1165.33 862.45 1160.89C862.55 1160.2 862.651 1159.51 862.755 1158.8C866.472 1133.6 871.705 1108.6 877.075 1083.7C879.954 1070.33 882.012 1056.8 884.153 1043.3C884.263 1042.6 884.373 1041.91 884.487 1041.2C885.818 1032.71 886.533 1024.66 886.519 1016.07C886.521 1014.96 886.523 1013.86 886.525 1012.72C886.531 1009.01 886.53 1005.31 886.529 1001.61C886.532 998.954 886.536 996.296 886.54 993.638C886.548 987.915 886.553 982.193 886.556 976.471C886.562 967.408 886.579 958.346 886.597 949.283C886.604 946.176 886.61 943.07 886.616 939.963C886.618 939.187 886.62 938.41 886.621 937.61C886.639 928.781 886.655 919.951 886.67 911.121C886.672 910.314 886.673 909.508 886.675 908.676C886.697 895.631 886.707 882.586 886.715 869.541C886.723 856.116 886.746 842.691 886.783 829.266C886.805 821.005 886.815 812.744 886.808 804.482C886.805 798.806 886.817 793.13 886.839 787.453C886.852 784.19 886.856 780.927 886.847 777.664C886.748 738.424 898.115 705.124 925.387 676.264C926.376 675.197 926.376 675.197 927.384 674.108C932.238 669.029 937.466 665.03 943.387 661.264C944.405 660.614 945.422 659.965 946.469 659.295C964.826 648.183 984.003 643.042 1005.39 643.198C1006.64 643.202 1007.89 643.207 1009.18 643.212C1012.25 643.225 1015.32 643.242 1018.39 643.264C1018.44 596.04 1018.49 548.817 1018.51 501.593C1018.51 500.893 1018.52 500.194 1018.52 499.473C1018.52 484.267 1018.53 469.062 1018.54 453.856C1018.54 446.399 1018.55 438.942 1018.55 431.484C1018.55 430.742 1018.55 430 1018.55 429.235C1018.57 405.207 1018.59 381.179 1018.62 357.151C1018.64 332.447 1018.66 307.744 1018.67 283.04C1018.67 279.546 1018.67 276.052 1018.67 272.558C1018.67 271.871 1018.67 271.183 1018.67 270.475C1018.68 259.432 1018.69 248.389 1018.71 237.346C1018.73 226.229 1018.73 215.112 1018.73 203.994C1018.73 197.977 1018.73 191.96 1018.75 185.943C1018.76 180.424 1018.76 174.905 1018.75 169.386C1018.75 167.399 1018.75 165.412 1018.76 163.425C1018.9 131.986 1011.16 105.506 988.919 82.7366C970.978 65.6989 948.341 58.7521 924.043 58.8836C922.661 58.8802 921.278 58.8754 919.896 58.8695C916.127 58.8571 912.359 58.8631 908.59 58.8723C904.479 58.8791 900.368 58.8684 896.256 58.8599C889.06 58.8476 881.865 58.8464 874.669 58.8525C863.968 58.8616 853.268 58.8535 842.567 58.8422C823.454 58.8226 804.34 58.8202 785.226 58.8254C768.5 58.83 751.773 58.8294 735.046 58.8236C732.802 58.8228 730.557 58.822 728.312 58.8213C724.929 58.8201 721.547 58.819 718.164 58.8178C686.722 58.8071 655.28 58.8024 623.838 58.8103C622.653 58.8106 621.468 58.8109 620.248 58.8112C610.626 58.8137 601.004 58.8163 591.383 58.8189C553.846 58.829 516.31 58.8206 478.774 58.7974C436.59 58.7713 394.406 58.7585 352.222 58.7656C347.724 58.7663 343.227 58.767 338.729 58.7676C337.068 58.7679 337.068 58.7679 335.373 58.7681C318.658 58.7704 301.942 58.7625 285.227 58.7493C266.219 58.7344 247.211 58.7336 228.203 58.7514C217.568 58.761 206.933 58.7595 196.298 58.7422C189.191 58.7317 182.084 58.7358 174.976 58.7516C170.929 58.7603 166.882 58.7627 162.835 58.7474C159.146 58.7335 155.457 58.7385 151.767 58.7577C149.831 58.7631 147.896 58.7491 145.961 58.7341C120.828 58.9418 96.5177 71.6257 80.3563 90.7014Z" fill="black"/>
<path d="M1172.83 156.639C1187.42 167.743 1194.3 182.286 1196.8 200.222C1197.2 203.52 1197.58 206.821 1197.94 210.124C1198.08 211.362 1198.22 212.6 1198.36 213.875C1198.73 217.225 1199.1 220.576 1199.47 223.927C1199.7 226.026 1199.93 228.126 1200.17 230.225C1203.98 264.797 1207.64 299.423 1209.72 334.149C1210.25 342.919 1211.07 351.649 1211.95 360.389C1212.87 369.464 1213.68 378.501 1214.04 387.616C1214.31 394.436 1214.79 401.235 1215.29 408.042C1215.47 410.544 1215.65 413.046 1215.83 415.548C1215.93 416.826 1216.02 418.105 1216.11 419.422C1218.44 451.976 1220.55 484.527 1221.85 517.14C1221.88 518.036 1221.92 518.931 1221.95 519.854C1221.99 520.734 1222.02 521.614 1222.06 522.52C1222.39 530.699 1222.85 538.868 1223.32 547.04C1224.18 561.885 1224.73 576.719 1225.05 591.587C1225.06 592.316 1225.08 593.045 1225.1 593.796C1225.14 595.744 1225.18 597.691 1225.21 599.638C1225.33 603.444 1225.58 607.234 1225.83 611.033C1229.16 663.147 1228.7 715.421 1228.72 767.612C1228.73 779.353 1228.75 791.094 1228.77 802.835C1228.81 823.799 1228.83 844.764 1228.86 865.728C1228.86 866.973 1228.86 868.217 1228.86 869.499C1228.87 879.606 1228.88 889.712 1228.89 899.819C1228.9 908.696 1228.91 917.573 1228.92 926.451C1228.92 927.702 1228.92 928.953 1228.92 930.243C1228.95 951.183 1228.98 972.123 1229.01 993.063C1229.03 1005.9 1229.05 1018.74 1229.05 1031.58C1229.06 1040.37 1229.07 1049.16 1229.09 1057.95C1229.1 1063 1229.1 1068.04 1229.1 1073.09C1229.09 1101.36 1229.87 1129.4 1233.08 1157.51C1233.16 1158.23 1233.24 1158.95 1233.32 1159.68C1237.11 1193.12 1242.78 1226.72 1250.83 1259.39C1251.38 1262.21 1251.76 1264.42 1251.39 1267.26C1249.85 1269.36 1249.85 1269.36 1247.7 1271.41C1246.92 1272.17 1246.14 1272.93 1245.33 1273.71C1244.5 1274.49 1243.68 1275.27 1242.83 1276.08C1241.22 1277.62 1239.61 1279.17 1238.01 1280.72C1237.21 1281.49 1236.42 1282.26 1235.6 1283.05C1233.7 1284.95 1231.94 1286.88 1230.2 1288.93C1223.92 1296.28 1216.79 1302.91 1209.92 1309.71C1200.72 1318.78 1200.72 1318.78 1192.06 1328.37C1187.58 1333.45 1182.6 1338.09 1177.77 1342.84C1174.04 1346.54 1170.36 1350.21 1166.95 1354.2C1161.96 1360.03 1156.39 1365.32 1150.93 1370.7C1145.84 1375.73 1140.87 1380.78 1136.22 1386.21C1131.46 1391.55 1126.22 1396.47 1121.13 1401.49C1117.26 1405.32 1113.43 1409.13 1109.89 1413.26C1104.67 1419.36 1098.83 1424.86 1093.13 1430.49C1088.59 1434.98 1084.22 1439.51 1080.07 1444.36C1077.05 1447.78 1073.77 1450.94 1070.51 1454.14C1069.18 1455.45 1067.85 1456.76 1066.52 1458.07C1065.94 1458.64 1065.36 1459.2 1064.77 1459.79C1063.28 1461.24 1063.28 1461.24 1062.39 1463.26C1057.51 1462.83 1054.77 1460.41 1051.26 1457.26C1050.1 1456.25 1048.95 1455.24 1047.79 1454.23C1047.21 1453.72 1046.64 1453.22 1046.05 1452.7C1043.71 1450.68 1041.3 1448.76 1038.89 1446.83C1034.14 1442.97 1029.68 1438.88 1025.22 1434.7C1021.92 1431.62 1018.54 1428.71 1015.01 1425.89C1003.18 1416.34 992.444 1405.65 982.388 1394.26C981.903 1393.72 981.417 1393.17 980.917 1392.61C968.61 1378.71 957.233 1364.01 947.388 1348.26C946.824 1347.37 946.824 1347.37 946.249 1346.46C938.584 1334.15 933.425 1320.82 928.388 1307.26C928.115 1306.54 927.841 1305.82 927.56 1305.08C922.222 1290.76 919.958 1275.28 917.388 1260.26C917.237 1259.38 917.085 1258.5 916.929 1257.6C910.118 1215.52 918.766 1172.52 926.792 1131.32C928.731 1121.37 930.652 1111.41 932.575 1101.45C932.79 1100.34 933.004 1099.23 933.225 1098.09C935.752 1085 938.242 1071.91 940.45 1058.76C940.642 1057.63 940.834 1056.5 941.031 1055.34C942.813 1044.41 943.539 1033.6 943.512 1022.53C943.515 1020.86 943.515 1020.86 943.517 1019.15C943.52 1015.44 943.517 1011.73 943.514 1008.02C943.515 1005.35 943.517 1002.67 943.52 999.998C943.524 994.998 943.526 989.997 943.526 984.996C943.526 975.163 943.539 965.33 943.556 955.497C943.558 953.944 943.561 952.391 943.563 950.838C943.567 948.486 943.571 946.133 943.575 943.78C943.59 934.929 943.604 926.078 943.616 917.227C943.617 916.419 943.618 915.611 943.619 914.778C943.637 901.689 943.64 888.6 943.638 875.512C943.637 862.038 943.655 848.564 943.689 835.091C943.71 826.8 943.715 818.509 943.701 810.218C943.692 804.529 943.702 798.839 943.726 793.149C943.739 789.876 943.742 786.603 943.728 783.33C943.626 757.344 948.689 735.145 967.54 716.088C975.501 708.66 983.809 703.844 994.388 701.264C995.341 700.992 995.341 700.992 996.314 700.713C1008.86 697.995 1021.37 702.021 1032.14 708.389C1048.93 719.994 1058.65 736.983 1062.96 756.791C1063.65 760.782 1063.66 764.704 1063.63 768.745C1063.63 769.656 1063.64 770.568 1063.64 771.507C1063.64 774.537 1063.64 777.567 1063.63 780.598C1063.63 782.78 1063.63 784.962 1063.63 787.144C1063.64 791.833 1063.64 796.521 1063.63 801.209C1063.62 808.626 1063.63 816.044 1063.65 823.461C1063.69 844.55 1063.7 865.639 1063.69 886.728C1063.69 898.384 1063.7 910.039 1063.73 921.695C1063.75 929.064 1063.75 936.433 1063.73 943.802C1063.72 948.392 1063.73 952.981 1063.75 957.57C1063.76 959.693 1063.75 961.816 1063.74 963.939C1063.64 980.787 1063.64 980.787 1071.83 995.139C1079.38 1001.41 1085.5 1003.78 1095.29 1003.57C1103.88 1002.72 1110.75 998.688 1116.39 992.264C1123.23 982.541 1122.07 971.086 1121.99 959.767C1121.99 957.591 1121.99 955.415 1122 953.239C1122.01 947.352 1121.99 941.466 1121.96 935.58C1121.94 929.403 1121.94 923.226 1121.94 917.05C1121.93 906.675 1121.91 896.302 1121.87 885.928C1121.83 873.96 1121.82 861.992 1121.81 850.024C1121.81 837.25 1121.79 824.477 1121.77 811.703C1121.76 808.038 1121.76 804.372 1121.75 800.707C1121.75 794.929 1121.73 789.152 1121.71 783.374C1121.7 781.263 1121.69 779.151 1121.69 777.04C1121.69 762.511 1120.93 748.741 1117.08 734.639C1116.86 733.83 1116.64 733.021 1116.41 732.187C1110.05 709.327 1097.17 688.91 1080.39 672.264C1079.34 671.675 1079.34 671.675 1078.27 671.074C1076.39 669.264 1076.39 669.264 1075.89 666.011C1075.87 664.633 1075.87 663.255 1075.88 661.878C1075.88 661.116 1075.87 660.354 1075.87 659.568C1075.85 656.994 1075.87 654.42 1075.88 651.845C1075.88 649.988 1075.87 648.132 1075.86 646.276C1075.84 641.158 1075.85 636.04 1075.86 630.922C1075.87 625.409 1075.86 619.895 1075.85 614.382C1075.83 603.571 1075.84 592.759 1075.85 581.948C1075.86 573.158 1075.86 564.368 1075.85 555.577C1075.85 554.328 1075.85 553.078 1075.85 551.79C1075.85 549.252 1075.85 546.713 1075.85 544.174C1075.84 521.019 1075.85 497.863 1075.87 474.708C1075.89 453.587 1075.89 432.467 1075.87 411.346C1075.84 387.616 1075.84 363.886 1075.85 340.156C1075.85 337.623 1075.85 335.09 1075.85 332.557C1075.85 330.687 1075.85 330.687 1075.85 328.78C1075.86 320.009 1075.85 311.238 1075.84 302.467C1075.83 291.764 1075.83 281.062 1075.86 270.359C1075.87 264.901 1075.87 259.444 1075.86 253.986C1075.85 248.981 1075.85 243.977 1075.87 238.973C1075.88 237.17 1075.88 235.367 1075.87 233.564C1075.81 222.404 1076.99 212.925 1080.39 202.264C1081.02 200.036 1081.64 197.807 1082.26 195.577C1087.61 178.725 1097.77 163.068 1113.63 154.518C1132.76 145.315 1154.73 144.658 1172.83 156.639Z" fill="white"/>
<path d="M149.724 58.7608C151.105 58.7566 152.487 58.7507 153.868 58.7432C157.634 58.7278 161.4 58.7369 165.166 58.7503C169.275 58.7605 173.384 58.7474 177.492 58.7373C184.683 58.7229 191.875 58.7233 199.066 58.7335C209.76 58.7487 220.454 58.7409 231.148 58.7287C250.25 58.7076 269.353 58.7094 288.455 58.721C305.174 58.7311 321.893 58.7337 338.612 58.7289C340.276 58.7285 340.276 58.7285 341.974 58.728C346.479 58.7267 350.983 58.7255 355.488 58.7242C397.734 58.7119 439.98 58.723 482.226 58.7445C519.743 58.7635 557.259 58.7618 594.775 58.7427C636.94 58.7213 679.105 58.7128 721.271 58.7251C725.768 58.7264 730.265 58.7277 734.762 58.7289C735.869 58.7292 736.976 58.7295 738.117 58.7299C754.822 58.7344 771.526 58.7291 788.231 58.719C807.231 58.7076 826.231 58.7104 845.232 58.7321C855.859 58.7438 866.487 58.7447 877.114 58.7295C884.221 58.7205 891.327 58.7262 898.434 58.7436C902.477 58.753 906.521 58.7564 910.565 58.7419C937.359 58.6533 961.934 60.4864 983.388 78.2642C984.215 78.9293 985.043 79.5945 985.895 80.2798C1005.52 96.8932 1015.97 119.887 1018.39 145.264C1018.52 148.186 1018.52 151.102 1018.51 154.026C1018.51 154.876 1018.51 155.726 1018.51 156.602C1018.52 159.445 1018.51 162.289 1018.51 165.132C1018.51 167.193 1018.51 169.254 1018.51 171.315C1018.51 176.975 1018.51 182.635 1018.5 188.295C1018.5 194.4 1018.5 200.505 1018.5 206.61C1018.5 217.186 1018.5 227.762 1018.49 238.338C1018.49 249.428 1018.48 260.519 1018.48 271.61C1018.48 272.3 1018.48 272.99 1018.48 273.7C1018.48 277.204 1018.48 280.707 1018.48 284.211C1018.48 309.019 1018.47 333.828 1018.46 358.636C1018.45 382.736 1018.45 406.835 1018.44 430.935C1018.44 432.05 1018.44 432.05 1018.44 433.187C1018.44 440.648 1018.44 448.109 1018.44 455.571C1018.44 470.77 1018.43 485.97 1018.43 501.17C1018.43 501.868 1018.43 502.567 1018.43 503.287C1018.42 549.946 1018.4 596.605 1018.39 643.264C1017.62 643.256 1016.85 643.247 1016.06 643.238C1012.54 643.204 1009.02 643.183 1005.49 643.163C1004.29 643.149 1003.08 643.135 1001.84 643.121C991.839 643.077 982.904 644.275 973.388 647.264C972.718 647.468 972.048 647.672 971.357 647.881C939.383 657.876 916.063 681.536 900.712 710.565C889.197 733.269 886.785 756.011 886.905 781.151C886.903 783.798 886.899 786.445 886.893 789.092C886.884 794.755 886.888 800.418 886.902 806.081C886.921 814.299 886.915 822.517 886.901 830.735C886.88 844.114 886.873 857.494 886.878 870.873C886.879 872.07 886.879 872.07 886.879 873.291C886.882 879.757 886.885 886.223 886.889 892.689C886.892 898.33 886.895 903.971 886.897 909.612C886.897 910.407 886.897 911.201 886.898 912.019C886.903 925.345 886.892 938.671 886.87 951.997C886.858 960.176 886.859 968.355 886.879 976.535C886.891 982.157 886.89 987.779 886.877 993.401C886.871 996.625 886.872 999.848 886.888 1003.07C886.968 1020.8 885.347 1037.79 882.388 1055.26C882.226 1056.22 882.064 1057.18 881.898 1058.17C880.971 1063.63 879.981 1069.07 878.95 1074.51C878.645 1076.15 878.339 1077.79 878.034 1079.42C876.035 1090.09 873.879 1100.72 871.634 1111.34C867.702 1129.98 864.183 1148.58 861.575 1167.45C861.417 1168.59 861.417 1168.59 861.256 1169.75C859.454 1182.83 858.233 1195.72 858.22 1208.94C858.216 1210.11 858.213 1211.28 858.21 1212.48C858.205 1214.93 858.202 1217.39 858.202 1219.84C858.2 1223.56 858.182 1227.27 858.163 1230.98C858.117 1247.2 858.117 1247.2 859.957 1263.27C860.441 1266.63 860.455 1269.87 860.388 1273.26C855.397 1271.78 850.78 1269.67 846.071 1267.48C829.605 1260 808.419 1259.58 791.317 1265.53C780.912 1269.5 771.603 1274.69 763.388 1282.26C762.447 1283.1 761.506 1283.94 760.536 1284.8C742.651 1301.28 732.1 1324.58 721.516 1346.07C721.034 1347.05 721.034 1347.05 720.542 1348.05C720.061 1349.03 720.061 1349.03 719.57 1350.03C718.926 1351.34 718.282 1352.64 717.638 1353.95C717.322 1354.59 717.007 1355.23 716.682 1355.89C711.922 1365.53 706.881 1374.67 700.388 1383.26C699.43 1384.56 699.43 1384.56 698.454 1385.87C696.181 1388.5 693.826 1390.41 691.013 1392.45C690.097 1393.13 689.182 1393.8 688.239 1394.49C682.566 1398.02 676.959 1399.27 670.388 1398.26C647.727 1390.6 638.19 1364.59 628.304 1345.07C613.769 1315.62 613.769 1315.62 594.388 1289.26C593.693 1288.49 592.998 1287.71 592.282 1286.91C583.542 1277.66 573.178 1270.97 561.388 1266.26C560.551 1265.91 559.714 1265.57 558.852 1265.21C542.83 1259.09 521.047 1260.41 505.415 1267.11C496.906 1271.04 489.333 1275.95 482.388 1282.26C481.445 1283.1 480.503 1283.94 479.532 1284.8C461.595 1301.34 451.115 1324.69 440.411 1346.21C440.079 1346.88 439.747 1347.55 439.405 1348.23C437.8 1351.47 436.204 1354.7 434.625 1357.95C427.064 1373.4 418.202 1389.89 401.95 1397.39C396.748 1399.17 391.147 1399.26 385.954 1397.39C383.622 1396.16 381.524 1394.81 379.388 1393.26C378.405 1392.57 378.405 1392.57 377.403 1391.87C362.297 1379.96 354.806 1360.02 346.397 1343.29C330.091 1310.87 313.765 1279.51 278.13 1265.09C258.351 1259.14 236.491 1260.57 218.191 1270.02C187.172 1286.75 172.669 1317.26 157.27 1347.34C152.553 1356.54 147.967 1365.24 141.388 1373.26C140.84 1373.98 140.292 1374.71 139.727 1375.45C134.785 1381.63 128.432 1385.74 121.388 1389.26C107.514 1390.48 98.8754 1386.04 88.3876 1377.26C78.7838 1367.02 71.7681 1354.15 66.3875 1341.26C65.9251 1340.25 65.4626 1339.24 64.9862 1338.2C55.547 1315.93 57.6752 1290.34 57.7514 1266.71C57.7651 1260.74 57.7496 1254.77 57.7379 1248.8C57.7214 1238.35 57.7232 1227.9 57.7377 1217.45C57.7531 1206.25 57.7576 1195.05 57.7488 1183.85C57.748 1182.79 57.748 1182.79 57.7472 1181.7C57.7449 1178.81 57.7426 1175.92 57.7402 1173.03C57.7175 1146.15 57.7193 1119.27 57.7366 1092.4C57.7534 1066.51 57.7614 1040.61 57.7574 1014.72C57.7572 1013.09 57.7569 1011.47 57.7567 1009.84C57.7557 1003.29 57.7547 996.75 57.7536 990.206C57.7506 971.916 57.7493 953.626 57.7492 935.336C57.7492 934.504 57.7492 933.671 57.7492 932.813C57.7493 906.291 57.7569 879.769 57.7696 853.247C57.7701 852.387 57.7705 851.527 57.7709 850.641C57.7776 836.68 57.7848 822.718 57.792 808.757C57.8204 753.379 57.8264 698.001 57.8111 642.624C57.8102 639.123 57.8092 635.623 57.8083 632.123C57.808 631.257 57.8078 630.392 57.8075 629.5C57.8049 619.916 57.8024 610.331 57.8 600.746C57.7997 599.886 57.7995 599.027 57.7993 598.141C57.7877 552.534 57.794 506.928 57.8071 461.321C57.809 454.785 57.8108 448.248 57.8127 441.712C57.8133 439.274 57.814 436.837 57.8147 434.399C57.8198 416.583 57.8221 398.767 57.8173 380.951C57.8171 380.149 57.8169 379.347 57.8167 378.521C57.8156 374.483 57.8144 370.445 57.8132 366.407C57.8047 337.202 57.8089 307.997 57.836 278.792C57.8386 275.912 57.8411 273.032 57.8437 270.151C57.8443 269.445 57.8449 268.738 57.8455 268.009C57.855 256.84 57.8511 245.67 57.8417 234.501C57.8327 223.505 57.8384 212.509 57.8586 201.513C57.869 195.637 57.8731 189.761 57.8596 183.885C57.8474 178.53 57.8539 173.175 57.8748 167.82C57.8791 165.904 57.8768 163.988 57.8668 162.072C57.7214 131.869 66.0057 105.265 87.4657 83.1196C104.498 67.1284 126.473 58.5857 149.724 58.7608ZM110.388 119.264C100.593 132.6 99.8002 146.185 99.8842 162.066C99.88 164.069 99.8741 166.071 99.8666 168.074C99.851 173.575 99.8603 179.075 99.8737 184.576C99.8838 190.561 99.8708 196.547 99.8607 202.532C99.8463 213.021 99.8466 223.511 99.8569 234C99.8679 245.252 99.8702 256.504 99.8619 267.755C99.8612 268.822 99.8612 268.822 99.8604 269.911C99.8582 272.809 99.8561 275.706 99.8538 278.603C99.8326 305.575 99.8312 332.548 99.8424 359.52C99.8427 360.318 99.843 361.117 99.8434 361.94C99.8437 362.74 99.844 363.541 99.8444 364.365C99.8545 388.744 99.8571 413.122 99.8523 437.501C99.852 439.134 99.8517 440.766 99.8514 442.399C99.8501 448.96 99.8488 455.521 99.8475 462.082C99.8439 480.423 99.8416 498.763 99.8404 517.104C99.8403 517.939 99.8403 518.775 99.8402 519.635C99.8386 546.247 99.8431 572.859 99.8518 599.471C99.8521 600.334 99.8523 601.198 99.8526 602.087C99.8572 616.103 99.8621 630.12 99.867 644.136C99.8864 699.724 99.8855 755.311 99.8661 810.899C99.8612 824.907 99.8563 838.915 99.8518 852.923C99.8515 853.786 99.8512 854.648 99.8509 855.537C99.8423 882.12 99.8386 908.704 99.8404 935.287C99.8404 936.122 99.8405 936.957 99.8405 937.816C99.8418 956.137 99.8443 974.458 99.848 992.779C99.8493 999.335 99.8506 1005.89 99.8518 1012.45C99.8521 1014.08 99.8524 1015.71 99.8528 1017.34C99.8575 1041.71 99.8535 1066.08 99.8434 1090.45C99.843 1091.25 99.8427 1092.05 99.8424 1092.87C99.842 1093.67 99.8417 1094.47 99.8414 1095.29C99.8303 1122.18 99.8344 1149.08 99.8555 1175.98C99.8577 1178.86 99.8598 1181.75 99.8619 1184.64C99.8625 1185.35 99.863 1186.06 99.8635 1186.79C99.8714 1198.01 99.8659 1209.23 99.8549 1220.45C99.8443 1231.49 99.8483 1242.52 99.8669 1253.56C99.8765 1259.46 99.8797 1265.36 99.8653 1271.27C99.8524 1276.64 99.8579 1282.01 99.878 1287.38C99.882 1289.31 99.8794 1291.24 99.8692 1293.17C99.8146 1304.28 100.553 1313.72 104.388 1324.26C104.664 1325.04 104.94 1325.81 105.224 1326.61C105.913 1328.43 106.677 1330.23 107.45 1332.01C107.936 1333.16 108.422 1334.31 108.923 1335.5C110.235 1338.51 110.235 1338.51 113.388 1340.26C118.63 1332.37 122.978 1324.21 127.138 1315.7C138.016 1293.57 150.629 1273.57 168.388 1256.26C168.911 1255.7 169.434 1255.13 169.973 1254.54C184.227 1239.42 204.421 1228.55 224.388 1223.26C225.554 1222.95 226.721 1222.63 227.923 1222.3C247.952 1217.71 268.905 1219.08 288.388 1225.26C289.571 1225.64 290.754 1226.01 291.973 1226.39C346.164 1245.59 369.582 1297.24 393.388 1345.26C396.345 1342.47 397.956 1339.46 399.7 1335.83C400.41 1334.39 401.119 1332.95 401.829 1331.51C403.202 1328.7 404.57 1325.89 405.934 1323.08C419.211 1295.78 434.032 1267.44 458.388 1248.26C459.335 1247.52 460.282 1246.77 461.259 1246C475.051 1235.5 490.456 1227.15 507.388 1223.26C508.385 1223.01 509.383 1222.75 510.411 1222.48C518.134 1220.53 525.368 1219.72 533.325 1219.76C534.489 1219.77 535.652 1219.77 536.851 1219.78C553.517 1220.11 569.334 1224.19 584.388 1231.26C585.308 1231.69 585.308 1231.69 586.248 1232.13C609.395 1243.15 627.753 1261.8 641.388 1283.26C642.008 1284.24 642.008 1284.24 642.641 1285.23C654.662 1304.37 664.387 1325.02 674.388 1345.26C676.63 1343.2 678.044 1341.31 679.374 1338.57C679.917 1337.46 679.917 1337.46 680.47 1336.34C681.046 1335.14 681.046 1335.14 681.634 1333.92C682.473 1332.21 683.313 1330.5 684.153 1328.79C684.589 1327.9 685.026 1327 685.475 1326.08C706.205 1283.74 731.065 1244.03 777.2 1226.51C782.553 1224.72 787.954 1223.29 793.45 1222.01C794.145 1221.85 794.84 1221.69 795.557 1221.52C802.108 1220.1 808.708 1219.68 815.388 1219.26C815.455 1218.07 815.455 1218.07 815.524 1216.85C817.751 1178.05 822.753 1140.01 830.741 1101.99C832.995 1091.25 835.128 1080.5 837.183 1069.73C837.52 1067.96 837.859 1066.19 838.199 1064.42C838.678 1061.92 839.153 1059.43 839.626 1056.94C839.76 1056.24 839.894 1055.54 840.032 1054.82C840.313 1053.33 840.583 1051.83 840.843 1050.34C841.246 1048.06 841.678 1045.79 842.123 1043.52C844.736 1029.51 844.803 1015.72 844.756 1001.5C844.759 998.858 844.763 996.213 844.768 993.568C844.777 987.907 844.776 982.246 844.768 976.585C844.756 968.376 844.766 960.166 844.78 951.957C844.804 938.599 844.817 925.241 844.821 911.883C844.822 910.688 844.822 910.688 844.822 909.469C844.825 900.588 844.825 891.706 844.824 882.825C844.824 879.605 844.824 876.386 844.823 873.167C844.823 872.372 844.823 871.578 844.823 870.759C844.823 857.45 844.838 844.141 844.864 830.832C844.88 822.657 844.882 814.482 844.867 806.307C844.858 800.693 844.863 795.079 844.878 789.466C844.887 786.242 844.887 783.02 844.874 779.796C844.812 763.855 846.063 748.866 849.388 733.264C849.631 732.089 849.875 730.914 850.126 729.703C850.752 726.837 851.531 724.07 852.388 721.264C852.597 720.574 852.806 719.884 853.022 719.172C860.928 693.628 874.305 670.885 892.388 651.264C892.902 650.705 893.416 650.145 893.946 649.568C914.878 627.077 942.799 611.614 972.533 604.222C973.805 603.906 975.077 603.59 976.388 603.264C976.479 544.485 976.55 485.706 976.592 426.927C976.597 419.987 976.602 413.048 976.607 406.108C976.608 405.073 976.608 405.073 976.609 404.016C976.626 381.643 976.656 359.271 976.693 336.898C976.732 313.251 976.756 289.603 976.764 265.956C976.769 251.792 976.787 237.629 976.819 223.466C976.84 213.754 976.847 204.042 976.842 194.33C976.839 188.726 976.843 183.123 976.864 177.519C976.884 172.386 976.885 167.252 976.871 162.118C976.869 160.265 976.874 158.411 976.887 156.558C976.989 140.539 974.402 127.464 963.427 115.045C951.469 103.488 937.165 99.9547 921.058 100.004C919.7 100.001 918.343 99.9972 916.985 99.9926C913.253 99.9823 909.521 99.9845 905.789 99.9886C901.73 99.991 897.67 99.9818 893.611 99.9742C886.495 99.9623 879.379 99.9579 872.264 99.9585C861.682 99.9593 851.101 99.9487 840.519 99.9361C819.419 99.9113 798.319 99.9025 777.219 99.8975C776.126 99.8973 775.034 99.897 773.908 99.8967C772.265 99.8963 772.265 99.8963 770.59 99.8959C758.458 99.8929 746.325 99.8864 734.193 99.8797C697.553 99.8601 660.913 99.8437 624.273 99.8409C623.101 99.8408 621.929 99.8407 620.721 99.8406C615.971 99.8402 611.222 99.8398 606.472 99.8395C602.897 99.8392 599.322 99.8389 595.747 99.8386C594.566 99.8386 593.384 99.8385 592.167 99.8384C555.048 99.8355 517.929 99.8134 480.81 99.7771C439.114 99.7364 397.419 99.7127 355.723 99.7124C351.277 99.7123 346.831 99.7121 342.385 99.7119C341.29 99.7119 340.195 99.7118 339.067 99.7118C321.448 99.7107 303.829 99.6933 286.21 99.6701C268.503 99.6473 250.795 99.643 233.088 99.6576C222.568 99.6658 212.049 99.6601 201.529 99.6345C194.5 99.6187 187.47 99.6212 180.441 99.6384C176.437 99.6476 172.434 99.6491 168.431 99.6284C164.782 99.6097 161.133 99.6144 157.484 99.637C155.568 99.6431 153.652 99.6248 151.736 99.6053C135.494 99.7689 120.768 106.69 110.388 119.264Z" fill="white"/>
<path d="M1361.39 1288.26C1364.17 1290.49 1366.72 1292.9 1369.26 1295.39C1369.97 1296.07 1370.68 1296.75 1371.41 1297.44C1378.19 1303.97 1384.83 1310.65 1391.44 1317.35C1394.88 1320.83 1398.3 1324.25 1402.04 1327.42C1409.59 1333.9 1416.41 1341.24 1423.41 1348.3C1432.75 1357.8 1432.75 1357.8 1442.63 1366.73C1446.78 1370.35 1450.54 1374.38 1454.39 1378.3C1457.57 1381.52 1460.76 1384.64 1464.2 1387.58C1470.06 1392.62 1475.4 1398.22 1480.82 1403.72C1485.96 1408.92 1491.12 1414.03 1496.68 1418.78C1499.02 1420.82 1501.21 1422.99 1503.39 1425.2C1504.15 1425.97 1504.91 1426.75 1505.7 1427.54C1506.54 1428.39 1506.54 1428.39 1507.39 1429.26C1506 1432.4 1504.39 1434.49 1501.94 1436.87C1500.91 1437.88 1500.91 1437.88 1499.87 1438.91C1499.15 1439.61 1498.44 1440.3 1497.7 1441.01C1493.64 1444.97 1489.63 1448.91 1485.93 1453.22C1481.28 1458.63 1476.15 1463.55 1471.06 1468.55C1466.9 1472.67 1462.94 1476.86 1459.13 1481.3C1455.41 1485.49 1451.35 1489.34 1447.35 1493.26C1444.15 1496.42 1441.05 1499.6 1438.14 1503.01C1432.72 1509.3 1426.69 1515.02 1420.79 1520.85C1415.34 1526.23 1409.97 1531.61 1404.99 1537.44C1401.54 1541.37 1397.73 1544.96 1393.99 1548.62C1390.9 1551.68 1387.91 1554.77 1385.08 1558.08C1379.78 1564.22 1373.9 1569.8 1368.13 1575.49C1364.27 1579.31 1360.45 1583.11 1356.92 1587.23C1351.94 1593.05 1346.38 1598.33 1340.93 1603.7C1335.82 1608.75 1330.82 1613.82 1326.15 1619.28C1321.83 1624.15 1317.06 1628.63 1312.42 1633.2C1308.13 1637.44 1304.04 1641.74 1300.11 1646.32C1296.41 1650.5 1292.34 1654.35 1288.35 1658.26C1285.09 1661.48 1281.94 1664.73 1278.95 1668.2C1274.29 1673.62 1269.15 1678.55 1264.06 1683.55C1259.9 1687.67 1255.94 1691.86 1252.13 1696.3C1248.41 1700.49 1244.35 1704.34 1240.35 1708.26C1236.42 1712.15 1232.71 1716.14 1229.1 1720.33C1226.38 1723.41 1223.45 1726.27 1220.51 1729.14C1216.47 1732.83 1216.47 1732.83 1213.39 1737.26C1209.54 1735.68 1207.14 1733.23 1204.25 1730.28C1203.76 1729.79 1203.28 1729.3 1202.78 1728.8C1201.22 1727.23 1199.68 1725.65 1198.14 1724.08C1196.12 1722.02 1194.09 1719.96 1192.06 1717.91C1191.57 1717.41 1191.07 1716.91 1190.56 1716.39C1187.29 1713.11 1183.9 1710.04 1180.38 1707.03C1175.28 1702.5 1170.6 1697.5 1165.81 1692.65C1162.13 1688.93 1158.46 1685.26 1154.48 1681.86C1148.44 1676.68 1142.96 1670.89 1137.38 1665.23C1132.16 1659.96 1126.94 1654.77 1121.3 1649.95C1116.89 1646.06 1112.86 1641.77 1108.74 1637.58C1105.42 1634.22 1102.08 1630.94 1098.48 1627.86C1092.6 1622.79 1087.25 1617.17 1081.81 1611.65C1077.37 1607.17 1072.9 1602.83 1068.1 1598.74C1059.99 1591.73 1056.26 1583.1 1054.9 1572.44C1054.39 1558.54 1059.47 1549.46 1068.39 1539.26C1072.62 1534.77 1077.04 1530.46 1081.45 1526.14C1083.74 1523.89 1086.02 1521.64 1088.3 1519.38C1089.12 1518.57 1089.12 1518.57 1089.95 1517.74C1093.36 1514.35 1096.57 1510.85 1099.69 1507.19C1103.98 1502.33 1108.74 1497.88 1113.36 1493.33C1116.96 1489.77 1120.5 1486.21 1123.79 1482.36C1128.8 1476.52 1134.37 1471.22 1139.85 1465.83C1144.94 1460.79 1149.93 1455.73 1154.59 1450.28C1159.14 1445.18 1164.14 1440.48 1169.01 1435.69C1172.75 1431.97 1176.45 1428.27 1179.89 1424.26C1184.91 1418.4 1190.51 1413.1 1196.01 1407.69C1199.75 1403.97 1203.45 1400.27 1206.89 1396.26C1211.91 1390.4 1217.51 1385.1 1223.01 1379.69C1226.7 1376.02 1230.36 1372.38 1233.73 1368.42C1239.28 1361.95 1245.51 1356.09 1251.56 1350.11C1257.09 1344.64 1262.56 1339.19 1267.61 1333.26C1272.35 1327.93 1277.58 1323.04 1282.65 1318.04C1287.19 1313.54 1291.58 1309.01 1295.73 1304.16C1298.63 1300.84 1301.72 1297.71 1304.83 1294.58C1305.44 1293.94 1306.06 1293.3 1306.69 1292.65C1322.94 1276.27 1342.57 1275.61 1361.39 1288.26Z" fill="white"/>
<path d="M1327.39 1338.26C1330.53 1339.65 1332.61 1341.26 1335 1343.71C1335.67 1344.4 1336.34 1345.08 1337.04 1345.79C1337.73 1346.5 1338.42 1347.22 1339.14 1347.95C1343.1 1352.01 1347.04 1356.02 1351.34 1359.72C1356.75 1364.38 1361.68 1369.51 1366.68 1374.59C1370.07 1378.02 1373.46 1381.39 1377.14 1384.51C1383.84 1390.27 1389.91 1396.73 1396.12 1403.01C1401.8 1408.76 1407.45 1414.46 1413.61 1419.71C1416.78 1422.48 1419.69 1425.51 1422.64 1428.51C1427.69 1433.75 1427.69 1433.75 1433.39 1438.26C1432.85 1442.39 1430.68 1444.47 1427.89 1447.45C1427.41 1447.96 1426.94 1448.47 1426.45 1448.99C1421.27 1454.5 1415.89 1459.82 1410.49 1465.12C1407.18 1468.39 1403.97 1471.69 1400.93 1475.22C1396.28 1480.63 1391.15 1485.55 1386.06 1490.55C1382.63 1493.95 1379.27 1497.34 1376.14 1501.01C1370.38 1507.71 1363.92 1513.79 1357.64 1519.99C1351.95 1525.62 1346.31 1531.21 1341.11 1537.31C1336.6 1542.41 1331.61 1547.07 1326.77 1551.84C1322.37 1556.2 1318.15 1560.61 1314.13 1565.3C1310.21 1569.72 1305.91 1573.78 1301.7 1577.91C1298.35 1581.23 1295.08 1584.55 1292.01 1588.14C1286.74 1594.26 1280.88 1599.82 1275.13 1605.49C1270.59 1609.99 1266.2 1614.53 1262.05 1619.38C1258.57 1623.33 1254.75 1626.94 1250.99 1630.62C1247.87 1633.7 1244.87 1636.81 1242.01 1640.14C1237.89 1644.92 1233.43 1649.33 1228.95 1653.76C1228.12 1654.59 1227.3 1655.41 1226.44 1656.26C1224.43 1658.26 1222.41 1660.26 1220.39 1662.26C1212.71 1656.96 1206.39 1650.46 1199.89 1643.83C1197.71 1641.62 1195.54 1639.41 1193.36 1637.21C1192.83 1636.68 1192.31 1636.15 1191.77 1635.6C1188.39 1632.21 1184.9 1629.01 1181.26 1625.91C1176.86 1622.04 1172.85 1617.76 1168.74 1613.58C1165.4 1610.21 1162.05 1606.92 1158.45 1603.83C1152.8 1598.97 1147.67 1593.6 1142.45 1588.29C1138.19 1583.99 1133.87 1579.87 1129.28 1575.93C1126.18 1573.2 1123.29 1570.27 1120.39 1567.33C1119.8 1566.74 1119.22 1566.15 1118.62 1565.54C1117.21 1564.12 1115.8 1562.69 1114.39 1561.26C1115.97 1557.37 1118.63 1554.78 1121.59 1551.9C1122.1 1551.4 1122.61 1550.89 1123.14 1550.37C1124.78 1548.74 1126.43 1547.13 1128.08 1545.51C1130.23 1543.4 1132.38 1541.28 1134.52 1539.15C1135.05 1538.64 1135.57 1538.12 1136.1 1537.59C1139.46 1534.25 1142.6 1530.81 1145.67 1527.21C1149.97 1522.34 1154.73 1517.89 1159.36 1513.33C1163.67 1509.06 1167.8 1504.72 1171.76 1500.12C1174.82 1496.63 1178.17 1493.44 1181.49 1490.2C1184.3 1487.43 1186.98 1484.61 1189.54 1481.61C1195 1475.29 1201.06 1469.54 1206.99 1463.68C1214.13 1456.68 1214.13 1456.68 1220.86 1449.3C1226.35 1442.86 1232.55 1437.05 1238.56 1431.11C1244.17 1425.57 1249.72 1420.05 1254.83 1414.04C1257.53 1410.96 1260.46 1408.13 1263.39 1405.26C1268.77 1399.95 1268.77 1399.95 1273.83 1394.33C1277.85 1389.56 1282.35 1385.26 1286.8 1380.89C1289.82 1377.91 1292.74 1374.9 1295.49 1371.66C1301.04 1365.22 1307.22 1359.36 1313.26 1353.39C1315.72 1350.96 1318.18 1348.52 1320.63 1346.08C1321.48 1345.25 1321.48 1345.25 1322.34 1344.4C1325.22 1341.61 1325.22 1341.61 1327.39 1338.26Z" fill="#75767B"/>
<path d="M392.908 394.13C393.78 394.127 394.653 394.125 395.552 394.123C398.496 394.116 401.44 394.116 404.384 394.117C406.508 394.113 408.632 394.11 410.756 394.106C416.609 394.096 422.462 394.092 428.315 394.089C434.621 394.085 440.927 394.076 447.234 394.067C461.751 394.048 476.268 394.038 490.786 394.03C497.96 394.025 505.134 394.02 512.308 394.015C536.865 393.997 561.423 393.982 585.98 393.975C587.522 393.974 589.064 393.974 590.606 393.973C591.37 393.973 592.135 393.973 592.923 393.972C596.797 393.971 600.67 393.97 604.544 393.969C605.313 393.968 606.082 393.968 606.874 393.968C631.797 393.96 656.72 393.937 681.644 393.904C707.994 393.87 734.344 393.85 760.694 393.847C763.588 393.846 766.481 393.846 769.374 393.845C770.086 393.845 770.799 393.845 771.533 393.845C782.993 393.843 794.454 393.827 805.914 393.807C817.437 393.786 828.959 393.781 840.481 393.79C846.722 393.795 852.963 393.793 859.205 393.774C864.92 393.756 870.635 393.757 876.35 393.773C878.416 393.775 880.482 393.771 882.548 393.759C904.958 393.638 904.958 393.638 914.325 400.377C921.898 408.452 924.058 414.368 923.794 425.533C922.878 433.948 918.974 439.403 912.645 444.791C906.528 448.781 901.556 449.704 894.402 449.65C893.516 449.655 892.629 449.66 891.716 449.666C888.742 449.68 885.769 449.672 882.796 449.665C880.644 449.671 878.492 449.678 876.34 449.686C870.423 449.704 864.507 449.704 858.59 449.7C852.21 449.699 845.831 449.716 839.451 449.73C826.951 449.755 814.451 449.763 801.951 449.765C791.792 449.766 781.633 449.773 771.474 449.782C768.549 449.785 765.625 449.788 762.701 449.79C761.61 449.791 761.61 449.791 760.497 449.792C740.048 449.811 719.599 449.823 699.15 449.821C698.379 449.821 697.608 449.821 696.814 449.821C692.906 449.821 688.999 449.82 685.091 449.82C683.927 449.82 683.927 449.82 682.74 449.82C681.17 449.82 679.601 449.82 678.032 449.82C653.614 449.818 629.197 449.84 604.78 449.881C577.346 449.927 549.913 449.953 522.479 449.95C519.554 449.95 516.628 449.95 513.703 449.95C512.983 449.95 512.262 449.95 511.52 449.95C499.93 449.95 488.34 449.969 476.751 449.995C465.102 450.02 453.454 450.023 441.805 450.003C435.495 449.994 429.186 449.994 422.875 450.02C417.099 450.043 411.322 450.039 405.546 450.013C403.456 450.008 401.367 450.014 399.277 450.03C387.381 450.119 378.505 450.148 369.507 441.445C363.962 435.681 361.812 429.309 361.888 421.389C361.893 420.688 361.899 419.987 361.905 419.264C362.151 412.102 364.203 407.611 369.067 402.498C376.352 395.829 383.271 394.112 392.908 394.13Z" fill="white"/>
<path d="M403.24 218.643C405.383 218.638 407.527 218.632 409.671 218.623C415.55 218.606 421.429 218.621 427.309 218.64C433.654 218.655 439.999 218.642 446.344 218.632C458.051 218.619 469.757 218.627 481.464 218.648C492.279 218.666 503.093 218.675 513.907 218.673C514.625 218.673 515.343 218.673 516.082 218.673C518.995 218.672 521.909 218.672 524.822 218.671C552.142 218.667 579.462 218.689 606.782 218.725C631.053 218.757 655.323 218.769 679.593 218.763C681.151 218.763 682.71 218.763 684.269 218.762C685.039 218.762 685.81 218.762 686.604 218.762C690.483 218.761 694.362 218.76 698.241 218.759C699.006 218.759 699.772 218.758 700.56 218.758C720.845 218.754 741.129 218.764 761.413 218.779C762.135 218.779 762.857 218.78 763.6 218.78C764.68 218.781 764.68 218.781 765.783 218.782C766.502 218.782 767.22 218.783 767.961 218.783C769.409 218.784 770.857 218.785 772.305 218.787C782.397 218.794 792.49 218.796 802.582 218.795C815.587 218.793 828.592 218.801 841.597 218.826C847.868 218.838 854.139 218.845 860.411 218.839C866.15 218.834 871.888 218.843 877.627 218.863C879.705 218.867 881.783 218.867 883.861 218.861C886.683 218.854 889.504 218.865 892.326 218.881C893.539 218.871 893.539 218.871 894.777 218.862C903.532 218.954 911.158 222.022 917.388 228.264C922.95 235.259 924.298 241.9 923.903 250.741C923.159 255.826 921.576 259.274 918.388 263.264C917.88 263.91 917.372 264.556 916.849 265.221C911.476 271.268 905.148 274.127 897.086 274.629C891.595 274.831 886.105 274.793 880.612 274.765C878.476 274.769 876.341 274.775 874.205 274.782C868.349 274.797 862.492 274.787 856.635 274.773C850.315 274.761 843.995 274.773 837.674 274.782C826.013 274.795 814.351 274.791 802.69 274.776C791.917 274.763 781.145 274.758 770.372 274.761C769.657 274.761 768.942 274.761 768.206 274.761C765.304 274.762 762.402 274.762 759.5 274.763C732.285 274.77 705.071 274.755 677.856 274.729C653.68 274.705 629.504 274.7 605.328 274.71C599.136 274.713 592.944 274.716 586.752 274.718C585.989 274.718 585.227 274.719 584.442 274.719C564.236 274.726 544.03 274.72 523.824 274.709C521.649 274.708 519.475 274.707 517.301 274.706C515.859 274.705 514.417 274.704 512.974 274.704C502.208 274.698 491.441 274.699 480.674 274.704C468.433 274.709 456.192 274.703 443.951 274.683C437.704 274.673 431.457 274.668 425.21 274.676C419.493 274.683 413.777 274.676 408.06 274.658C405.99 274.654 403.92 274.655 401.851 274.662C399.04 274.67 396.229 274.66 393.418 274.645C392.613 274.651 391.807 274.658 390.977 274.665C383.169 274.585 376.541 272.214 370.388 267.264C364.427 260.721 360.672 253.615 361.044 244.62C362.368 235.546 367.075 228.415 374.22 222.832C383.126 217.506 393.222 218.577 403.24 218.643Z" fill="white"/>
<path d="M399.1 569.749C400.928 569.744 402.755 569.737 404.582 569.728C409.595 569.71 414.609 569.716 419.622 569.726C425.032 569.733 430.442 569.717 435.852 569.704C446.447 569.683 457.043 569.683 467.638 569.691C476.25 569.697 484.862 569.696 493.474 569.69C494.699 569.689 495.925 569.688 497.188 569.687C499.677 569.685 502.167 569.683 504.656 569.681C528.006 569.665 551.355 569.674 574.705 569.69C596.066 569.705 617.428 569.691 638.789 569.662C660.723 569.632 682.657 569.621 704.591 569.631C707.072 569.632 709.553 569.633 712.034 569.634C713.255 569.634 714.475 569.635 715.733 569.635C724.333 569.637 732.933 569.628 741.533 569.613C752.016 569.596 762.499 569.596 772.982 569.618C778.33 569.63 783.678 569.633 789.026 569.614C793.924 569.597 798.821 569.604 803.719 569.628C805.489 569.633 807.259 569.63 809.028 569.617C819.441 569.547 828.472 569.761 836.511 577.239C842.07 583.061 844.525 588.562 844.825 596.639C844.586 605.354 841.696 612.064 835.608 618.352C826.39 626.29 814.87 625.977 803.422 625.892C801.616 625.897 799.81 625.904 798.004 625.914C793.068 625.933 788.132 625.92 783.196 625.903C777.863 625.89 772.53 625.905 767.196 625.917C756.759 625.935 746.322 625.927 735.884 625.909C727.401 625.895 718.918 625.891 710.435 625.894C708.623 625.895 708.623 625.895 706.773 625.896C704.319 625.897 701.864 625.898 699.409 625.899C677.714 625.907 656.02 625.891 634.325 625.861C613.28 625.832 592.235 625.825 571.189 625.84C548.262 625.857 525.335 625.861 502.408 625.844C499.963 625.842 497.518 625.84 495.073 625.838C493.87 625.837 492.667 625.836 491.427 625.835C482.955 625.83 474.482 625.833 466.009 625.84C455.683 625.847 445.358 625.841 435.032 625.816C429.765 625.803 424.498 625.797 419.231 625.808C414.408 625.818 409.584 625.81 404.761 625.787C403.018 625.781 401.275 625.783 399.533 625.792C389.318 625.84 380.444 625.537 371.802 619.44C364.968 612.322 362.204 606.675 361.888 596.701C362.177 587.37 364.795 582.452 371.216 575.905C380.063 569.221 388.488 569.695 399.1 569.749Z" fill="white"/>
<path d="M398.912 919.756C400.489 919.751 402.066 919.745 403.643 919.737C407.961 919.72 412.278 919.729 416.596 919.741C421.258 919.75 425.921 919.736 430.584 919.725C439.712 919.707 448.839 919.711 457.967 919.723C465.386 919.732 472.806 919.733 480.225 919.729C481.281 919.728 482.337 919.727 483.426 919.727C485.572 919.726 487.718 919.724 489.864 919.723C509.983 919.712 530.101 919.725 550.22 919.746C567.478 919.764 584.737 919.761 601.995 919.742C622.042 919.721 642.089 919.713 662.136 919.725C664.274 919.726 666.413 919.727 668.551 919.729C669.603 919.729 670.655 919.73 671.738 919.731C679.148 919.734 686.557 919.728 693.966 919.719C702.997 919.708 712.028 919.711 721.059 919.732C725.665 919.742 730.272 919.747 734.879 919.733C739.098 919.721 743.317 919.728 747.536 919.749C749.06 919.754 750.584 919.751 752.108 919.742C763.641 919.674 772.113 921.23 780.657 929.381C786.357 935.583 787.012 941.7 786.927 949.97C786.557 958.377 783.615 963.373 777.575 969.139C769.535 976.236 760.023 975.697 749.953 975.658C748.373 975.663 746.794 975.669 745.214 975.677C740.885 975.693 736.555 975.691 732.226 975.685C727.552 975.683 722.879 975.697 718.205 975.71C709.053 975.731 699.902 975.735 690.75 975.733C683.311 975.732 675.872 975.736 668.432 975.743C666.289 975.745 664.146 975.747 662.002 975.75C660.935 975.751 659.868 975.752 658.769 975.753C638.596 975.772 618.422 975.771 598.249 975.764C579.797 975.758 561.346 975.779 542.895 975.812C523.944 975.846 504.993 975.861 486.043 975.856C475.405 975.854 464.768 975.859 454.131 975.884C445.075 975.905 436.019 975.909 426.964 975.89C422.345 975.881 417.726 975.88 413.107 975.9C408.875 975.919 404.644 975.915 400.412 975.892C398.885 975.888 397.357 975.892 395.83 975.905C386.006 975.987 377.878 975.183 370.287 968.382C364.618 962.613 361.345 955.464 360.763 947.389C361.115 939.677 365.056 931.986 370.7 926.764C379.774 920.335 388.046 919.687 398.912 919.756Z" fill="white"/>
<path d="M396.899 744.749C398.486 744.744 400.074 744.737 401.662 744.728C406.014 744.71 410.366 744.716 414.719 744.726C419.417 744.733 424.115 744.717 428.813 744.704C438.013 744.683 447.213 744.683 456.413 744.691C463.891 744.697 471.369 744.696 478.847 744.69C479.912 744.689 480.977 744.688 482.073 744.687C484.236 744.685 486.399 744.683 488.561 744.681C508.841 744.665 529.12 744.674 549.399 744.69C567.948 744.705 586.496 744.691 605.044 744.662C624.094 744.632 643.144 744.621 662.195 744.631C664.35 744.632 666.505 744.633 668.66 744.634C670.251 744.635 670.251 744.635 671.874 744.635C679.341 744.637 686.808 744.628 694.275 744.613C703.378 744.596 712.481 744.596 721.584 744.618C726.228 744.63 730.87 744.633 735.514 744.614C739.768 744.597 744.021 744.604 748.275 744.628C749.811 744.633 751.346 744.63 752.882 744.617C762.714 744.54 771.071 745.238 778.523 752.283C784.128 758.251 786.947 763.845 786.825 772.139C786.819 772.846 786.813 773.554 786.807 774.283C786.64 779.86 785.661 783.789 782.388 788.264C781.851 789.13 781.315 789.996 780.763 790.889C774.686 796.966 767.673 800.386 759.128 800.395C758.167 800.399 758.167 800.399 757.187 800.402C755.027 800.407 752.866 800.406 750.706 800.404C749.147 800.407 747.588 800.41 746.03 800.413C741.735 800.422 737.439 800.423 733.144 800.424C728.516 800.426 723.888 800.433 719.26 800.44C709.134 800.454 699.008 800.46 688.882 800.464C682.56 800.467 676.238 800.471 669.915 800.476C652.415 800.488 634.914 800.498 617.413 800.502C615.732 800.502 615.732 800.502 614.017 800.502C612.894 800.502 611.771 800.503 610.613 800.503C608.337 800.503 606.061 800.504 603.784 800.504C602.091 800.505 602.091 800.505 600.363 800.505C582.073 800.509 563.783 800.526 545.493 800.55C526.718 800.573 507.944 800.586 489.17 800.587C478.628 800.588 468.085 800.594 457.543 800.612C448.564 800.627 439.585 800.632 430.606 800.624C426.025 800.62 421.445 800.621 416.865 800.635C412.668 800.648 408.472 800.647 404.275 800.634C402.76 800.633 401.245 800.636 399.73 800.644C389.484 800.7 379.412 800.404 370.989 793.858C364.723 787.622 362.156 781.3 362.075 772.576C362.065 762.824 364.494 757.76 371.216 750.905C379.447 744.687 386.981 744.691 396.899 744.749Z" fill="white"/>
<path d="M183.948 744.876C185.525 744.868 185.525 744.868 187.133 744.86C190.601 744.847 194.069 744.856 197.536 744.866C199.953 744.864 202.369 744.861 204.785 744.857C209.847 744.853 214.909 744.859 219.971 744.873C226.45 744.89 232.928 744.88 239.406 744.862C244.396 744.852 249.385 744.855 254.375 744.863C256.763 744.865 259.151 744.862 261.539 744.855C264.883 744.848 268.226 744.859 271.569 744.876C272.55 744.87 273.531 744.864 274.542 744.858C283.484 744.94 289.986 747.138 296.626 753.296C302.525 759.888 303.835 767.501 303.72 776.1C302.836 784.526 298.173 790.069 292.06 795.573C285.145 799.95 278.078 800.706 270.054 800.652C269.063 800.658 268.071 800.663 267.05 800.668C263.798 800.682 260.546 800.673 257.294 800.663C255.019 800.665 252.745 800.668 250.47 800.671C245.712 800.676 240.955 800.669 236.197 800.655C230.114 800.638 224.032 800.648 217.949 800.666C213.255 800.677 208.561 800.674 203.866 800.666C201.624 800.664 199.382 800.666 197.14 800.673C194 800.681 190.861 800.669 187.722 800.652C186.347 800.662 186.347 800.662 184.944 800.671C176.543 800.589 168.984 798.687 162.388 793.264C155.466 785.363 153.724 778.577 154.017 768.221C154.804 759.833 158.985 755.079 165.228 749.772C171.56 745.352 176.425 744.83 183.948 744.876Z" fill="white"/>
<path d="M186.073 393.731C187.102 393.722 188.131 393.714 189.191 393.705C192.568 393.682 195.944 393.689 199.321 393.698C201.683 393.693 204.046 393.686 206.408 393.679C211.35 393.669 216.291 393.673 221.233 393.688C227.549 393.705 233.864 393.681 240.18 393.646C245.055 393.624 249.93 393.626 254.806 393.634C257.134 393.635 259.462 393.628 261.79 393.613C265.051 393.596 268.311 393.61 271.573 393.633C272.523 393.621 273.474 393.61 274.453 393.598C282.484 393.71 288.823 396.305 295.009 401.44C301.53 409.111 304.067 415.049 303.81 425.229C302.693 433.263 297.9 440.592 291.513 445.452C284.92 449.275 279.195 449.57 271.752 449.586C270.692 449.596 269.633 449.606 268.542 449.617C265.046 449.646 261.551 449.659 258.056 449.67C255.62 449.682 253.184 449.693 250.747 449.705C245.642 449.726 240.537 449.738 235.432 449.745C228.902 449.756 222.373 449.804 215.843 449.861C210.811 449.898 205.78 449.908 200.748 449.911C198.341 449.917 195.934 449.933 193.527 449.96C190.155 449.994 186.785 449.99 183.412 449.977C182.425 449.996 181.438 450.014 180.422 450.033C172.362 449.936 167.257 447.035 161.537 441.46C154.806 434.246 153.757 427.719 153.978 417.999C154.748 410.982 157.506 405.71 162.638 400.889C170.084 395.376 176.902 393.668 186.073 393.731Z" fill="white"/>
<path d="M184.511 218.974C185.528 218.967 186.545 218.96 187.593 218.953C190.954 218.934 194.315 218.93 197.676 218.928C200.019 218.922 202.362 218.915 204.706 218.908C209.62 218.896 214.534 218.892 219.448 218.893C225.726 218.894 232.003 218.866 238.281 218.832C243.123 218.81 247.965 218.806 252.807 218.807C255.12 218.804 257.433 218.796 259.746 218.78C262.994 218.76 266.24 218.766 269.487 218.778C270.431 218.767 271.375 218.756 272.347 218.744C280.311 218.818 287.296 220.9 294.2 224.889C300.867 232.128 303.778 239.399 303.661 249.131C302.947 257.311 298.42 263.877 292.387 269.264C287.208 272.614 282.126 274.373 275.949 274.418C275.066 274.427 274.184 274.435 273.274 274.444C271.832 274.45 271.832 274.45 270.361 274.457C268.834 274.469 268.834 274.469 267.275 274.482C263.904 274.507 260.532 274.523 257.161 274.537C255.431 274.545 255.431 274.545 253.666 274.554C247.56 274.58 241.453 274.6 235.347 274.614C230.301 274.627 225.256 274.655 220.21 274.696C214.111 274.746 208.011 274.77 201.912 274.777C199.592 274.784 197.273 274.799 194.953 274.823C191.698 274.855 188.445 274.855 185.19 274.848C183.766 274.872 183.766 274.872 182.314 274.897C174.25 274.823 167.681 272.32 161.731 266.799C161.123 265.983 160.514 265.167 159.887 264.327C159.258 263.513 158.629 262.7 157.981 261.862C153.488 254.539 153.425 246.618 154.387 238.264C157.287 229.93 163.744 224.265 171.395 220.196C175.765 218.835 179.958 218.969 184.511 218.974Z" fill="white"/>
<path d="M184.039 569.86C185.1 569.853 186.161 569.846 187.254 569.839C190.754 569.821 194.254 569.825 197.755 569.83C200.193 569.826 202.632 569.82 205.07 569.814C210.179 569.806 215.288 569.808 220.398 569.818C226.937 569.829 233.475 569.809 240.015 569.78C245.05 569.762 250.086 569.762 255.122 569.768C257.533 569.768 259.943 569.762 262.353 569.749C265.728 569.734 269.102 569.745 272.477 569.762C273.467 569.753 274.458 569.743 275.478 569.733C281.73 569.799 286.083 570.943 291.387 574.264C292.254 574.8 293.12 575.336 294.012 575.889C299.788 581.664 303.499 588.715 303.7 596.889C303.61 605.188 300.809 611.564 295.235 617.694C290.011 622.133 282.985 625.367 276.108 625.418C275.235 625.426 274.361 625.435 273.462 625.444C272.029 625.45 272.029 625.45 270.567 625.457C269.558 625.465 268.55 625.473 267.511 625.482C264.166 625.506 260.822 625.523 257.477 625.537C256.334 625.543 255.191 625.548 254.013 625.553C247.959 625.58 241.904 625.6 235.85 625.614C230.846 625.627 225.842 625.655 220.838 625.696C214.791 625.745 208.745 625.77 202.699 625.777C200.399 625.784 198.099 625.799 195.799 625.823C192.57 625.855 189.343 625.855 186.114 625.847C185.173 625.864 184.231 625.88 183.262 625.897C175.252 625.823 168.897 623.224 162.766 618.053C155.655 609.58 153.717 604.092 153.981 592.928C154.887 584.757 159.132 579.953 165.227 574.772C171.583 570.335 176.487 569.826 184.039 569.86Z" fill="white"/>
</svg>
