<svg width="1503" height="1679" viewBox="0 0 1503 1679" fill="none" xmlns="http://www.w3.org/2000/svg">
<path d="M859.756 23.6722C880.87 41.4184 895.916 66.108 899.523 93.6776C900.51 105.579 900.254 117.598 900.232 129.529C900.229 134.153 900.254 138.778 900.276 143.402C900.313 152.124 900.326 160.847 900.329 169.569C900.334 179.514 900.367 189.458 900.402 199.403C900.473 219.828 900.51 240.253 900.523 260.678C901.688 261.22 902.853 261.763 904.054 262.321C905.599 263.044 907.144 263.766 908.688 264.489C909.454 264.845 910.22 265.201 911.009 265.568C916.656 268.214 922.038 271.093 927.273 274.49C928.063 274.996 928.852 275.502 929.666 276.023C936.807 280.69 943.214 285.954 949.523 291.678C950.426 292.472 951.328 293.266 952.258 294.084C981.181 319.677 1001.07 352.593 1011.52 389.678C1011.83 390.741 1012.13 391.805 1012.45 392.9C1013.23 395.813 1013.88 398.731 1014.52 401.678C1014.78 402.76 1015.03 403.843 1015.3 404.958C1018.46 420.579 1017.93 436.426 1017.87 452.287C1017.86 456.704 1017.86 461.121 1017.87 465.538C1017.87 473.171 1017.86 480.803 1017.84 488.436C1017.82 499.472 1017.81 510.508 1017.8 521.544C1017.8 539.453 1017.78 557.362 1017.75 575.271C1017.72 592.658 1017.7 610.044 1017.69 627.431C1017.69 628.504 1017.69 629.578 1017.69 630.684C1017.68 636.07 1017.68 641.457 1017.67 646.843C1017.64 691.455 1017.59 736.066 1017.52 780.678C1018.55 780.743 1019.58 780.809 1020.64 780.877C1022 780.965 1023.36 781.054 1024.72 781.143C1025.4 781.186 1026.07 781.229 1026.77 781.273C1031.69 781.595 1036.53 782.098 1041.41 782.834C1042.15 782.941 1042.9 783.048 1043.67 783.159C1046 783.493 1048.32 783.834 1050.65 784.178C1059.99 785.55 1069.27 786.882 1078.71 787.443C1082.63 787.77 1086.43 788.493 1090.28 789.275C1098.71 790.601 1098.71 790.601 1106.72 788.482C1108.84 786.705 1110.72 784.827 1112.62 782.812C1113.35 782.082 1114.08 781.352 1114.83 780.6C1117.23 778.191 1119.58 775.746 1121.94 773.299C1123.61 771.609 1125.28 769.922 1126.95 768.237C1131.34 763.8 1135.69 759.331 1140.04 754.855C1144.46 750.321 1148.9 745.815 1153.34 741.308C1158.34 736.235 1163.34 731.159 1168.31 726.058C1169.07 725.279 1169.83 724.501 1170.62 723.698C1172.02 722.258 1173.43 720.816 1174.83 719.372C1178.66 715.449 1182.62 711.751 1186.78 708.178C1189.13 706.156 1191.38 704.04 1193.65 701.928C1198.85 697.181 1204.3 692.829 1209.87 688.521C1212.93 686.156 1215.93 683.734 1218.93 681.295C1248.63 657.219 1281.34 636.715 1315.52 619.678C1316.22 619.328 1316.92 618.978 1317.64 618.617C1351.52 601.745 1394.32 587.243 1431.98 599.476C1447.53 604.911 1460.64 612.119 1472.52 623.678C1473.55 624.613 1473.55 624.613 1474.6 625.568C1488.29 638.395 1496.29 655.646 1500.52 673.678C1500.79 674.756 1500.79 674.756 1501.06 675.856C1502.66 682.879 1502.83 689.683 1502.77 696.865C1502.77 698.065 1502.76 699.264 1502.75 700.5C1502.65 709.07 1502.23 717.257 1500.52 725.678C1500.37 726.425 1500.22 727.173 1500.07 727.944C1488.87 782.071 1460.09 832.461 1427.89 876.79C1426.55 878.642 1425.23 880.505 1423.91 882.373C1415.82 893.842 1407.32 904.876 1398.19 915.537C1395.66 918.497 1393.21 921.519 1390.77 924.553C1387.78 928.229 1384.7 931.64 1381.28 934.919C1379.64 936.565 1378.16 938.265 1376.68 940.053C1371.7 945.778 1366.14 950.896 1360.64 956.116C1356.54 960.024 1352.49 963.977 1348.43 967.923C1344.87 971.372 1341.3 974.803 1337.7 978.2C1334.19 981.509 1330.72 984.86 1327.29 988.245C1325.98 989.518 1324.66 990.774 1323.32 992.013C1315.34 999.104 1315.34 999.104 1311.9 1008.79C1311.94 1012.45 1312.47 1015.97 1313.14 1019.56C1313.51 1021.6 1313.77 1023.63 1313.98 1025.69C1314.39 1029.76 1314.9 1033.81 1315.41 1037.87C1315.6 1039.37 1315.79 1040.87 1315.97 1042.37C1316.37 1045.52 1316.76 1048.67 1317.16 1051.82C1317.78 1056.74 1318.4 1061.65 1319.01 1066.57C1319.72 1072.26 1320.43 1077.94 1321.14 1083.62C1322.58 1095.12 1324 1106.62 1325.4 1118.12C1325.55 1119.33 1325.55 1119.33 1325.7 1120.58C1327.67 1136.78 1329.55 1153 1331.37 1169.23C1331.9 1173.96 1332.43 1178.69 1332.96 1183.43C1333.07 1184.39 1333.18 1185.35 1333.29 1186.33C1334.6 1197.97 1335.99 1209.58 1337.59 1221.18C1339.01 1231.56 1340.26 1241.95 1341.4 1252.37C1343 1267.08 1344.67 1281.79 1346.4 1296.49C1346.52 1297.56 1346.65 1298.63 1346.78 1299.74C1348.9 1317.8 1351.16 1335.85 1353.52 1353.89C1354.72 1363.13 1355.84 1372.38 1356.79 1381.65C1357.61 1389.65 1358.56 1397.63 1359.53 1405.6C1360.07 1410.15 1360.62 1414.69 1361.16 1419.23C1361.27 1420.17 1361.38 1421.1 1361.5 1422.07C1362.3 1428.76 1363.08 1435.46 1363.86 1442.16C1363.96 1443.09 1364.07 1444.03 1364.18 1444.99C1364.61 1448.7 1365.04 1452.41 1365.46 1456.12C1366.54 1465.45 1367.64 1474.77 1368.94 1484.08C1372.22 1507.62 1370.23 1530 1355.52 1549.68C1345.54 1562.29 1333.74 1570.24 1318.52 1575.68C1317.56 1576.03 1316.61 1576.38 1315.62 1576.74C1297.52 1582.21 1277.16 1578.86 1260.52 1570.68C1256.33 1568.25 1252.41 1565.58 1248.52 1562.68C1247.88 1562.22 1247.24 1561.76 1246.58 1561.29C1234.71 1552.1 1227.8 1537.51 1220.58 1524.76C1216.56 1517.67 1212.34 1510.7 1208.09 1503.74C1202.5 1494.59 1196.97 1485.41 1191.52 1476.18C1186.11 1467.01 1180.63 1457.89 1175.09 1448.8C1168.89 1438.65 1162.82 1428.42 1156.82 1418.15C1151.39 1408.85 1145.9 1399.59 1140.34 1390.36C1134.29 1380.3 1128.29 1370.2 1122.31 1360.1C1115.9 1349.3 1109.44 1338.52 1102.96 1327.76C1095.83 1315.92 1088.79 1304.03 1081.82 1292.09C1075.25 1280.83 1068.47 1269.71 1061.52 1258.68C1058.27 1260.11 1056.1 1261.85 1053.6 1264.36C1052.84 1265.12 1052.08 1265.87 1051.3 1266.65C1050.09 1267.87 1050.09 1267.87 1048.86 1269.12C1048.02 1269.95 1047.18 1270.79 1046.32 1271.65C1044.56 1273.41 1042.8 1275.18 1041.04 1276.95C1038.34 1279.67 1035.63 1282.38 1032.92 1285.09C1031.21 1286.81 1029.5 1288.52 1027.79 1290.24C1026.98 1291.05 1026.17 1291.87 1025.33 1292.71C1024.21 1293.84 1024.21 1293.84 1023.06 1294.99C1022.4 1295.66 1021.74 1296.32 1021.06 1297.01C1018.17 1300.15 1018.4 1302.49 1018.39 1306.66C1018.39 1307.94 1018.38 1309.21 1018.38 1310.53C1018.38 1311.95 1018.38 1313.37 1018.38 1314.8C1018.38 1316.29 1018.38 1317.78 1018.37 1319.28C1018.36 1322.5 1018.36 1325.73 1018.35 1328.95C1018.35 1334.08 1018.33 1339.21 1018.31 1344.34C1018.31 1346.1 1018.3 1347.86 1018.29 1349.62C1018.29 1350.5 1018.29 1351.38 1018.28 1352.29C1018.24 1364.23 1018.21 1376.16 1018.2 1388.1C1018.19 1396.15 1018.17 1404.2 1018.13 1412.25C1018.11 1416.5 1018.1 1420.75 1018.1 1424.99C1018.13 1451.07 1016.99 1476.73 1008.52 1501.68C1008.25 1502.5 1007.97 1503.32 1007.68 1504.17C998.231 1531.47 983.432 1555.73 963.523 1576.68C963.051 1577.18 962.578 1577.68 962.091 1578.19C954.151 1586.54 945.697 1593.73 936.523 1600.68C934.779 1602.42 935.355 1604.72 935.285 1607.05C934.6 1627.99 927.254 1646.42 911.996 1661.11C895.052 1675.87 875.396 1679.81 853.523 1678.68C838.815 1677.08 826.426 1670.5 815.523 1660.68C814.889 1660.12 814.255 1659.57 813.602 1659C807.773 1653.6 802.286 1646.52 800.523 1638.68C799.221 1638.68 797.918 1638.68 796.576 1638.68C739.147 1638.73 681.717 1638.78 624.287 1638.8C622.982 1638.81 622.982 1638.81 621.651 1638.81C602.742 1638.81 583.832 1638.82 564.923 1638.83C555.649 1638.83 546.375 1638.84 537.102 1638.84C535.718 1638.84 535.718 1638.84 534.305 1638.84C504.416 1638.86 474.526 1638.88 444.636 1638.91C413.91 1638.93 383.184 1638.95 352.458 1638.96C348.114 1638.96 343.771 1638.96 339.427 1638.96C338.144 1638.96 338.144 1638.96 336.836 1638.96C323.097 1638.97 309.358 1638.98 295.619 1639C281.793 1639.02 267.967 1639.02 254.141 1639.02C245.935 1639.02 237.73 1639.02 229.524 1639.04C223.382 1639.05 217.241 1639.05 211.099 1639.04C208.624 1639.04 206.15 1639.04 203.676 1639.05C189.649 1639.1 176.293 1638.42 162.523 1635.68C161.724 1635.52 160.925 1635.37 160.102 1635.21C133.454 1630.03 108.712 1619.29 86.5235 1603.68C85.9527 1603.28 85.382 1602.88 84.794 1602.46C78.4434 1597.95 72.5365 1593.07 66.8164 1587.78C64.7826 1585.92 62.702 1584.14 60.586 1582.37C44.0586 1567.82 31.4409 1549.19 21.5235 1529.68C21.198 1529.05 20.8725 1528.42 20.5371 1527.77C13.1864 1513.48 8.36909 1498.11 4.71096 1482.49C4.51615 1481.67 4.32134 1480.86 4.12063 1480.02C0.868999 1465.31 0.226031 1450.44 0.266197 1435.44C0.263496 1433.67 0.259929 1431.9 0.255577 1430.13C0.246198 1425.3 0.249073 1420.47 0.254112 1415.64C0.257398 1410.37 0.249119 1405.1 0.242332 1399.83C0.232053 1390.61 0.229164 1381.38 0.231224 1372.16C0.234279 1358.44 0.22594 1344.72 0.215477 1331.01C0.196152 1305.08 0.190499 1279.15 0.189353 1253.23C0.189224 1250.37 0.189068 1247.51 0.188926 1244.66C0.188892 1243.95 0.1889 1243.24 0.188865 1242.51C0.188047 1226.77 0.183619 1211.04 0.178611 1195.31C0.176554 1188.82 0.174625 1182.34 0.17263 1175.86C0.172409 1175.14 0.172186 1174.42 0.171958 1173.68C0.159316 1132.64 0.151023 1091.6 0.151939 1050.56C0.15197 1049.02 0.15203 1047.49 0.152061 1045.95C0.152208 1039.02 0.152365 1032.09 0.152549 1025.16C0.152632 1022.07 0.152713 1018.98 0.152793 1015.89C0.152834 1014.35 0.152872 1012.8 0.152915 1011.25C0.154276 962.357 0.139645 913.46 0.111839 864.563C0.104836 852.243 0.0979182 839.922 0.091331 827.602C0.0909253 826.843 0.0905283 826.085 0.0901103 825.303C0.0776736 801.907 0.0701124 778.511 0.0675883 755.114C0.0674685 754.012 0.0674665 754.012 0.0673442 752.887C0.0656374 736.751 0.0651266 720.616 0.0656962 704.48C0.0658892 698.706 0.066002 692.931 0.0660625 687.157C0.0660783 685.721 0.0660985 684.284 0.0661235 682.848C0.0664756 659.997 0.0550899 637.146 0.0378032 614.295C0.0199907 590.628 0.016873 566.962 0.0304179 543.296C0.0377998 529.663 0.0341872 516.031 0.0145488 502.398C0.00252705 493.281 0.00516708 484.165 0.0194926 475.048C0.0272369 469.86 0.0288792 464.673 0.0125957 459.486C-0.0468554 439.224 -0.0819702 419.538 4.52346 399.678C4.81491 398.382 4.81493 398.382 5.11227 397.059C12.957 362.465 30.6714 330.726 55.1114 305.157C56.0478 304.176 56.9789 303.19 57.9043 302.198C80.5294 277.993 109.986 262.937 140.55 251.192C144.531 249.662 148.507 248.12 152.483 246.579C153.31 246.259 154.137 245.938 154.989 245.608C163.933 242.139 172.851 238.603 181.766 235.057C182.971 234.577 182.971 234.577 184.201 234.088C189.114 232.134 194.026 230.177 198.938 228.22C206.297 225.289 213.656 222.36 221.016 219.432C221.822 219.11 222.629 218.789 223.461 218.458C236.4 213.309 249.35 208.187 262.305 203.078C273.256 198.76 284.202 194.429 295.141 190.08C295.805 189.816 296.47 189.552 297.154 189.279C300.519 187.942 303.883 186.604 307.247 185.266C331.062 175.795 354.894 166.375 378.756 157.025C397.352 149.737 415.903 142.343 434.44 134.907C450.961 128.281 467.508 121.727 484.109 115.301C494.851 111.139 505.553 106.878 516.246 102.593C526.258 98.581 536.277 94.5871 546.301 90.6034C547.065 90.2995 547.83 89.9956 548.618 89.6825C553.402 87.7808 558.187 85.8797 562.972 83.9788C565.507 82.9719 568.041 81.9648 570.576 80.9577C599.904 69.3041 629.234 57.6568 658.57 46.0224C665.84 43.1389 673.11 40.2538 680.379 37.3676C692.485 32.5614 704.593 27.7631 716.707 22.9769C720.477 21.487 724.247 19.9945 728.016 18.4994C732.18 16.8482 736.346 15.2045 740.515 13.5669C741.976 12.9916 743.436 12.414 744.895 11.8335C752.347 8.87117 759.823 6.1676 767.508 3.86511C768.191 3.65797 768.874 3.45084 769.578 3.23742C799.817 -5.52548 835.57 4.23489 859.756 23.6722Z" fill="#3B3B3B"/>
<path d="M214.605 309.424C217.244 309.422 219.883 309.419 222.522 309.415C228.238 309.407 233.955 309.408 239.672 309.413C248.173 309.42 256.673 309.416 265.174 309.41C280.361 309.4 295.547 309.401 310.733 309.406C324.023 309.411 337.312 309.413 350.602 309.41C351.484 309.41 352.367 309.41 353.276 309.41C356.859 309.409 360.442 309.409 364.025 309.408C397.614 309.402 431.203 309.407 464.791 309.418C494.614 309.428 524.437 309.427 554.26 309.417C587.79 309.407 621.32 309.402 654.851 309.409C658.427 309.409 662.003 309.41 665.579 309.41C666.9 309.411 666.9 309.411 668.247 309.411C681.527 309.413 694.806 309.41 708.086 309.405C723.189 309.4 738.292 309.401 753.395 309.412C761.842 309.418 770.288 309.418 778.735 309.411C784.383 309.406 790.032 309.409 795.681 309.418C798.894 309.422 802.108 309.423 805.322 309.417C817.892 309.395 830.121 309.482 842.523 311.678C843.429 311.821 844.335 311.964 845.268 312.112C857.612 314.066 868.385 318.104 879.523 323.678C880.134 323.976 880.745 324.274 881.375 324.581C910.557 338.894 933.49 365.646 944.433 396.178C951.65 419.355 951.65 419.355 951.646 430.836C951.648 432.056 951.65 433.277 951.652 434.535C951.649 435.881 951.647 437.227 951.643 438.573C951.644 440.009 951.645 441.446 951.646 442.882C951.648 446.825 951.644 450.768 951.639 454.711C951.635 458.964 951.636 463.218 951.637 467.471C951.638 474.839 951.635 482.207 951.629 489.575C951.621 500.228 951.618 510.881 951.617 521.534C951.615 538.818 951.608 556.101 951.599 573.385C951.59 590.174 951.582 606.964 951.578 623.753C951.578 624.788 951.578 625.823 951.577 626.889C951.576 632.081 951.575 637.273 951.574 642.465C951.563 685.536 951.546 728.607 951.523 771.678C949.772 771.687 948.02 771.694 946.269 771.699C945.294 771.703 944.318 771.707 943.314 771.711C939.836 771.67 936.459 771.325 933.012 770.873C932.355 770.789 931.698 770.705 931.021 770.619C928.959 770.353 926.897 770.078 924.836 769.803C923.48 769.627 922.124 769.451 920.767 769.276C918.04 768.923 915.314 768.566 912.588 768.206C908.646 767.689 904.7 767.211 900.754 766.733C894.757 766 888.79 765.123 882.82 764.201C873.402 762.757 863.965 761.634 854.494 760.601C849.727 760.079 844.961 759.543 840.195 759.006C839.226 758.897 838.256 758.788 837.257 758.676C827.171 757.535 817.095 756.312 807.023 755.053C805.757 754.895 805.757 754.895 804.465 754.733C794.808 753.522 785.174 752.231 775.562 750.701C767.401 749.436 759.187 748.651 750.974 747.807C742.766 746.952 734.604 745.921 726.445 744.68C720.818 743.828 715.191 743.198 709.523 742.678C707.79 738.687 706.757 734.725 705.773 730.491C697.249 695.784 680.272 664.47 655.523 638.678C655.012 638.14 654.502 637.602 653.975 637.048C621.813 603.309 572.899 578.957 525.885 577.485C524.298 577.453 522.712 577.426 521.125 577.405C520.26 577.392 519.396 577.379 518.505 577.366C462.148 576.701 411.817 593.412 370.523 632.678C369.719 633.442 369.719 633.442 368.898 634.22C360.6 642.151 353.156 650.309 346.523 659.678C346.122 660.235 345.72 660.792 345.307 661.366C334.951 675.831 326.219 691.802 320.523 708.678C320.095 709.887 319.667 711.096 319.226 712.342C316.429 720.343 314.205 728.367 312.523 736.678C312.141 738.54 312.141 738.54 311.75 740.44C309.325 753.044 308.971 765.432 309.023 778.241C309.024 779.295 309.024 780.35 309.025 781.437C309.06 797.397 310.082 812.267 314.523 827.678C315.013 829.533 315.503 831.389 315.992 833.244C323.265 859.767 336.054 884.468 353.523 905.678C353.978 906.239 354.432 906.801 354.901 907.379C388.596 948.854 437.923 973.039 490.523 979.678C495.687 979.919 500.855 979.924 506.023 979.928C506.757 979.929 507.491 979.929 508.247 979.93C560.055 979.855 610.765 960.759 648.586 924.928C649.237 924.273 649.888 923.618 650.558 922.944C652.523 921.678 652.523 921.678 654.857 921.928C657.707 922.73 659.68 923.802 662.156 925.416C663.034 925.983 663.913 926.549 664.818 927.133C665.752 927.746 666.686 928.359 667.648 928.991C669.643 930.28 671.638 931.569 673.633 932.858C674.628 933.505 675.624 934.151 676.65 934.818C680.713 937.449 684.803 940.036 688.898 942.616C689.659 943.096 690.419 943.576 691.202 944.07C697.567 948.086 703.951 952.07 710.336 956.053C720.025 962.099 729.671 968.21 739.301 974.35C751.272 981.983 763.291 989.538 775.336 997.053C785.014 1003.09 794.65 1009.2 804.269 1015.33C815.897 1022.74 827.559 1030.11 839.275 1037.38C843.072 1039.75 846.813 1042.18 850.523 1044.68C849.387 1048.09 847.932 1049.06 845.191 1051.23C843.469 1052.73 842.09 1054.29 840.648 1056.05C838.534 1058.61 836.331 1060.8 833.799 1062.94C829.689 1066.49 825.822 1070.23 821.988 1074.08C821.306 1074.76 820.623 1075.44 819.92 1076.15C818.49 1077.58 817.06 1079.01 815.632 1080.44C813.466 1082.61 811.295 1084.78 809.123 1086.94C807.723 1088.34 806.324 1089.74 804.926 1091.14C804.287 1091.78 803.648 1092.42 802.99 1093.07C799.219 1096.86 795.634 1100.76 792.157 1104.82C789.272 1108.1 786.138 1111.12 783.023 1114.18C778.56 1118.6 774.163 1123.01 770.109 1127.81C768.221 1130.03 766.246 1132.16 764.273 1134.3C744.097 1156.73 728.611 1182.69 713.523 1208.68C711.189 1208.39 708.856 1208.1 706.523 1207.8C705.224 1207.64 703.925 1207.48 702.586 1207.31C699.257 1206.84 696.071 1206.06 692.818 1205.21C687.861 1204.06 682.804 1203.42 677.773 1202.68C675.549 1202.35 673.325 1202.01 671.101 1201.68C670.126 1201.53 669.15 1201.39 668.145 1201.24C662.93 1200.43 657.728 1199.55 652.523 1198.68C651.23 1198.46 649.937 1198.24 648.604 1198.02C644.104 1197.26 639.605 1196.5 635.105 1195.74C634.288 1195.61 633.471 1195.47 632.629 1195.33C628.304 1194.6 623.979 1193.87 619.654 1193.14C616.117 1192.54 612.581 1191.94 609.044 1191.35C604.725 1190.62 600.406 1189.89 596.087 1189.16C594.463 1188.89 592.838 1188.62 591.214 1188.34C580.308 1186.5 569.412 1184.61 558.523 1182.68C554.397 1181.95 550.27 1181.22 546.14 1180.51C542.821 1179.93 539.52 1179.28 536.219 1178.6C511.812 1173.75 488.066 1172.52 466.523 1186.68C452.678 1196.45 440.016 1211.36 436.809 1228.51C434.855 1243.32 435.503 1257.95 441.523 1271.68C442.02 1272.81 442.516 1273.95 443.027 1275.12C450.375 1290.13 461.75 1298.95 475.523 1307.68C476.25 1308.14 476.978 1308.6 477.727 1309.08C481.634 1311.57 485.553 1314.03 489.476 1316.49C498.91 1322.42 508.208 1328.56 517.523 1334.68C518.211 1335.13 518.9 1335.58 519.609 1336.05C536.451 1347.1 553.285 1358.16 570.023 1369.37C579.852 1375.95 589.774 1382.36 599.781 1388.66C604.415 1391.59 608.978 1394.62 613.523 1397.68C611.874 1403.46 609.135 1408.52 606.336 1413.8C605.818 1414.79 605.3 1415.78 604.766 1416.8C601.718 1422.59 598.623 1428.35 595.5 1434.1C594.822 1435.35 594.143 1436.6 593.465 1437.86C592.156 1440.28 590.837 1442.69 589.513 1445.1C584.361 1454.59 580.939 1462.42 581.023 1473.3C581.029 1474.17 581.035 1475.04 581.041 1475.93C581.43 1490.17 587.098 1502.97 596.773 1513.43C608.69 1524.55 622.201 1529.15 638.144 1528.88C646.919 1528.57 654.068 1526.07 661.851 1522.1C662.544 1521.75 663.237 1521.4 663.951 1521.04C671.054 1517.44 678.099 1513.72 685.128 1509.98C687.247 1508.85 689.368 1507.72 691.49 1506.59C692.859 1505.87 694.228 1505.14 695.597 1504.41C696.221 1504.08 696.845 1503.75 697.488 1503.4C700.138 1501.99 702.728 1500.55 705.269 1498.94C707.523 1497.68 707.523 1497.68 710.523 1497.68C711.987 1499.48 711.987 1499.48 713.535 1502.05C714.12 1503 714.705 1503.96 715.307 1504.94C715.935 1505.99 716.564 1507.04 717.211 1508.12C718.564 1510.33 719.918 1512.54 721.273 1514.75C721.796 1515.61 721.796 1515.61 722.33 1516.48C726.033 1522.54 729.867 1528.52 733.711 1534.49C735.043 1536.57 736.375 1538.64 737.707 1540.72C738.346 1541.72 738.985 1542.71 739.644 1543.74C742.532 1548.25 745.407 1552.78 748.273 1557.3C748.75 1558.05 749.228 1558.81 749.719 1559.58C750.165 1560.28 750.611 1560.99 751.07 1561.72C751.45 1562.32 751.83 1562.92 752.221 1563.54C754.052 1566.55 755.778 1569.62 757.523 1572.68C703.178 1572.75 648.832 1572.81 594.486 1572.85C593.681 1572.85 592.876 1572.85 592.047 1572.85C574.549 1572.86 557.052 1572.87 539.554 1572.88C530.973 1572.89 522.391 1572.89 513.81 1572.9C512.956 1572.9 512.102 1572.9 511.222 1572.9C483.57 1572.92 455.919 1572.95 428.267 1572.98C399.839 1573.02 371.41 1573.05 342.982 1573.05C338.962 1573.05 334.941 1573.06 330.921 1573.06C330.13 1573.06 329.339 1573.06 328.523 1573.06C315.815 1573.06 303.106 1573.08 290.397 1573.11C277.604 1573.13 264.811 1573.14 252.018 1573.13C245.093 1573.13 238.168 1573.13 231.243 1573.15C224.893 1573.17 218.543 1573.18 212.192 1573.16C209.905 1573.16 207.618 1573.16 205.331 1573.18C187.58 1573.27 170.381 1571.74 153.773 1564.99C152.91 1564.65 152.046 1564.31 151.156 1563.96C133.784 1556.89 119.155 1546.52 105.523 1533.68C104.527 1532.78 104.527 1532.78 103.512 1531.86C79.8618 1509.65 67.1001 1475.61 66.061 1443.66C65.8051 1433.74 65.8461 1423.8 65.8809 1413.88C65.8937 1408.62 65.8772 1403.36 65.8647 1398.1C65.8467 1388.91 65.8471 1379.72 65.8599 1370.53C65.8789 1356.86 65.8691 1343.19 65.8539 1329.52C65.8291 1306.52 65.8281 1283.52 65.8418 1260.51C65.8553 1237.73 65.8605 1214.95 65.8542 1192.17C65.8538 1190.74 65.8534 1189.31 65.853 1187.87C65.8514 1182.11 65.8499 1176.35 65.8482 1170.59C65.8436 1154.49 65.8408 1138.39 65.8393 1122.29C65.8392 1121.19 65.8392 1121.19 65.8391 1120.07C65.837 1096.73 65.8426 1073.39 65.8535 1050.05C65.854 1048.92 65.8541 1048.92 65.8546 1047.76C65.8603 1035.48 65.8664 1023.19 65.8725 1010.91C65.8968 962.187 65.8957 913.467 65.8714 864.746C65.8653 852.465 65.8592 840.183 65.8535 827.902C65.8532 827.146 65.8528 826.39 65.8525 825.61C65.8417 802.291 65.8371 778.971 65.8393 755.652C65.8394 754.919 65.8394 754.187 65.8395 753.432C65.841 737.352 65.8442 721.272 65.8488 705.192C65.8505 699.439 65.852 693.685 65.8536 687.931C65.854 686.5 65.8544 685.068 65.8548 683.637C65.8611 660.865 65.854 638.093 65.8405 615.321C65.8267 591.744 65.8319 568.168 65.8582 544.591C65.8728 531.009 65.8738 517.427 65.8549 503.846C65.8437 494.765 65.8507 485.685 65.8725 476.605C65.8843 471.437 65.8885 466.269 65.8704 461.101C65.7413 421.253 65.7413 421.253 71.5232 403.678C71.7622 402.933 72.0011 402.188 72.2473 401.42C77.5045 385.226 85.5589 370.679 96.5232 357.678C97.2529 356.808 97.9825 355.938 98.7342 355.041C116.594 334.506 138.994 320.176 165.523 313.678C166.601 313.355 167.679 313.033 168.79 312.7C183.658 308.629 199.336 309.395 214.605 309.424Z" fill="#EA504F"/>
<path d="M214.605 309.424C217.244 309.422 219.883 309.419 222.522 309.415C228.238 309.407 233.955 309.408 239.672 309.413C248.173 309.42 256.673 309.416 265.174 309.41C280.361 309.4 295.547 309.401 310.733 309.406C324.023 309.411 337.312 309.413 350.602 309.41C351.484 309.41 352.367 309.41 353.276 309.41C356.859 309.409 360.442 309.409 364.025 309.408C397.614 309.402 431.203 309.407 464.791 309.418C494.614 309.428 524.437 309.427 554.26 309.417C587.79 309.407 621.32 309.402 654.851 309.409C658.427 309.409 662.003 309.41 665.579 309.41C666.9 309.411 666.9 309.411 668.247 309.411C681.527 309.413 694.806 309.41 708.086 309.405C723.189 309.4 738.292 309.401 753.395 309.412C761.842 309.418 770.288 309.418 778.735 309.411C784.383 309.406 790.032 309.409 795.681 309.418C798.894 309.422 802.108 309.423 805.322 309.417C817.892 309.395 830.121 309.482 842.523 311.678C843.429 311.821 844.335 311.964 845.268 312.112C857.612 314.066 868.385 318.104 879.523 323.678C880.134 323.976 880.745 324.274 881.375 324.581C910.557 338.894 933.49 365.646 944.433 396.178C951.65 419.355 951.65 419.355 951.646 430.836C951.648 432.056 951.65 433.277 951.652 434.535C951.649 435.881 951.647 437.227 951.643 438.573C951.644 440.009 951.645 441.446 951.646 442.882C951.648 446.825 951.644 450.768 951.639 454.711C951.635 458.964 951.636 463.218 951.637 467.471C951.638 474.839 951.635 482.207 951.629 489.575C951.621 500.228 951.618 510.881 951.617 521.534C951.615 538.818 951.608 556.101 951.599 573.385C951.59 590.174 951.582 606.964 951.578 623.753C951.578 624.788 951.578 625.823 951.577 626.889C951.576 632.081 951.575 637.273 951.574 642.465C951.563 685.536 951.546 728.607 951.523 771.678C949.772 771.687 948.02 771.694 946.269 771.699C945.294 771.703 944.318 771.707 943.314 771.711C939.836 771.67 936.459 771.325 933.012 770.873C932.355 770.789 931.698 770.705 931.021 770.619C928.959 770.353 926.897 770.078 924.836 769.803C923.48 769.627 922.124 769.451 920.767 769.276C918.04 768.923 915.314 768.566 912.588 768.206C908.646 767.689 904.7 767.211 900.754 766.733C894.757 766 888.79 765.123 882.82 764.201C873.402 762.757 863.965 761.634 854.494 760.601C849.727 760.079 844.961 759.543 840.195 759.006C839.226 758.897 838.256 758.788 837.257 758.676C827.171 757.535 817.095 756.312 807.023 755.053C805.757 754.895 805.757 754.895 804.465 754.733C794.808 753.522 785.174 752.231 775.562 750.701C767.401 749.436 759.187 748.651 750.974 747.807C742.766 746.952 734.604 745.921 726.445 744.68C720.818 743.828 715.191 743.198 709.523 742.678C707.79 738.687 706.757 734.725 705.773 730.491C697.249 695.784 680.272 664.47 655.523 638.678C655.012 638.14 654.502 637.602 653.975 637.048C621.813 603.309 572.899 578.957 525.885 577.485C524.298 577.453 522.712 577.426 521.125 577.405C520.26 577.392 519.396 577.379 518.505 577.366C462.148 576.701 411.817 593.412 370.523 632.678C369.719 633.442 369.719 633.442 368.898 634.22C360.6 642.151 353.156 650.309 346.523 659.678C346.122 660.235 345.72 660.792 345.307 661.366C334.951 675.831 326.219 691.802 320.523 708.678C320.095 709.887 319.667 711.096 319.226 712.342C316.429 720.343 314.205 728.367 312.523 736.678C312.141 738.54 312.141 738.54 311.75 740.44C309.325 753.044 308.971 765.432 309.023 778.241C309.024 779.295 309.024 780.35 309.025 781.437C309.06 797.397 310.082 812.267 314.523 827.678C315.013 829.533 315.503 831.389 315.992 833.244C323.265 859.767 336.054 884.468 353.523 905.678C353.978 906.239 354.432 906.801 354.901 907.379C388.596 948.854 437.923 973.039 490.523 979.678C495.687 979.919 500.855 979.924 506.023 979.928C506.757 979.929 507.491 979.929 508.247 979.93C560.055 979.855 610.765 960.759 648.586 924.928C649.237 924.273 649.888 923.618 650.558 922.944C652.523 921.678 652.523 921.678 654.857 921.928C657.707 922.73 659.68 923.802 662.156 925.416C663.034 925.983 663.913 926.549 664.818 927.133C665.752 927.746 666.686 928.359 667.648 928.991C669.643 930.28 671.638 931.569 673.633 932.858C674.628 933.505 675.624 934.151 676.65 934.818C680.713 937.449 684.803 940.036 688.898 942.616C689.659 943.096 690.419 943.576 691.202 944.07C697.567 948.086 703.951 952.07 710.336 956.053C720.025 962.099 729.671 968.21 739.301 974.35C751.272 981.983 763.291 989.538 775.336 997.053C785.014 1003.09 794.65 1009.2 804.269 1015.33C815.897 1022.74 827.559 1030.11 839.275 1037.38C843.072 1039.75 846.813 1042.18 850.523 1044.68C849.387 1048.09 847.932 1049.06 845.191 1051.23C843.469 1052.73 842.09 1054.29 840.648 1056.05C838.534 1058.61 836.331 1060.8 833.799 1062.94C829.689 1066.49 825.822 1070.23 821.988 1074.08C821.306 1074.76 820.623 1075.44 819.92 1076.15C818.49 1077.58 817.06 1079.01 815.632 1080.44C813.466 1082.61 811.295 1084.78 809.123 1086.94C807.723 1088.34 806.324 1089.74 804.926 1091.14C804.287 1091.78 803.648 1092.42 802.99 1093.07C799.219 1096.86 795.634 1100.76 792.157 1104.82C789.272 1108.1 786.138 1111.12 783.023 1114.18C778.56 1118.6 774.163 1123.01 770.109 1127.81C768.221 1130.03 766.246 1132.16 764.273 1134.3C744.097 1156.73 728.611 1182.69 713.523 1208.68C711.189 1208.39 708.856 1208.1 706.523 1207.8C705.224 1207.64 703.925 1207.48 702.586 1207.31C699.257 1206.84 696.071 1206.06 692.818 1205.21C687.861 1204.06 682.804 1203.42 677.773 1202.68C675.549 1202.35 673.325 1202.01 671.101 1201.68C670.126 1201.53 669.15 1201.39 668.145 1201.24C662.93 1200.43 657.728 1199.55 652.523 1198.68C651.23 1198.46 649.937 1198.24 648.604 1198.02C644.104 1197.26 639.605 1196.5 635.105 1195.74C634.288 1195.61 633.471 1195.47 632.629 1195.33C628.304 1194.6 623.979 1193.87 619.654 1193.14C616.117 1192.54 612.581 1191.94 609.044 1191.35C604.725 1190.62 600.406 1189.89 596.087 1189.16C594.463 1188.89 592.838 1188.62 591.214 1188.34C580.308 1186.5 569.412 1184.61 558.523 1182.68C554.397 1181.95 550.27 1181.22 546.14 1180.51C542.821 1179.93 539.52 1179.28 536.219 1178.6C511.812 1173.75 488.066 1172.52 466.523 1186.68C452.678 1196.45 440.016 1211.36 436.809 1228.51C434.855 1243.32 435.503 1257.95 441.523 1271.68C442.02 1272.81 442.516 1273.95 443.027 1275.12C450.375 1290.13 461.75 1298.95 475.523 1307.68C476.25 1308.14 476.978 1308.6 477.727 1309.08C481.634 1311.57 485.553 1314.03 489.476 1316.49C498.91 1322.42 508.208 1328.56 517.523 1334.68C518.211 1335.13 518.9 1335.58 519.609 1336.05C536.451 1347.1 553.285 1358.16 570.023 1369.37C579.852 1375.95 589.774 1382.36 599.781 1388.66C604.415 1391.59 608.978 1394.62 613.523 1397.68C611.874 1403.46 609.135 1408.52 606.336 1413.8C605.818 1414.79 605.3 1415.78 604.766 1416.8C601.718 1422.59 598.623 1428.35 595.5 1434.1C594.822 1435.35 594.143 1436.6 593.465 1437.86C592.156 1440.28 590.837 1442.69 589.513 1445.1C584.361 1454.59 580.939 1462.42 581.023 1473.3C581.029 1474.17 581.035 1475.04 581.041 1475.93C581.43 1490.17 587.098 1502.97 596.773 1513.43C608.69 1524.55 622.201 1529.15 638.144 1528.88C646.919 1528.57 654.068 1526.07 661.851 1522.1C662.544 1521.75 663.237 1521.4 663.951 1521.04C671.054 1517.44 678.099 1513.72 685.128 1509.98C687.247 1508.85 689.368 1507.72 691.49 1506.59C692.859 1505.87 694.228 1505.14 695.597 1504.41C696.221 1504.08 696.845 1503.75 697.488 1503.4C700.138 1501.99 702.728 1500.55 705.269 1498.94C707.523 1497.68 707.523 1497.68 710.523 1497.68C711.987 1499.48 711.987 1499.48 713.535 1502.05C714.12 1503 714.705 1503.96 715.307 1504.94C715.935 1505.99 716.564 1507.04 717.211 1508.12C718.564 1510.33 719.918 1512.54 721.273 1514.75C721.796 1515.61 721.796 1515.61 722.33 1516.48C726.033 1522.54 729.867 1528.52 733.711 1534.49C735.043 1536.57 736.375 1538.64 737.707 1540.72C738.346 1541.72 738.985 1542.71 739.644 1543.74C742.532 1548.25 745.407 1552.78 748.273 1557.3C748.75 1558.05 749.228 1558.81 749.719 1559.58C750.165 1560.28 750.611 1560.99 751.07 1561.72C751.45 1562.32 751.83 1562.92 752.221 1563.54C754.052 1566.55 755.778 1569.62 757.523 1572.68C703.178 1572.75 648.832 1572.81 594.486 1572.85C593.681 1572.85 592.876 1572.85 592.047 1572.85C574.549 1572.86 557.052 1572.87 539.554 1572.88C530.973 1572.89 522.391 1572.89 513.81 1572.9C512.956 1572.9 512.102 1572.9 511.222 1572.9C483.57 1572.92 455.919 1572.95 428.267 1572.98C399.839 1573.02 371.41 1573.05 342.982 1573.05C338.962 1573.05 334.941 1573.06 330.921 1573.06C330.13 1573.06 329.339 1573.06 328.523 1573.06C315.815 1573.06 303.106 1573.08 290.397 1573.11C277.604 1573.13 264.811 1573.14 252.018 1573.13C245.093 1573.13 238.168 1573.13 231.243 1573.15C224.893 1573.17 218.543 1573.18 212.192 1573.16C209.905 1573.16 207.618 1573.16 205.331 1573.18C187.58 1573.27 170.381 1571.74 153.773 1564.99C152.91 1564.65 152.046 1564.31 151.156 1563.96C133.784 1556.89 119.155 1546.52 105.523 1533.68C104.527 1532.78 104.527 1532.78 103.512 1531.86C79.8618 1509.65 67.1001 1475.61 66.061 1443.66C65.8051 1433.74 65.8461 1423.8 65.8809 1413.88C65.8937 1408.62 65.8772 1403.36 65.8647 1398.1C65.8467 1388.91 65.8471 1379.72 65.8599 1370.53C65.8789 1356.86 65.8691 1343.19 65.8539 1329.52C65.8291 1306.52 65.8281 1283.52 65.8418 1260.51C65.8553 1237.73 65.8605 1214.95 65.8542 1192.17C65.8538 1190.74 65.8534 1189.31 65.853 1187.87C65.8514 1182.11 65.8499 1176.35 65.8482 1170.59C65.8436 1154.49 65.8408 1138.39 65.8393 1122.29C65.8392 1121.19 65.8392 1121.19 65.8391 1120.07C65.837 1096.73 65.8426 1073.39 65.8535 1050.05C65.854 1048.92 65.8541 1048.92 65.8546 1047.76C65.8603 1035.48 65.8664 1023.19 65.8725 1010.91C65.8968 962.187 65.8957 913.467 65.8714 864.746C65.8653 852.465 65.8592 840.183 65.8535 827.902C65.8532 827.146 65.8528 826.39 65.8525 825.61C65.8417 802.291 65.8371 778.971 65.8393 755.652C65.8394 754.919 65.8394 754.187 65.8395 753.432C65.841 737.352 65.8442 721.272 65.8488 705.192C65.8505 699.439 65.852 693.685 65.8536 687.931C65.854 686.5 65.8544 685.068 65.8548 683.637C65.8611 660.865 65.854 638.093 65.8405 615.321C65.8267 591.744 65.8319 568.168 65.8582 544.591C65.8728 531.009 65.8738 517.427 65.8549 503.846C65.8437 494.765 65.8507 485.685 65.8725 476.605C65.8843 471.437 65.8885 466.269 65.8704 461.101C65.7413 421.253 65.7413 421.253 71.5232 403.678C71.7622 402.933 72.0011 402.188 72.2473 401.42C77.5045 385.226 85.5589 370.679 96.5232 357.678C97.2529 356.808 97.9825 355.938 98.7342 355.041C116.594 334.506 138.994 320.176 165.523 313.678C166.601 313.355 167.679 313.033 168.79 312.7C183.658 308.629 199.336 309.395 214.605 309.424ZM127.797 380.166C110.088 399.731 104.195 424.247 104.269 449.962C104.266 451.702 104.263 453.442 104.259 455.182C104.25 459.958 104.254 464.734 104.26 469.509C104.264 474.707 104.257 479.906 104.251 485.104C104.242 494.212 104.241 503.321 104.244 512.429C104.25 525.974 104.244 539.519 104.235 553.064C104.221 577.958 104.218 602.853 104.221 627.748C104.221 631.274 104.221 634.8 104.222 638.326C104.222 639.026 104.222 639.727 104.222 640.448C104.223 655.977 104.221 671.506 104.217 687.035C104.216 690.582 104.216 694.129 104.215 697.676C104.215 699.099 104.214 700.523 104.214 701.946C104.214 702.652 104.214 703.358 104.214 704.085C104.213 705.512 104.213 706.939 104.213 708.367C104.204 748.862 104.199 789.358 104.204 829.853C104.204 830.603 104.204 831.353 104.204 832.125C104.205 840.485 104.206 848.845 104.207 857.205C104.207 857.96 104.207 858.715 104.207 859.492C104.207 864.071 104.207 864.071 104.208 868.649C104.213 916.925 104.206 965.2 104.187 1013.48C104.182 1025.64 104.178 1037.8 104.173 1049.97C104.173 1050.72 104.173 1051.46 104.172 1052.24C104.164 1075.33 104.159 1098.41 104.159 1121.5C104.158 1122.23 104.158 1122.95 104.158 1123.7C104.158 1139.62 104.158 1155.53 104.159 1171.45C104.16 1177.15 104.16 1182.84 104.161 1188.54C104.161 1189.95 104.161 1191.37 104.161 1192.79C104.162 1215.35 104.155 1237.91 104.144 1260.48C104.132 1283.84 104.132 1307.2 104.144 1330.56C104.15 1344.02 104.149 1357.49 104.135 1370.95C104.127 1379.95 104.13 1388.94 104.141 1397.94C104.147 1403.06 104.149 1408.19 104.137 1413.31C104.127 1417.98 104.13 1422.65 104.144 1427.32C104.147 1428.99 104.145 1430.66 104.137 1432.34C104.017 1459.17 111.468 1482.41 129.523 1502.68C130.272 1503.52 131.021 1504.37 131.793 1505.24C146.905 1521.3 168.48 1532.1 190.523 1533.68C195.769 1533.82 201.013 1533.81 206.26 1533.8C207.86 1533.8 209.459 1533.8 211.059 1533.8C215.44 1533.8 219.821 1533.8 224.201 1533.79C228.931 1533.79 233.661 1533.79 238.391 1533.79C246.581 1533.79 254.771 1533.79 262.96 1533.78C274.801 1533.78 286.642 1533.77 298.483 1533.77C317.695 1533.77 336.907 1533.76 356.119 1533.75C374.78 1533.74 393.44 1533.74 412.101 1533.73C413.827 1533.73 413.827 1533.73 415.587 1533.73C421.36 1533.73 427.132 1533.73 432.905 1533.73C480.777 1533.72 528.65 1533.7 576.523 1533.68C576.115 1533.13 575.706 1532.59 575.285 1532.03C574.748 1531.31 574.21 1530.6 573.656 1529.86C573.124 1529.15 572.592 1528.44 572.043 1527.71C558.192 1509.17 551.75 1489.76 553.523 1466.68C554.277 1461.94 555.318 1457.32 556.523 1452.68C556.876 1451.28 557.227 1449.87 557.576 1448.47C557.889 1447.22 558.201 1445.97 558.523 1444.68C557.556 1444.68 556.588 1444.67 555.591 1444.67C532.047 1444.61 508.503 1444.54 484.958 1444.44C473.572 1444.4 462.187 1444.36 450.801 1444.33C440.877 1444.31 430.953 1444.28 421.029 1444.23C415.774 1444.21 410.52 1444.19 405.265 1444.18C400.318 1444.17 395.372 1444.15 390.425 1444.12C388.61 1444.11 386.796 1444.11 384.982 1444.11C382.501 1444.11 380.021 1444.1 377.54 1444.08C376.825 1444.08 376.11 1444.09 375.374 1444.09C368.051 1443.99 362.384 1441.32 357.035 1436.39C352.136 1430.84 351.923 1424.01 352.113 1416.87C352.94 1410.44 355.801 1405.71 360.898 1401.74C366.452 1397.92 372.948 1397.38 379.502 1397.4C380.276 1397.39 381.05 1397.39 381.847 1397.38C384.423 1397.37 386.999 1397.36 389.576 1397.36C391.429 1397.35 393.282 1397.34 395.135 1397.33C400.155 1397.3 405.176 1397.29 410.196 1397.27C415.446 1397.26 420.696 1397.23 425.947 1397.21C435.884 1397.16 445.822 1397.12 455.759 1397.09C467.075 1397.05 478.39 1397 489.706 1396.95C512.978 1396.85 536.251 1396.76 559.523 1396.68C557.005 1394.11 554.674 1391.97 551.609 1390.08C550.858 1389.62 550.107 1389.15 549.334 1388.67C548.53 1388.18 547.726 1387.69 546.898 1387.18C540.52 1383.21 534.195 1379.18 527.961 1374.99C520.62 1370.06 513.238 1365.2 505.836 1360.37C504.731 1359.64 503.626 1358.92 502.488 1358.18C497.121 1354.67 491.751 1351.17 486.379 1347.68C425.85 1308.28 425.85 1308.28 412.407 1274.42C411.875 1273.09 411.875 1273.09 411.333 1271.72C411.066 1271.05 410.799 1270.37 410.523 1269.68C409.433 1269.68 408.342 1269.68 407.219 1269.67C380.687 1269.64 354.155 1269.58 327.622 1269.49C314.792 1269.45 301.961 1269.42 289.13 1269.41C277.947 1269.39 266.763 1269.37 255.58 1269.32C249.659 1269.3 243.737 1269.29 237.816 1269.29C232.241 1269.29 226.666 1269.27 221.092 1269.24C219.047 1269.23 217.002 1269.23 214.958 1269.23C212.162 1269.24 209.367 1269.22 206.572 1269.2C205.766 1269.2 204.961 1269.21 204.131 1269.22C197.636 1269.12 192.258 1267.29 187.5 1262.75C182.536 1255.6 180.463 1249.44 181.523 1240.68C183.404 1234.05 187.943 1229.52 193.523 1225.68C197.977 1223.4 202.24 1223.39 207.135 1223.4C208.001 1223.39 208.867 1223.39 209.759 1223.38C212.659 1223.37 215.56 1223.36 218.46 1223.36C220.54 1223.35 222.619 1223.34 224.699 1223.33C230.345 1223.3 235.991 1223.29 241.637 1223.27C247.538 1223.26 253.438 1223.23 259.338 1223.21C270.512 1223.16 281.685 1223.12 292.859 1223.09C305.58 1223.05 318.3 1223 331.021 1222.95C357.188 1222.85 383.356 1222.76 409.523 1222.68C409.909 1221.47 410.294 1220.27 410.691 1219.03C411.215 1217.42 411.74 1215.81 412.265 1214.19C412.517 1213.4 412.769 1212.61 413.028 1211.8C421.148 1187.02 439.617 1168.32 462.588 1156.62C494.087 1141.23 526.457 1148.61 559.33 1154.42C566.904 1155.75 574.486 1157.03 582.07 1158.31C583.415 1158.53 584.759 1158.76 586.103 1158.99C588.144 1159.33 590.184 1159.67 592.224 1160.01C599.781 1161.28 607.336 1162.56 614.89 1163.85C615.573 1163.96 616.256 1164.08 616.959 1164.2C626.066 1165.74 635.169 1167.3 644.271 1168.88C649.062 1169.71 653.855 1170.53 658.647 1171.35C661.881 1171.91 665.115 1172.47 668.347 1173.03C671.905 1173.65 675.464 1174.27 679.023 1174.88C680.061 1175.06 681.099 1175.24 682.168 1175.43C688.039 1176.43 693.564 1177 699.523 1176.68C701.722 1175.15 701.722 1175.15 702.961 1172.68C703.521 1171.76 704.082 1170.85 704.66 1169.91C705.582 1168.31 705.582 1168.31 706.523 1166.68C708.089 1164.1 709.681 1161.55 711.273 1158.99C711.695 1158.31 712.118 1157.62 712.553 1156.92C717.15 1149.54 722.25 1142.58 727.523 1135.68C727.973 1135.09 728.423 1134.5 728.887 1133.89C745.652 1112 764.683 1092.35 784.211 1072.93C785.843 1071.3 787.475 1069.67 789.107 1068.05C792.071 1065.09 795.036 1062.14 798.003 1059.18C798.619 1058.57 799.236 1057.95 799.871 1057.31C801.223 1055.97 802.61 1054.67 804.007 1053.38C805.855 1051.68 805.855 1051.68 805.523 1048.68C803.904 1047.26 803.904 1047.26 801.703 1046.03C800.869 1045.53 800.036 1045.02 799.177 1044.5C798.26 1043.96 797.343 1043.42 796.398 1042.87C794.451 1041.69 792.504 1040.51 790.558 1039.33C789.553 1038.73 788.548 1038.12 787.512 1037.5C782.906 1034.69 778.373 1031.78 773.836 1028.87C764.623 1022.97 755.324 1017.23 746.001 1011.51C737.215 1006.12 728.487 1000.64 719.785 995.114C715.869 992.628 711.946 990.154 708.023 987.678C706.443 986.679 704.862 985.681 703.281 984.682C700.09 982.666 696.897 980.654 693.703 978.643C692.908 978.142 692.112 977.64 691.293 977.124C689.71 976.127 688.126 975.132 686.541 974.138C682.544 971.626 678.593 969.066 674.691 966.409C673.917 965.887 673.142 965.366 672.344 964.829C670.871 963.834 669.407 962.825 667.952 961.803C664.522 959.295 664.522 959.295 660.488 959.053C659.84 959.589 659.191 960.126 658.523 960.678C656.945 961.865 656.945 961.865 655.336 963.076C654.73 963.55 654.124 964.023 653.5 964.511C629.95 982.883 602.317 996.724 573.523 1004.68C571.76 1005.18 571.76 1005.18 569.961 1005.7C550.858 1011.01 532.467 1012.88 512.676 1012.92C509.756 1012.93 506.836 1012.96 503.916 1012.99C453.661 1013.27 404.76 994.862 365.523 963.678C364.627 962.974 363.731 962.27 362.808 961.545C352.627 953.395 342.851 944.737 334.523 934.678C333.718 933.76 332.912 932.842 332.082 931.897C319.939 918.018 309.985 903.047 301.523 886.678C301.108 885.89 300.693 885.102 300.266 884.29C283.271 851.737 275.061 814.93 275.148 778.303C275.148 777.478 275.149 776.653 275.149 775.804C275.186 761.138 276.487 747.052 279.523 732.678C279.716 731.742 279.908 730.807 280.107 729.843C288.72 688.792 308.217 648.993 337.523 618.678C338.471 617.692 338.471 617.692 339.438 616.685C348.891 606.889 358.393 597.552 369.523 589.678C370.203 589.197 370.883 588.715 371.584 588.22C422.245 552.75 484.37 535.689 545.905 546.216C546.769 546.369 547.633 546.521 548.523 546.678C549.399 546.828 550.275 546.978 551.177 547.132C562.597 549.122 573.575 551.88 584.523 555.678C585.734 556.084 586.944 556.49 588.191 556.908C612.799 565.604 636.366 578.05 656.523 594.678C657.341 595.344 657.341 595.344 658.176 596.023C671.829 607.182 684.95 619.524 695.523 633.678C695.966 634.266 696.408 634.853 696.864 635.459C713.505 657.735 725.806 682.295 734.523 708.678C735.066 710.306 735.609 711.933 736.152 713.561C736.609 714.933 737.066 716.306 737.523 717.678C738.338 717.782 739.153 717.887 739.992 717.994C763.241 720.972 786.488 723.958 809.736 726.946C811.986 727.236 814.236 727.525 816.486 727.814C819.403 728.189 822.32 728.564 825.237 728.939C828.104 729.308 830.972 729.677 833.839 730.045C840.899 730.952 847.958 731.864 855.015 732.784C874.247 735.296 874.247 735.296 893.523 737.428C894.708 737.553 895.893 737.678 897.113 737.807C902.623 738.371 907.981 738.7 913.523 738.678C913.615 699.586 913.685 660.493 913.727 621.401C913.732 616.78 913.738 612.159 913.743 607.538C913.744 606.618 913.745 605.698 913.746 604.75C913.764 589.878 913.795 575.006 913.832 560.135C913.869 544.861 913.891 529.588 913.9 514.315C913.905 504.899 913.922 495.484 913.955 486.068C913.976 479.601 913.982 473.135 913.977 466.668C913.975 462.943 913.978 459.219 914 455.494C914.193 434.259 914.193 434.259 909.523 413.678C908.957 411.95 908.956 411.95 908.378 410.187C900.603 387.282 883.903 369.578 862.523 358.678C861.792 358.259 861.061 357.84 860.308 357.408C848.013 350.637 833.652 348.521 819.795 348.549C818.708 348.548 817.621 348.546 816.501 348.544C812.84 348.539 809.178 348.542 805.516 348.544C802.872 348.542 800.228 348.54 797.584 348.537C791.826 348.532 786.067 348.531 780.308 348.532C771.744 348.533 763.18 348.529 754.617 348.524C738.431 348.514 722.246 348.512 706.06 348.511C693.56 348.511 681.06 348.508 668.559 348.505C664.962 348.504 661.365 348.503 657.768 348.503C656.427 348.502 656.427 348.502 655.059 348.502C629.901 348.496 604.743 348.492 579.585 348.492C578.636 348.492 577.687 348.492 576.71 348.492C571.901 348.492 567.092 348.492 562.283 348.493C561.328 348.493 560.373 348.493 559.389 348.493C557.458 348.493 555.526 348.493 553.595 348.493C523.552 348.493 493.509 348.486 463.466 348.472C429.718 348.457 395.97 348.448 362.222 348.449C358.622 348.449 355.023 348.449 351.424 348.449C350.095 348.449 350.095 348.449 348.738 348.449C334.479 348.449 320.221 348.443 305.962 348.434C291.628 348.426 277.294 348.425 262.961 348.432C254.447 348.435 245.934 348.433 237.42 348.424C231.729 348.418 226.038 348.419 220.347 348.426C217.107 348.43 213.867 348.43 210.628 348.423C177.145 348.355 151.625 355.624 127.797 380.166Z" fill="#FDFCFC"/>
<path d="M1401.77 641.303C1402.88 641.289 1403.98 641.275 1405.11 641.261C1419.32 641.343 1431.04 646.048 1441.34 655.928C1449.57 664.631 1453.48 673.154 1456.52 684.678C1456.7 685.318 1456.88 685.958 1457.06 686.618C1460.08 699.948 1456.76 714.718 1453.52 727.678C1453.35 728.397 1453.17 729.115 1452.99 729.856C1445.46 759.667 1430.36 787.571 1414.52 813.678C1413.96 814.615 1413.39 815.552 1412.81 816.517C1398.49 840.176 1382.6 862.635 1364.96 883.937C1362.88 886.46 1360.83 889.009 1358.77 891.553C1351.12 900.871 1342.83 909.507 1334.27 917.99C1333.3 918.962 1332.32 919.934 1331.34 920.906C1329.55 922.689 1327.76 924.47 1325.97 926.25C1324.39 927.815 1322.82 929.384 1321.25 930.955C1318.28 933.919 1315.31 936.876 1312.34 939.833C1308.99 943.17 1305.64 946.511 1302.3 949.851C1300.54 951.606 1298.77 953.36 1297.01 955.114C1294.45 957.66 1291.9 960.21 1289.34 962.76C1288.56 963.534 1287.79 964.308 1286.98 965.106C1286.24 965.85 1285.49 966.594 1284.73 967.361C1284.08 968.003 1283.44 968.645 1282.77 969.307C1280.99 971.189 1279.31 973.095 1277.63 975.069C1272.53 980.904 1267.01 986.319 1261.53 991.786C1260.31 993.003 1259.09 994.221 1257.88 995.44C1254.54 998.772 1251.21 1002.1 1247.87 1005.43C1244.27 1009.03 1240.67 1012.62 1237.07 1016.22C1230.84 1022.45 1224.6 1028.68 1218.36 1034.91C1209.34 1043.93 1200.32 1052.94 1191.29 1061.96C1176.65 1076.6 1162 1091.24 1147.34 1105.88C1146.47 1106.76 1145.59 1107.63 1144.69 1108.53C1137.58 1115.64 1130.46 1122.74 1123.35 1129.85C1117.14 1136.06 1110.92 1142.27 1104.71 1148.48C1103.83 1149.35 1102.95 1150.23 1102.05 1151.13C1087.45 1165.71 1072.86 1180.3 1058.26 1194.89C1049.26 1203.88 1040.26 1212.87 1031.26 1221.86C1025.09 1228.02 1018.93 1234.18 1012.76 1240.35C1009.21 1243.9 1005.65 1247.45 1002.09 1251.01C998.83 1254.26 995.572 1257.52 992.316 1260.77C991.14 1261.95 989.963 1263.12 988.785 1264.3C983.337 1269.73 977.93 1275.15 972.951 1281.02C970.47 1283.9 967.782 1286.57 965.086 1289.24C964.52 1289.8 963.954 1290.37 963.37 1290.95C959.859 1294.42 956.282 1297.77 952.512 1300.96C950.139 1303.01 947.874 1305.16 945.586 1307.3C938.294 1313.94 930.435 1319.8 922.524 1325.68C921.787 1326.23 921.05 1326.78 920.291 1327.35C902.622 1340.53 883.922 1351.27 864.524 1361.68C860.543 1363.82 856.564 1365.97 852.586 1368.12C851.589 1368.65 850.591 1369.19 849.563 1369.75C842.606 1373.52 835.711 1377.39 828.836 1381.3C820.759 1385.9 812.607 1390.31 804.356 1394.59C797.222 1398.29 790.162 1402.12 783.115 1405.98C775.854 1409.96 768.568 1413.89 761.274 1417.8C753.242 1422.12 745.238 1426.48 737.28 1430.93C731.139 1434.35 724.96 1437.71 718.774 1441.05C717.752 1441.61 716.73 1442.16 715.677 1442.73C714.655 1443.28 713.634 1443.83 712.583 1444.4C698.874 1451.81 685.202 1459.29 671.554 1466.82C669.667 1467.86 667.78 1468.89 665.892 1469.93C660.676 1472.8 655.47 1475.69 650.333 1478.7C649.597 1479.13 648.861 1479.55 648.104 1480C646.817 1480.75 645.537 1481.51 644.265 1482.29C640.532 1484.48 637.83 1485.14 633.524 1484.68C630.75 1483.42 629.041 1482.37 627.211 1479.93C625.749 1475.14 626.085 1471.09 628.29 1466.65C629.104 1465.15 629.933 1463.66 630.774 1462.18C631.697 1460.49 632.619 1458.8 633.54 1457.12C634.027 1456.23 634.515 1455.35 635.018 1454.44C637.592 1449.72 640.052 1444.95 642.524 1440.18C646.131 1433.25 649.754 1426.33 653.399 1419.43C658.045 1410.62 662.627 1401.78 667.207 1392.94C672.466 1382.78 677.753 1372.64 683.047 1362.51C684.562 1359.61 686.074 1356.7 687.586 1353.8C692.623 1344.14 697.671 1334.49 702.753 1324.85C705.375 1319.87 707.981 1314.89 710.577 1309.9C714.588 1302.19 718.617 1294.49 722.692 1286.81C723.057 1286.13 723.422 1285.44 723.798 1284.73C725.32 1281.86 726.842 1279 728.366 1276.13C732.643 1268.09 736.88 1260.03 741 1251.9C748.875 1236.38 756.887 1221.2 766.524 1206.68C767.135 1205.75 767.746 1204.83 768.376 1203.88C778.91 1188.03 790.11 1173.09 802.524 1158.68C803.15 1157.94 803.777 1157.2 804.422 1156.44C808.354 1151.84 812.566 1147.58 816.899 1143.37C818.802 1141.42 820.538 1139.49 822.286 1137.42C828.171 1130.68 834.614 1124.46 840.948 1118.14C842.43 1116.66 843.912 1115.18 845.393 1113.69C849.455 1109.63 853.52 1105.57 857.585 1101.52C861.972 1097.13 866.357 1092.75 870.742 1088.37C878.338 1080.77 885.936 1073.18 893.535 1065.59C904.531 1054.61 915.522 1043.62 926.513 1032.64C931.638 1027.51 936.762 1022.39 941.887 1017.27C942.4 1016.76 942.912 1016.24 943.441 1015.72C955.642 1003.52 967.846 991.326 980.049 979.133C980.849 978.333 980.849 978.333 981.666 977.516C990.328 968.862 998.989 960.207 1007.65 951.552C1015.77 943.443 1023.88 935.333 1032 927.223C1032.8 926.424 1032.8 926.424 1033.62 925.608C1045.8 913.435 1057.98 901.261 1070.16 889.086C1070.93 888.318 1070.93 888.318 1071.71 887.535C1076.83 882.424 1081.94 877.313 1087.05 872.202C1098.03 861.229 1109.01 850.257 1119.99 839.287C1128 831.292 1136 823.294 1144 815.295C1148.33 810.963 1152.67 806.631 1157.01 802.302C1160.98 798.338 1164.95 794.371 1168.91 790.403C1170.35 788.969 1171.78 787.536 1173.22 786.103C1182.47 776.945 1182.47 776.945 1191.16 767.268C1193.77 764.229 1196.62 761.432 1199.46 758.615C1200.08 758.003 1200.69 757.39 1201.33 756.758C1204.9 753.224 1208.52 749.808 1212.36 746.565C1214.16 744.998 1215.89 743.399 1217.63 741.76C1225.03 734.745 1232.64 728.266 1240.74 722.064C1243.18 720.165 1245.58 718.207 1247.98 716.251C1284.83 686.307 1328.69 658.183 1374.52 644.678C1375.56 644.358 1376.59 644.039 1377.65 643.709C1385.67 641.587 1393.51 641.371 1401.77 641.303Z" fill="#EA4F4E"/>
<path d="M1401.77 641.303C1402.88 641.289 1403.98 641.275 1405.11 641.261C1419.32 641.343 1431.04 646.048 1441.34 655.928C1449.57 664.631 1453.48 673.154 1456.52 684.678C1456.7 685.318 1456.88 685.958 1457.06 686.618C1460.08 699.948 1456.76 714.718 1453.52 727.678C1453.35 728.397 1453.17 729.115 1452.99 729.856C1445.46 759.667 1430.36 787.571 1414.52 813.678C1413.96 814.615 1413.39 815.552 1412.81 816.517C1398.49 840.176 1382.6 862.635 1364.96 883.937C1362.88 886.46 1360.83 889.009 1358.77 891.553C1351.12 900.871 1342.83 909.507 1334.27 917.99C1333.3 918.962 1332.32 919.934 1331.34 920.906C1329.55 922.689 1327.76 924.47 1325.97 926.25C1324.39 927.815 1322.82 929.384 1321.25 930.955C1318.28 933.919 1315.31 936.876 1312.34 939.833C1308.99 943.17 1305.64 946.511 1302.3 949.851C1300.54 951.606 1298.77 953.36 1297.01 955.114C1294.45 957.66 1291.9 960.21 1289.34 962.76C1288.56 963.534 1287.79 964.308 1286.98 965.106C1286.24 965.85 1285.49 966.594 1284.73 967.361C1284.08 968.003 1283.44 968.645 1282.77 969.307C1280.99 971.189 1279.31 973.095 1277.63 975.069C1272.53 980.904 1267.01 986.319 1261.53 991.786C1260.31 993.003 1259.09 994.221 1257.88 995.44C1254.54 998.772 1251.21 1002.1 1247.87 1005.43C1244.27 1009.03 1240.67 1012.62 1237.07 1016.22C1230.84 1022.45 1224.6 1028.68 1218.36 1034.91C1209.34 1043.93 1200.32 1052.94 1191.29 1061.96C1176.65 1076.6 1162 1091.24 1147.34 1105.88C1146.47 1106.76 1145.59 1107.63 1144.69 1108.53C1137.58 1115.64 1130.46 1122.74 1123.35 1129.85C1117.14 1136.06 1110.92 1142.27 1104.71 1148.48C1103.83 1149.35 1102.95 1150.23 1102.05 1151.13C1087.45 1165.71 1072.86 1180.3 1058.26 1194.89C1049.26 1203.88 1040.26 1212.87 1031.26 1221.86C1025.09 1228.02 1018.93 1234.18 1012.76 1240.35C1009.21 1243.9 1005.65 1247.45 1002.09 1251.01C998.83 1254.26 995.572 1257.52 992.316 1260.77C991.14 1261.95 989.963 1263.12 988.785 1264.3C983.337 1269.73 977.93 1275.15 972.951 1281.02C970.47 1283.9 967.782 1286.57 965.086 1289.24C964.52 1289.8 963.954 1290.37 963.37 1290.95C959.859 1294.42 956.282 1297.77 952.512 1300.96C950.139 1303.01 947.874 1305.16 945.586 1307.3C938.294 1313.94 930.435 1319.8 922.524 1325.68C921.787 1326.23 921.05 1326.78 920.291 1327.35C902.622 1340.53 883.922 1351.27 864.524 1361.68C860.543 1363.82 856.564 1365.97 852.586 1368.12C851.589 1368.65 850.591 1369.19 849.563 1369.75C842.606 1373.52 835.711 1377.39 828.836 1381.3C820.759 1385.9 812.607 1390.31 804.356 1394.59C797.222 1398.29 790.162 1402.12 783.115 1405.98C775.854 1409.96 768.568 1413.89 761.274 1417.8C753.242 1422.12 745.238 1426.48 737.28 1430.93C731.139 1434.35 724.96 1437.71 718.774 1441.05C717.752 1441.61 716.73 1442.16 715.677 1442.73C714.655 1443.28 713.634 1443.83 712.583 1444.4C698.874 1451.81 685.202 1459.29 671.554 1466.82C669.667 1467.86 667.78 1468.89 665.892 1469.93C660.676 1472.8 655.47 1475.69 650.333 1478.7C649.597 1479.13 648.861 1479.55 648.104 1480C646.817 1480.75 645.537 1481.51 644.265 1482.29C640.532 1484.48 637.83 1485.14 633.524 1484.68C630.75 1483.42 629.041 1482.37 627.211 1479.93C625.749 1475.14 626.085 1471.09 628.29 1466.65C629.104 1465.15 629.933 1463.66 630.774 1462.18C631.697 1460.49 632.619 1458.8 633.54 1457.12C634.027 1456.23 634.515 1455.35 635.018 1454.44C637.592 1449.72 640.052 1444.95 642.524 1440.18C646.131 1433.25 649.754 1426.33 653.399 1419.43C658.045 1410.62 662.627 1401.78 667.207 1392.94C672.466 1382.78 677.753 1372.64 683.047 1362.51C684.562 1359.61 686.074 1356.7 687.586 1353.8C692.623 1344.14 697.671 1334.49 702.753 1324.85C705.375 1319.87 707.981 1314.89 710.577 1309.9C714.588 1302.19 718.617 1294.49 722.692 1286.81C723.057 1286.13 723.422 1285.44 723.798 1284.73C725.32 1281.86 726.842 1279 728.366 1276.13C732.643 1268.09 736.88 1260.03 741 1251.9C748.875 1236.38 756.887 1221.2 766.524 1206.68C767.135 1205.75 767.746 1204.83 768.376 1203.88C778.91 1188.03 790.11 1173.09 802.524 1158.68C803.15 1157.94 803.777 1157.2 804.422 1156.44C808.354 1151.84 812.566 1147.58 816.899 1143.37C818.802 1141.42 820.538 1139.49 822.286 1137.42C828.171 1130.68 834.614 1124.46 840.948 1118.14C842.43 1116.66 843.912 1115.18 845.393 1113.69C849.455 1109.63 853.52 1105.57 857.585 1101.52C861.972 1097.13 866.357 1092.75 870.742 1088.37C878.338 1080.77 885.936 1073.18 893.535 1065.59C904.531 1054.61 915.522 1043.62 926.513 1032.64C931.638 1027.51 936.762 1022.39 941.887 1017.27C942.4 1016.76 942.912 1016.24 943.441 1015.72C955.642 1003.52 967.846 991.326 980.049 979.133C980.849 978.333 980.849 978.333 981.666 977.516C990.328 968.862 998.989 960.207 1007.65 951.552C1015.77 943.443 1023.88 935.333 1032 927.223C1032.8 926.424 1032.8 926.424 1033.62 925.608C1045.8 913.435 1057.98 901.261 1070.16 889.086C1070.93 888.318 1070.93 888.318 1071.71 887.535C1076.83 882.424 1081.94 877.313 1087.05 872.202C1098.03 861.229 1109.01 850.257 1119.99 839.287C1128 831.292 1136 823.294 1144 815.295C1148.33 810.963 1152.67 806.631 1157.01 802.302C1160.98 798.338 1164.95 794.371 1168.91 790.403C1170.35 788.969 1171.78 787.536 1173.22 786.103C1182.47 776.945 1182.47 776.945 1191.16 767.268C1193.77 764.229 1196.62 761.432 1199.46 758.615C1200.08 758.003 1200.69 757.39 1201.33 756.758C1204.9 753.224 1208.52 749.808 1212.36 746.565C1214.16 744.998 1215.89 743.399 1217.63 741.76C1225.03 734.745 1232.64 728.266 1240.74 722.064C1243.18 720.165 1245.58 718.207 1247.98 716.251C1284.83 686.307 1328.69 658.183 1374.52 644.678C1375.56 644.358 1376.59 644.039 1377.65 643.709C1385.67 641.587 1393.51 641.371 1401.77 641.303ZM1382.52 675.678C1381.85 675.887 1381.17 676.097 1380.47 676.312C1371.37 679.128 1362.76 682.218 1354.32 686.674C1348.61 688.725 1343.69 686.078 1338.4 683.803C1322.63 677.24 1322.63 677.24 1306.11 678.557C1299.1 682.104 1294.01 687.152 1291.52 694.678C1290.6 701.836 1291.41 707.684 1295.52 713.678C1296.18 714.338 1296.84 714.998 1297.52 715.678C1297.33 718.294 1296.81 719.399 1294.92 721.227C1293.89 721.961 1293.89 721.961 1292.83 722.709C1291.67 723.545 1291.67 723.545 1290.49 724.397C1289.24 725.279 1289.24 725.279 1287.96 726.178C1286.22 727.434 1284.47 728.69 1282.73 729.948C1281.85 730.575 1280.98 731.202 1280.07 731.848C1269.16 739.678 1258.66 747.866 1248.52 756.678C1247.81 757.29 1247.1 757.903 1246.36 758.533C1244.4 760.23 1242.46 761.95 1240.52 763.678C1239.75 764.359 1238.98 765.039 1238.18 765.74C1231.2 771.996 1224.52 778.549 1217.87 785.152C1216.81 786.211 1215.74 787.269 1214.67 788.324C1213.15 789.824 1211.64 791.33 1210.13 792.838C1209.25 793.721 1208.36 794.604 1207.44 795.514C1205.3 797.445 1205.3 797.445 1205.52 799.678C1204.04 800.173 1204.04 800.173 1202.52 800.678C1201.04 802.14 1201.04 802.14 1199.65 803.928C1197.12 807.053 1194.38 809.844 1191.52 812.678C1190.55 813.649 1189.58 814.62 1188.61 815.592C1187.51 816.687 1186.42 817.782 1185.32 818.878C1184.05 820.146 1182.78 821.414 1181.52 822.682C1180.84 823.358 1180.16 824.033 1179.47 824.729C1149.2 854.979 1118.94 885.23 1088.68 915.484C1088.17 915.989 1087.67 916.493 1087.15 917.013C1076.18 927.972 1065.22 938.932 1054.26 949.891C1048.89 955.26 1043.52 960.629 1038.15 965.997C1037.62 966.531 1037.08 967.065 1036.53 967.616C1019.2 984.94 1001.87 1002.26 984.541 1019.58C966.718 1037.4 948.897 1055.21 931.078 1073.03C928.561 1075.55 926.044 1078.06 923.527 1080.58C923.031 1081.08 922.536 1081.57 922.026 1082.08C914.057 1090.05 906.087 1098.01 898.116 1105.98C890.104 1113.98 882.094 1121.99 874.086 1130C869.748 1134.34 865.41 1138.68 861.069 1143.01C857.094 1146.98 853.122 1150.96 849.152 1154.93C847.716 1156.37 846.279 1157.8 844.841 1159.24C838.186 1165.88 831.593 1172.49 825.524 1179.68C824.172 1181.12 822.818 1182.56 821.461 1183.99C790.414 1218.43 770.34 1262.39 749.432 1303.31C744.276 1313.4 739.016 1323.41 733.531 1333.33C729.892 1339.93 726.495 1346.63 723.153 1353.38C719.294 1361.18 715.261 1368.87 711.184 1376.55C707.89 1382.76 704.604 1388.96 701.316 1395.17C700.105 1397.46 698.893 1399.74 697.68 1402.03C696.921 1403.46 696.162 1404.89 695.403 1406.32C694.883 1407.3 694.883 1407.3 694.353 1408.3C693.405 1410.09 692.464 1411.88 691.524 1413.68C690.928 1414.78 690.333 1415.88 689.719 1417.01C689.325 1417.89 688.93 1418.77 688.524 1419.68C688.854 1420.34 689.184 1421 689.524 1421.68C702.245 1414.89 714.935 1408.07 727.461 1400.93C735.008 1396.63 742.612 1392.49 750.323 1388.49C756.638 1385.19 762.836 1381.71 769.024 1378.18C776.747 1373.78 784.519 1369.51 792.402 1365.41C799.31 1361.81 806.151 1358.09 812.983 1354.35C817.797 1351.71 822.614 1349.09 827.446 1346.48C840.363 1339.52 853.202 1332.44 865.936 1325.16C868.299 1323.81 870.669 1322.47 873.04 1321.13C900.464 1305.52 923.997 1285.37 946.204 1263.13C947.435 1261.9 948.667 1260.67 949.898 1259.44C953.248 1256.1 956.595 1252.75 959.941 1249.41C963.563 1245.78 967.188 1242.16 970.812 1238.55C977.895 1231.47 984.976 1224.39 992.055 1217.31C997.806 1211.56 1003.56 1205.81 1009.31 1200.07C1025.62 1183.76 1041.93 1167.46 1058.24 1151.15C1059.11 1150.27 1059.99 1149.4 1060.89 1148.49C1061.77 1147.61 1062.65 1146.74 1063.56 1145.83C1077.83 1131.56 1092.11 1117.29 1106.39 1103.02C1121.06 1088.37 1135.72 1073.71 1150.38 1059.05C1158.61 1050.82 1166.84 1042.6 1175.07 1034.37C1182.07 1027.38 1189.07 1020.38 1196.06 1013.38C1199.63 1009.81 1203.21 1006.24 1206.78 1002.67C1210.05 999.411 1213.31 996.147 1216.57 992.878C1217.76 991.692 1218.94 990.507 1220.13 989.324C1221.74 987.726 1223.34 986.122 1224.93 984.516C1225.83 983.624 1226.72 982.731 1227.64 981.812C1229.74 979.903 1229.74 979.903 1229.52 977.678C1230.08 977.472 1230.64 977.265 1231.21 977.053C1233.75 975.542 1235.29 973.739 1237.08 971.408C1239.08 969.013 1241.31 966.871 1243.52 964.678C1244.75 963.452 1245.99 962.226 1247.22 961C1248.67 959.555 1250.12 958.11 1251.57 956.666C1259.69 948.572 1267.82 940.473 1275.93 932.372C1280.84 927.477 1285.75 922.583 1290.66 917.695C1295.42 912.954 1300.18 908.207 1304.93 903.458C1306.74 901.657 1308.55 899.857 1310.35 898.059C1322.65 885.939 1322.65 885.939 1333.85 872.823C1335.58 870.608 1337.42 868.551 1339.34 866.49C1355.51 848.438 1371.68 826.356 1382.52 804.678C1385.17 805.661 1387.44 806.621 1389.77 808.225C1395.42 811.207 1402.98 810.652 1409.04 808.987C1414.84 806.34 1417.77 802.217 1421.34 797.053C1425.47 785.315 1420.6 772.848 1416.52 761.678C1415.94 760.472 1415.36 759.27 1414.76 758.073C1412.28 751.259 1414.82 745.147 1417.4 738.74C1417.95 737.325 1418.49 735.91 1419.04 734.494C1419.53 733.222 1420.03 731.95 1420.52 730.678C1425.39 718.101 1429.59 700.978 1425.65 687.729C1422.59 680.977 1417.55 675.371 1410.52 672.678C1407.97 672.457 1405.57 672.344 1403.02 672.365C1401.95 672.374 1401.95 672.374 1400.86 672.383C1394.41 672.528 1388.67 673.708 1382.52 675.678Z" fill="#CED5DD"/>
<path d="M622.307 776.47C628.391 777.398 634.458 778.119 640.586 778.678C648.17 779.381 655.663 780.399 663.186 781.575C668.415 782.384 673.636 783.067 678.899 783.616C688.413 784.611 697.886 785.897 707.365 787.182C715.52 788.286 723.68 789.334 731.847 790.345C736.962 790.981 742.077 791.624 747.191 792.265C751.319 792.783 755.447 793.299 759.574 793.816C763.107 794.258 766.64 794.701 770.173 795.144C783.776 796.849 797.379 798.552 810.992 800.17C824.701 801.802 838.395 803.548 852.09 805.293C859.924 806.291 867.759 807.285 875.594 808.28C876.391 808.381 877.187 808.482 878.008 808.586C900.868 811.487 923.734 814.339 946.6 817.19C955.465 818.296 964.329 819.405 973.194 820.515C1003.3 824.287 1033.4 828.039 1063.52 831.678C1063.52 832.338 1063.52 832.998 1063.52 833.678C1062.04 835.147 1062.04 835.147 1059.99 836.845C1055.82 840.393 1051.93 844.134 1048.07 848.012C1047.36 848.716 1046.66 849.42 1045.93 850.146C1043.59 852.485 1041.26 854.828 1038.92 857.17C1037.23 858.856 1035.55 860.542 1033.86 862.227C1029.77 866.316 1025.68 870.407 1021.6 874.499C1016.84 879.264 1012.08 884.026 1007.32 888.787C998.832 897.278 990.346 905.771 981.861 914.265C973.623 922.513 965.384 930.759 957.143 939.004C956.635 939.513 956.126 940.021 955.602 940.546C953.05 943.099 950.498 945.653 947.945 948.206C926.802 969.36 905.661 990.518 884.524 1011.68C882.775 1010.73 881.028 1009.79 879.281 1008.84C878.308 1008.31 877.335 1007.78 876.333 1007.24C872.616 1005.17 869.067 1002.9 865.524 1000.55C864.046 999.586 862.568 998.62 861.09 997.655C860.337 997.163 859.585 996.671 858.809 996.164C843.858 986.447 828.649 977.119 813.524 967.678C801.391 960.105 789.262 952.528 777.176 944.88C772.365 941.837 767.543 938.813 762.711 935.803C756.457 931.905 750.237 927.954 744.024 923.991C733.25 917.121 722.421 910.342 711.578 903.582C706.454 900.388 701.332 897.19 696.211 893.991C695.207 893.364 694.203 892.736 693.168 892.09C687.148 888.328 681.144 884.542 675.149 880.741C667.711 876.026 660.218 871.406 652.711 866.803C643.592 861.211 634.532 855.537 625.523 849.77C619.186 845.719 612.803 841.747 606.399 837.803C603.104 835.766 599.813 833.724 596.524 831.678C595.871 831.273 595.217 830.869 594.545 830.452C586.955 825.716 579.284 820.712 576 811.948C574.193 803.341 574.382 794.497 578.91 786.831C590.284 771.657 605.346 773.874 622.307 776.47Z" fill="#CDD5DD"/>
<path d="M1270.52 1047.68C1272.31 1061.44 1273.96 1075.2 1275.34 1089C1276.07 1096.04 1276.97 1103.04 1277.94 1110.05C1279.43 1120.84 1280.75 1131.66 1282.03 1142.48C1284.18 1160.69 1286.4 1178.88 1288.79 1197.06C1290.51 1210.25 1292.02 1223.46 1293.52 1236.68C1293.64 1237.74 1293.76 1238.79 1293.89 1239.88C1294.6 1246.2 1295.32 1252.52 1296.03 1258.83C1301.83 1311.33 1301.83 1311.33 1308.49 1363.73C1310.42 1377.82 1312.1 1391.89 1313.45 1406.05C1314.22 1414.05 1315.2 1421.98 1316.4 1429.92C1318.44 1443.59 1319.82 1457.35 1321.34 1471.09C1321.48 1472.3 1321.61 1473.52 1321.75 1474.77C1322.01 1477.11 1322.27 1479.45 1322.52 1481.78C1322.99 1486.06 1323.47 1490.32 1324.09 1494.58C1325.34 1503.48 1325.17 1510.85 1320.52 1518.68C1320.13 1519.38 1319.74 1520.08 1319.34 1520.8C1315.29 1527.14 1309.61 1530.41 1302.52 1532.68C1293.48 1534.07 1286.01 1533.01 1278.52 1527.68C1272.27 1521.8 1267.94 1514.86 1263.74 1507.44C1262.68 1505.55 1261.6 1503.68 1260.52 1501.81C1259.37 1499.81 1258.22 1497.82 1257.07 1495.82C1252.75 1488.31 1248.33 1480.87 1243.9 1473.43C1243.09 1472.07 1242.28 1470.7 1241.47 1469.34C1236.09 1460.28 1230.67 1451.24 1225.24 1442.21C1219.22 1432.2 1213.26 1422.15 1207.31 1412.1C1203.57 1405.79 1199.81 1399.49 1196.04 1393.2C1191.8 1386.15 1187.6 1379.09 1183.41 1372.02C1177.8 1362.56 1172.19 1353.1 1166.52 1343.68C1160.97 1334.44 1155.47 1325.17 1149.97 1315.9C1144.6 1306.85 1139.21 1297.81 1133.77 1288.8C1128.05 1279.3 1122.48 1269.72 1116.96 1260.1C1112.52 1252.37 1107.99 1244.7 1103.38 1237.08C1102.5 1235.62 1101.62 1234.16 1100.74 1232.7C1099.93 1231.35 1099.1 1230.03 1098.24 1228.72C1097.07 1226.88 1097.07 1226.88 1095.52 1223.68C1096.67 1220.32 1098.76 1218.2 1101.26 1215.74C1102 1215.01 1102.74 1214.28 1103.5 1213.53C1104.27 1212.77 1105.04 1212.02 1105.84 1211.24C1106.98 1210.11 1106.98 1210.11 1108.14 1208.96C1109.62 1207.51 1111.1 1206.05 1112.58 1204.59C1114.91 1202.3 1117.21 1199.99 1119.52 1197.68C1120.62 1196.59 1121.73 1195.5 1122.83 1194.41C1124.02 1193.23 1125.21 1192.05 1126.4 1190.87C1126.98 1190.29 1127.57 1189.71 1128.18 1189.11C1131.06 1186.25 1133.84 1183.35 1136.46 1180.24C1141.7 1174.23 1147.4 1168.65 1153.04 1163.02C1154.3 1161.76 1155.55 1160.5 1156.81 1159.23C1160.21 1155.83 1163.61 1152.42 1167.01 1149.02C1169.14 1146.89 1171.26 1144.77 1173.39 1142.64C1180.8 1135.22 1188.21 1127.8 1195.63 1120.39C1202.55 1113.47 1209.46 1106.55 1216.37 1099.62C1222.3 1093.67 1228.24 1087.73 1234.18 1081.79C1237.73 1078.24 1241.28 1074.69 1244.82 1071.14C1248.14 1067.8 1251.47 1064.48 1254.81 1061.15C1256.03 1059.93 1257.25 1058.7 1258.48 1057.47C1260.14 1055.81 1261.8 1054.14 1263.47 1052.48C1264.4 1051.55 1265.34 1050.62 1266.3 1049.65C1268.52 1047.68 1268.52 1047.68 1270.52 1047.68Z" fill="#CDD4DC"/>
<path d="M811.523 70.6774C823.065 76.9389 828.766 85.6087 833.523 97.6774C845.408 145.215 834.523 195.676 834.523 244.677C671.173 244.677 507.823 244.677 339.523 244.677C340.847 242.031 341.884 241.989 344.641 241.006C345.537 240.679 346.434 240.353 347.358 240.016C348.361 239.657 349.365 239.298 350.398 238.927C360.405 235.257 370.325 231.408 380.211 227.427C383.221 226.217 386.232 225.008 389.242 223.798C390.042 223.477 390.841 223.156 391.665 222.825C402.833 218.343 414.023 213.919 425.211 209.49C426.335 209.045 427.459 208.6 428.616 208.141C434.33 205.879 440.044 203.617 445.757 201.356C452.316 198.76 458.875 196.162 465.434 193.564C482.834 186.673 500.235 179.784 517.648 172.927C518.308 172.668 518.967 172.408 519.647 172.141C522.292 171.099 524.936 170.058 527.581 169.017C529.562 168.237 531.543 167.457 533.523 166.677C534.179 166.419 534.834 166.162 535.509 165.896C560.922 155.889 586.307 145.813 611.69 135.73C639.578 124.651 639.578 124.651 651.309 120.013C652.199 119.661 653.09 119.309 654.007 118.946C657.534 117.552 661.062 116.158 664.589 114.764C678.99 109.071 693.38 103.348 707.767 97.6178C710.944 96.3523 714.121 95.0871 717.298 93.8219C719.438 92.9695 721.579 92.1172 723.719 91.2648C724.785 90.8401 725.852 90.4154 726.951 89.9779C733.382 87.4166 739.812 84.8537 746.242 82.2896C750.292 80.6751 754.342 79.0619 758.393 77.4491C760.304 76.6876 762.216 75.9255 764.127 75.1628C766.773 74.1068 769.42 73.0529 772.067 71.9994C772.84 71.6904 773.612 71.3815 774.409 71.0631C787.193 65.984 798.741 64.316 811.523 70.6774Z" fill="#FCFCFC"/>
<path d="M856.523 1418.68C858.053 1423.69 859.116 1428.66 859.925 1433.84C860.184 1435.44 860.443 1437.04 860.702 1438.64C860.836 1439.47 860.97 1440.29 861.107 1441.15C861.799 1445.36 862.537 1449.56 863.277 1453.76C863.425 1454.61 863.573 1455.45 863.726 1456.32C864.179 1458.9 864.632 1461.48 865.086 1464.05C865.544 1466.66 866.003 1469.27 866.461 1471.88C866.742 1473.48 867.024 1475.08 867.306 1476.68C868.721 1484.74 870.052 1492.81 871.378 1500.88C874.196 1517.99 877.215 1535.07 880.244 1552.15C881.318 1558.21 882.391 1564.27 883.463 1570.33C883.831 1572.41 884.2 1574.49 884.569 1576.57C891.171 1613.85 891.171 1613.85 885.074 1622.85C880.338 1628.43 874.917 1632.96 867.398 1633.96C859.048 1634.31 852.495 1632 846.281 1626.48C843.226 1623.35 841.072 1619.74 838.836 1615.99C837.79 1614.29 836.745 1612.59 835.699 1610.88C835.172 1610.02 834.646 1609.15 834.104 1608.26C831.622 1604.21 829.071 1600.19 826.523 1596.18C825.52 1594.59 824.517 1593 823.515 1591.42C823.02 1590.63 822.525 1589.85 822.014 1589.04C820.54 1586.7 819.067 1584.37 817.593 1582.03C812.254 1573.57 806.899 1565.12 801.523 1556.68C795.657 1547.47 789.816 1538.24 783.991 1529C781.503 1525.06 779.013 1521.12 776.523 1517.18C773.464 1512.33 770.405 1507.49 767.347 1502.65C766.825 1501.82 766.304 1500.99 765.766 1500.14C764.742 1498.52 763.72 1496.9 762.7 1495.27C760.566 1491.88 758.423 1488.5 756.179 1485.18C755.53 1484.21 754.88 1483.24 754.211 1482.24C753.381 1481.04 753.381 1481.04 752.535 1479.81C751.523 1477.68 751.523 1477.68 751.674 1475.72C752.864 1472.86 754.368 1472.28 757.097 1470.87C758.063 1470.35 759.029 1469.84 760.025 1469.31C761.602 1468.5 761.602 1468.5 763.211 1467.68C765.426 1466.51 767.641 1465.34 769.855 1464.17C770.977 1463.59 772.1 1463 773.256 1462.4C778.001 1459.9 782.699 1457.32 787.398 1454.74C798.608 1448.61 809.859 1442.56 821.112 1436.51C824.68 1434.59 828.246 1432.67 831.812 1430.75C833.01 1430.1 834.209 1429.46 835.407 1428.81C837.688 1427.58 839.968 1426.35 842.249 1425.12C843.275 1424.57 844.301 1424.01 845.359 1423.44C846.262 1422.96 847.165 1422.47 848.095 1421.97C849.297 1421.33 849.297 1421.33 850.523 1420.68C851.248 1420.29 851.974 1419.9 852.721 1419.5C854.523 1418.68 854.523 1418.68 856.523 1418.68Z" fill="#A4ADB4"/>
<path d="M523.597 1221.51C524.735 1221.71 525.872 1221.9 527.044 1222.1C530.768 1222.74 534.489 1223.4 538.211 1224.05C540.838 1224.51 543.466 1224.96 546.093 1225.41C554.239 1226.82 562.382 1228.25 570.523 1229.68C571.799 1229.9 573.074 1230.13 574.388 1230.36C585.306 1232.27 596.224 1234.19 607.14 1236.12C623.558 1239.02 639.995 1241.77 656.466 1244.35C667.57 1246.1 678.544 1248.27 689.523 1250.68C688.911 1255.67 686.696 1259.64 684.402 1264.03C683.983 1264.84 683.564 1265.66 683.133 1266.49C681.79 1269.1 680.438 1271.7 679.086 1274.3C678.211 1276 677.336 1277.69 676.463 1279.39C672.2 1287.65 667.892 1295.89 663.55 1304.1C659.987 1310.85 656.486 1317.63 653.023 1324.43C652.569 1325.32 652.116 1326.21 651.648 1327.13C649.795 1330.77 647.944 1334.41 646.097 1338.05C644.722 1340.77 643.341 1343.47 641.961 1346.18C641.543 1347.01 641.125 1347.84 640.695 1348.69C640.113 1349.83 640.113 1349.83 639.519 1350.99C639.181 1351.66 638.842 1352.32 638.494 1353.01C637.523 1354.68 637.523 1354.68 635.523 1356.68C631.924 1356.32 629.282 1354.43 626.297 1352.5C625.263 1351.84 624.229 1351.17 623.164 1350.49C622.086 1349.79 621.008 1349.09 619.898 1348.37C618.875 1347.71 617.851 1347.05 616.797 1346.37C609.704 1341.8 602.676 1337.13 595.657 1332.44C586.577 1326.37 577.457 1320.37 568.336 1314.37C566.994 1313.48 566.994 1313.48 565.625 1312.58C549.729 1302.12 533.822 1291.67 517.827 1281.36C515.097 1279.59 512.372 1277.82 509.647 1276.05C508.15 1275.08 506.651 1274.12 505.149 1273.16C502.705 1271.59 500.27 1270.01 497.836 1268.43C497.093 1267.96 496.35 1267.49 495.584 1267C489.424 1262.96 483.481 1258.08 481.523 1250.68C480.485 1242.5 480.841 1235.69 485.601 1228.81C496.183 1217.09 509.337 1218.97 523.597 1221.51Z" fill="#A5ADB4"/>
<path d="M520.836 611.678C544.431 625.432 555.295 659.671 562.086 684.553C570.828 717.893 570.828 717.893 570.586 733.616C570.577 734.388 570.568 735.16 570.558 735.955C570.547 736.524 570.535 737.092 570.523 737.678C569.541 738.136 569.541 738.136 568.539 738.604C559.539 743.117 550.521 749.418 545.433 758.308C543.909 760.451 543.077 761.499 540.555 762.312C538.089 762.541 535.71 762.544 533.235 762.473C531.844 762.474 531.844 762.474 530.425 762.476C527.367 762.471 524.311 762.416 521.254 762.362C519.131 762.349 517.008 762.339 514.885 762.332C509.303 762.305 503.723 762.236 498.141 762.159C492.444 762.087 486.746 762.055 481.049 762.02C469.873 761.945 458.698 761.825 447.523 761.678C447.515 759.785 447.509 757.892 447.505 755.999C447.501 754.945 447.498 753.891 447.494 752.805C447.909 708.027 459.176 651.105 491.086 617.741C499.827 609.459 509.069 606.321 520.836 611.678Z" fill="#FDFDFC"/>
<path d="M447.524 794.678C474.584 794.678 501.644 794.678 529.524 794.678C530.019 803.588 530.019 803.588 530.524 812.678C533.971 830.26 541.734 845.903 555.524 857.678C556.889 858.485 558.264 859.279 559.649 860.053C562.524 862.678 562.524 862.678 562.704 864.945C561.952 871.928 560.429 878.29 558.149 884.928C557.799 885.956 557.45 886.983 557.09 888.042C549.839 908.685 539.802 934.149 519.586 945.178C513.588 947.939 508.877 949.045 502.508 947.045C483.257 938.632 473.384 915.635 466.225 897.364C456.15 870.575 449.678 841.536 447.899 812.928C447.824 811.799 447.749 810.669 447.672 809.506C447.481 804.567 447.524 799.621 447.524 794.678Z" fill="#FCFCFB"/>
<path d="M1416.98 676.193C1417.75 676.928 1417.75 676.928 1418.52 677.678C1419.01 678.147 1419.5 678.616 1420 679.099C1426.32 685.973 1427.08 692.285 1426.87 701.318C1425.92 716.092 1421.65 730.204 1415.64 743.66C1412.06 752.114 1415.15 759.093 1418.02 767.365C1418.66 769.223 1419.3 771.081 1419.93 772.939C1420.21 773.754 1420.49 774.568 1420.78 775.407C1423.25 782.963 1424.22 791.249 1420.52 798.553C1417.16 803.833 1412.46 807.697 1406.52 809.678C1398.33 810.509 1391.89 810.578 1385.29 805.303C1378.84 799.354 1376.8 792.246 1374.48 783.931C1368.16 761.444 1353.63 743.837 1333.36 732.119C1325.9 728.324 1318.02 725.3 1309.96 723.053C1302.77 720.983 1297.74 716.789 1293.52 710.678C1290.74 704.885 1290.41 698.586 1292.18 692.396C1294.99 686.108 1299.73 682.539 1305.34 678.803C1315.9 675.076 1326.84 679.446 1336.8 683.314C1337.52 683.591 1338.23 683.868 1338.96 684.154C1340.35 684.7 1341.73 685.26 1343.11 685.834C1348.83 688.127 1351.44 687.554 1356.98 685.224C1358.29 684.628 1359.6 684.029 1360.9 683.428C1402.45 664.794 1402.45 664.794 1416.98 676.193Z" fill="#3C3B3B"/>
<path d="M342.523 794.678C366.283 794.678 390.043 794.678 414.523 794.678C415.513 804.908 416.503 815.138 417.523 825.678C418.261 831.713 419.011 837.728 419.898 843.74C420.004 844.464 420.109 845.188 420.218 845.934C424.584 875.685 432.02 906.133 447.711 932.146C448.523 933.678 448.523 933.678 448.523 935.678C442.559 933.847 437.026 931.682 431.523 928.74C430.439 928.161 430.439 928.161 429.333 927.57C417.12 920.867 406.08 912.692 396.039 903.053C393.569 900.654 393.569 900.654 390.902 898.592C387.29 895.686 384.486 892.227 381.523 888.678C380.595 887.581 380.595 887.581 379.648 886.463C363.507 866.904 350.757 843.192 345.086 818.365C344.934 817.71 344.782 817.055 344.626 816.379C343.137 809.126 343.026 802.216 342.523 794.678Z" fill="#FBFBFA"/>
<path d="M447.523 621.678C446.191 626.027 444.471 629.854 442.336 633.865C430.873 656.215 425.178 681.164 420.523 705.678C420.373 706.441 420.222 707.204 420.067 707.991C416.629 725.642 415.879 743.793 414.523 761.678C390.763 761.678 367.003 761.678 342.523 761.678C343.695 742.925 343.695 742.925 346.023 734.49C346.413 733.044 346.413 733.044 346.811 731.569C359.266 687.474 389.206 652.161 428.627 629.731C443.122 621.678 443.122 621.678 447.523 621.678Z" fill="#FCFCFC"/>
<path d="M625.336 406.303C626.352 406.279 627.369 406.254 628.416 406.229C638.115 406.192 647.003 408.332 654.164 415.186C662.567 424.41 662.71 437.591 662.709 449.344C662.711 451.343 662.729 453.342 662.748 455.34C662.768 468.585 661.911 481.665 652.086 491.553C641.897 499.579 627.899 499.807 615.523 498.678C607.474 497.431 599.948 493.873 594.734 487.487C587.775 476.808 587.035 465.171 587.148 452.741C587.137 451.473 587.125 450.205 587.113 448.899C587.151 436.734 588.48 424.348 596.523 414.678C605.065 407.07 614.345 406.317 625.336 406.303Z" fill="#3D3938"/>
<path d="M951.523 1361.68C951.617 1373.59 951.688 1385.5 951.731 1397.41C951.751 1402.94 951.779 1408.48 951.825 1414.01C951.869 1419.36 951.893 1424.72 951.903 1430.08C951.91 1432.1 951.924 1434.13 951.946 1436.15C952.263 1466.73 943.776 1500.49 922.523 1523.68C920.266 1520.29 919.882 1518.06 919.184 1514.07C919.061 1513.38 918.938 1512.69 918.812 1511.98C918.396 1509.63 917.991 1507.28 917.586 1504.93C917.289 1503.24 916.992 1501.55 916.694 1499.86C916.019 1496.02 915.349 1492.18 914.682 1488.34C913.502 1481.55 912.311 1474.76 911.12 1467.98C910.024 1461.73 908.93 1455.49 907.836 1449.24C907.718 1448.57 907.601 1447.9 907.48 1447.21C904.417 1429.71 901.409 1412.2 898.523 1394.68C904.439 1391.01 910.353 1387.36 916.348 1383.83C927.246 1377.39 937.83 1370.75 947.773 1362.9C949.523 1361.68 949.523 1361.68 951.523 1361.68Z" fill="#FCFCFB"/>
<path d="M571.523 620.678C593.795 629.73 612.167 642.128 629.523 658.678C630.315 659.416 631.106 660.155 631.922 660.916C650.249 678.504 663.758 702.605 671.523 726.678C671.748 727.365 671.972 728.052 672.203 728.76C673.177 731.929 673.523 734.311 673.523 737.678C669.335 737.873 665.501 737.563 661.367 736.865C650.193 735.099 638.943 733.882 627.711 732.553C625.361 732.273 623.012 731.993 620.662 731.713C614.949 731.032 609.237 730.354 603.523 729.678C603.343 728.647 603.162 727.616 602.976 726.554C597.889 697.361 597.889 697.361 590.523 668.678C590.261 667.8 589.998 666.921 589.728 666.017C585.437 651.9 580.39 637.439 572.758 624.74C571.523 622.678 571.523 622.678 571.523 620.678Z" fill="#FBFBFB"/>
<path d="M690.527 406.475C691.287 406.469 692.047 406.463 692.83 406.458C694.434 406.448 696.038 406.442 697.643 406.438C700.055 406.428 702.465 406.397 704.877 406.366C729.19 406.199 729.19 406.199 737.523 413.678C742.367 419.961 742.724 424.853 742.773 432.491C742.794 433.272 742.815 434.054 742.836 434.86C742.881 441.605 741.523 446.192 737.211 451.553C734.21 453.926 732.296 454.415 728.523 454.678C728.523 455.338 728.523 455.998 728.523 456.678C729.266 456.884 730.008 457.091 730.773 457.303C735.321 459.577 736.834 462.751 738.484 467.366C739.554 470.788 740.542 474.229 741.523 477.678C741.976 479.197 742.43 480.715 742.887 482.233C743.349 483.777 743.811 485.321 744.273 486.866C744.608 487.98 744.608 487.98 744.949 489.117C746.523 494.449 746.523 494.449 746.523 496.678C739.593 496.678 732.663 496.678 725.523 496.678C724.992 494.715 724.461 492.752 723.914 490.729C723.385 488.816 722.856 486.902 722.325 484.99C721.96 483.667 721.599 482.343 721.243 481.018C720.728 479.106 720.196 477.199 719.664 475.291C719.35 474.144 719.036 472.998 718.712 471.816C717.425 468.418 716.085 466.249 713.523 463.678C711.53 462.918 711.53 462.918 709.414 462.971C708.734 462.943 708.053 462.915 707.353 462.886C706.501 462.879 705.65 462.872 704.773 462.866C702.051 462.804 699.328 462.742 696.523 462.678C696.523 473.898 696.523 485.118 696.523 496.678C689.923 496.678 683.323 496.678 676.523 496.678C676.523 467.308 676.523 437.938 676.523 407.678C681.309 406.88 685.718 406.503 690.527 406.475Z" fill="#3E3838"/>
<path d="M221.844 406.44C222.624 406.432 223.405 406.424 224.209 406.416C225.854 406.402 227.5 406.391 229.146 406.383C230.803 406.372 232.461 406.351 234.119 406.322C245.434 406.12 257.041 405.916 266.586 412.928C271.793 420.319 273.165 426.061 273.023 435.116C273.047 436.594 273.047 436.594 273.07 438.102C273.028 446.076 271.182 452.053 266.461 458.491C258.066 464.742 248.967 465.222 238.836 464.928C234.773 464.846 230.71 464.763 226.523 464.678C226.523 475.238 226.523 485.798 226.523 496.678C219.923 496.678 213.323 496.678 206.523 496.678C206.523 467.308 206.523 437.938 206.523 407.678C211.733 406.934 216.621 406.493 221.844 406.44Z" fill="#3D3838"/>
<path d="M523.555 406.475C524.46 406.469 525.366 406.464 526.299 406.458C528.223 406.448 530.146 406.442 532.069 406.438C534.984 406.428 537.898 406.397 540.812 406.366C542.685 406.359 544.557 406.354 546.43 406.35C547.29 406.338 548.151 406.325 549.038 406.312C557.566 406.343 565.843 408.111 572.523 413.678C579.656 422.395 579.204 432.995 578.523 443.678C577.442 450.269 575.422 455.106 570.523 459.678C564.145 463.777 558.012 464.815 550.469 464.776C549.469 464.773 548.468 464.771 547.438 464.768C545.562 464.754 545.562 464.754 543.648 464.741C537.647 464.71 537.647 464.71 531.523 464.678C531.523 475.238 531.523 485.798 531.523 496.678C525.253 496.678 518.983 496.678 512.523 496.678C512.523 467.308 512.523 437.938 512.523 407.678C515.927 405.976 519.809 406.493 523.555 406.475Z" fill="#3E3838"/>
<path d="M313.461 407.178C315.107 407.135 315.107 407.135 316.787 407.092C324.772 407.072 324.772 407.072 328.121 409.771C329.697 413.036 330.938 416.216 332.023 419.678C332.405 420.874 332.787 422.07 333.18 423.303C333.629 424.761 334.077 426.219 334.523 427.678C335.094 429.533 335.664 431.389 336.234 433.244C336.749 434.919 336.749 434.919 337.274 436.627C339.733 444.608 342.217 452.581 344.697 460.555C345.654 463.633 346.61 466.711 347.566 469.789C348.18 471.761 348.793 473.733 349.406 475.705C349.69 476.618 349.973 477.53 350.265 478.47C350.532 479.329 350.799 480.187 351.075 481.072C351.324 481.874 351.572 482.677 351.829 483.503C352.417 485.345 353.062 487.17 353.718 488.989C354.523 491.678 354.523 491.678 354.523 496.678C347.923 496.678 341.323 496.678 334.523 496.678C333.52 493.22 332.521 489.762 331.523 486.303C331.237 485.318 330.951 484.333 330.656 483.318C330.386 482.377 330.115 481.436 329.836 480.467C329.585 479.597 329.333 478.728 329.074 477.833C328.523 475.678 328.523 475.678 328.523 473.678C318.623 473.678 308.723 473.678 298.523 473.678C297.533 478.628 297.533 478.628 296.523 483.678C296.022 485.87 295.504 488.058 294.961 490.24C294.712 491.252 294.463 492.264 294.207 493.307C293.523 495.678 293.523 495.678 292.523 496.678C291.035 496.764 289.542 496.785 288.051 496.775C287.152 496.772 286.253 496.769 285.326 496.766C283.908 496.753 283.908 496.753 282.461 496.74C281.512 496.736 280.562 496.731 279.584 496.727C277.23 496.715 274.877 496.698 272.523 496.678C273.082 489.697 275.04 483.583 277.336 476.99C278.069 474.842 278.801 472.694 279.531 470.545C279.88 469.525 280.228 468.505 280.587 467.454C282.017 463.215 283.311 458.942 284.602 454.658C285.663 451.227 286.809 447.83 287.961 444.428C289.815 438.918 291.526 433.385 293.148 427.803C299.177 407.144 299.177 407.144 313.461 407.178Z" fill="#3E3838"/>
<path d="M458.539 406.412C459.195 406.41 459.851 406.408 460.527 406.406C461.908 406.405 463.29 406.409 464.672 406.417C466.754 406.428 468.836 406.417 470.918 406.404C479.464 406.396 487.388 406.966 495.524 409.678C495.55 411.657 495.57 413.636 495.586 415.615C495.598 416.717 495.609 417.82 495.621 418.955C495.524 421.678 495.524 421.678 494.524 422.678C491.894 422.801 489.287 422.864 486.656 422.889C485.033 422.917 483.409 422.946 481.785 422.975C479.216 423.016 476.646 423.053 474.076 423.079C471.602 423.107 469.13 423.153 466.656 423.201C465.503 423.206 465.503 423.206 464.327 423.211C460.216 423.294 460.216 423.294 456.547 424.965C455.107 427.375 455.06 429.787 454.93 432.545C455.871 435.926 457.678 437.786 460.524 439.678C464.375 441.299 468.333 442.488 472.336 443.678C490.62 449.173 490.62 449.173 495.961 456.678C496.434 457.317 496.907 457.957 497.395 458.615C501.092 465.371 500.518 475.369 498.84 482.639C496.863 488.103 494.566 491.538 489.524 494.678C474.677 501.099 451.923 500.811 436.524 495.678C436.524 490.728 436.524 485.778 436.524 480.678C438.272 480.648 438.272 480.648 440.056 480.618C444.378 480.542 448.7 480.453 453.021 480.36C454.892 480.322 456.764 480.287 458.635 480.256C461.323 480.21 464.011 480.152 466.699 480.092C467.537 480.08 468.375 480.069 469.238 480.057C473.147 479.957 475.201 479.893 478.524 477.678C479.115 475.39 479.115 475.39 479.086 472.803C479.129 471.939 479.171 471.075 479.215 470.186C478.705 467.425 478.705 467.425 475.996 465.506C472.162 463.488 468.572 462.367 464.399 461.303C454.593 458.592 444.221 455.683 438.524 446.678C435.646 441.064 435.004 436.512 435.024 430.24C434.981 429.029 434.981 429.029 434.938 427.793C434.918 421.559 436.645 417.534 440.524 412.678C445.825 407.513 451.292 406.426 458.539 406.412Z" fill="#3D3838"/>
<path d="M391.471 406.362C393.688 406.366 395.903 406.342 398.119 406.317C406.304 406.282 413.735 406.909 421.524 409.678C421.551 411.657 421.57 413.636 421.586 415.616C421.598 416.718 421.609 417.82 421.621 418.955C421.524 421.678 421.524 421.678 420.524 422.678C417.894 422.801 415.287 422.864 412.657 422.889C411.033 422.917 409.409 422.946 407.785 422.975C405.216 423.016 402.646 423.053 400.076 423.079C397.602 423.107 395.13 423.153 392.657 423.202C391.503 423.206 391.503 423.206 390.327 423.211C386.216 423.294 386.216 423.294 382.547 424.966C381.107 427.375 381.06 429.787 380.93 432.545C381.909 436.061 383.676 437.422 386.524 439.678C389.818 441.108 393.207 442.105 396.649 443.116C418.072 449.865 418.072 449.865 423.524 459.678C426.226 467.453 425.61 479.354 422.489 486.92C419.706 491.99 415.638 494.606 410.48 496.838C404.758 498.464 398.826 498.188 392.923 498.09C390.66 498.053 388.4 498.049 386.137 498.049C378.07 498.009 370.43 497.421 362.524 495.678C362.524 490.728 362.524 485.778 362.524 480.678C364.272 480.656 364.272 480.656 366.056 480.634C370.378 480.576 374.7 480.499 379.022 480.416C380.893 480.382 382.764 480.354 384.635 480.332C387.324 480.298 390.011 480.246 392.7 480.19C393.537 480.183 394.375 480.177 395.238 480.17C399.552 480.194 399.552 480.194 403.244 478.272C404.839 476.286 404.927 475.201 404.899 472.678C404.907 471.997 404.914 471.317 404.922 470.616C404.395 468.051 403.535 467.348 401.524 465.678C398.984 464.544 398.984 464.544 396.078 463.627C395.001 463.258 393.923 462.889 392.813 462.508C390.561 461.755 388.309 461.005 386.055 460.258C375.521 456.636 366.98 452.467 361.774 442.241C359.195 434.774 359.045 424.703 362.348 417.424C369.577 406.688 379.568 406.327 391.471 406.362Z" fill="#3D3837"/>
<path d="M1416.98 676.194C1417.75 676.928 1417.75 676.928 1418.52 677.678C1419.01 678.147 1419.5 678.616 1420 679.1C1426.32 685.974 1427.08 692.285 1426.87 701.319C1426.05 714.052 1422.74 726.239 1417.98 738.022C1415.93 743.165 1414.22 748.408 1412.52 753.678C1410.85 751.161 1409.52 748.737 1408.15 746.053C1399.37 729.879 1388.1 715.895 1373.52 704.678C1372.64 703.986 1371.75 703.293 1370.83 702.58C1364.08 697.482 1357.04 693.504 1349.52 689.678C1352.96 686.806 1356.76 685.06 1360.84 683.303C1361.89 682.847 1361.89 682.847 1362.96 682.382C1403.11 665.318 1403.11 665.318 1416.98 676.194Z" fill="#E8504F"/>
<path d="M751.523 407.678C774.953 407.678 798.383 407.678 822.523 407.678C822.523 412.958 822.523 418.238 822.523 423.678C813.943 423.678 805.363 423.678 796.523 423.678C796.523 447.768 796.523 471.858 796.523 496.678C789.923 496.678 783.323 496.678 776.523 496.678C776.523 472.588 776.523 448.498 776.523 423.678C768.273 423.678 760.023 423.678 751.523 423.678C751.523 418.398 751.523 413.118 751.523 407.678Z" fill="#3E3837"/>
<path d="M633.336 422.866C637.932 425.479 639.923 427.896 641.61 432.903C642.98 438.568 642.857 444.166 642.839 449.956C642.836 452.041 642.859 454.125 642.884 456.209C642.924 464.511 642.9 472.456 637.523 479.178C632.016 483.309 624.07 482.278 617.523 481.678C613.971 480.394 612.387 478.384 610.66 474.975C608.027 468.049 608.067 461.081 608.132 453.767C608.148 451.616 608.132 449.467 608.113 447.317C608.087 431.412 608.087 431.412 612.94 426.139C619.09 420.707 625.77 420.509 633.336 422.866Z" fill="#E95551"/>
<path d="M591.523 882.678C595.699 883.933 599.119 885.471 602.781 887.83C604.214 888.748 604.214 888.748 605.676 889.684C606.657 890.321 607.638 890.958 608.648 891.615C609.637 892.249 610.626 892.882 611.645 893.535C615.697 896.143 619.698 898.744 623.523 901.678C618.664 914.452 594.298 925.493 582.648 931.365C581.976 931.704 581.304 932.044 580.612 932.393C577.726 933.798 575.775 934.678 572.523 934.678C573.785 930.593 575.342 926.783 577.138 922.917C580.867 914.881 584.06 906.735 586.961 898.365C587.303 897.381 587.644 896.397 587.997 895.383C589.436 891.158 590.718 887.075 591.523 882.678Z" fill="#F8F8F8"/>
<path d="M226.523 421.678C229.72 421.596 232.917 421.513 236.211 421.428C237.21 421.392 238.208 421.355 239.237 421.318C243.506 421.264 245.89 421.29 249.605 423.569C253.039 427.345 252.707 430.671 252.711 435.553C252.723 436.274 252.735 436.994 252.748 437.737C252.767 444.747 252.767 444.747 250.523 447.678C247.506 449.525 245.27 449.918 241.758 449.873C240.956 449.868 240.154 449.863 239.327 449.858C238.319 449.84 237.312 449.822 236.273 449.803C233.056 449.762 229.838 449.721 226.523 449.678C226.523 440.438 226.523 431.198 226.523 421.678Z" fill="#E64E4F"/>
<path d="M532.523 421.678C535.555 421.616 538.587 421.554 541.711 421.49C543.131 421.449 543.131 421.449 544.579 421.407C549.344 421.36 552.75 421.417 556.523 424.678C559.02 428.064 558.823 431.509 558.836 435.615C558.861 437.423 558.861 437.423 558.887 439.267C558.495 442.94 557.748 444.765 555.523 447.678C552.319 449.814 551.527 449.92 547.855 449.873C547.051 449.868 546.246 449.863 545.417 449.858C543.892 449.83 543.892 449.83 542.336 449.803C537.479 449.741 537.479 449.741 532.523 449.678C532.523 440.438 532.523 431.198 532.523 421.678Z" fill="#E74D4C"/>
<path d="M696.523 421.678C699.72 421.616 702.917 421.554 706.211 421.49C707.709 421.449 707.709 421.449 709.237 421.408C714.134 421.362 717.591 421.396 721.523 424.678C724.349 429.118 724.067 434.592 723.523 439.678C722.273 442.68 721.466 444.099 718.712 445.791C716.222 446.8 714.437 446.908 711.758 446.873C710.956 446.868 710.154 446.863 709.327 446.858C708.319 446.84 707.312 446.822 706.273 446.803C703.056 446.762 699.838 446.72 696.523 446.678C696.523 438.428 696.523 430.178 696.523 421.678Z" fill="#E55251"/>
<path d="M311 423L302.5 457.5H325L311 423Z" fill="#EA504F"/>
</svg>
