<svg width="1628" height="1809" viewBox="0 0 1628 1809" fill="none" xmlns="http://www.w3.org/2000/svg">
<path d="M1004.89 67.8923H76.3887V1741.89H1004.89V67.8923Z" fill="white" stroke="black"/>
<path d="M215.791 0.013181C219.332 0.0217985 222.874 0.0127647 226.415 0.00611684C232.604 -0.00312404 238.793 -0.00136745 244.982 0.00784937C254.186 0.0215174 263.389 0.0178614 272.593 0.0108908C289.035 -0.00100552 305.476 0.0040267 321.918 0.016169C336.305 0.0267211 350.692 0.0312425 365.078 0.0298735C366.034 0.0297895 366.99 0.0297055 367.975 0.0296189C371.855 0.0292666 375.734 0.0288826 379.614 0.0284533C415.979 0.024492 452.345 0.0371891 488.71 0.0579799C520.997 0.0763525 553.284 0.0821607 585.571 0.0767085C587.645 0.076362 589.719 0.0760159 591.792 0.0756702C592.818 0.0754992 593.843 0.0753282 594.899 0.075152C600.06 0.0742984 605.221 0.0734746 610.382 0.072683C611.91 0.0724474 611.91 0.0724474 613.468 0.072207C640.474 0.0682148 667.48 0.0736954 694.485 0.0821943C697.392 0.0831013 700.299 0.084007 703.205 0.0849095C705.133 0.0855107 707.061 0.0861193 708.989 0.0867354C722.415 0.0909522 735.841 0.091537 749.267 0.0896299C766.569 0.0871845 783.871 0.0912792 801.173 0.10684C810.317 0.114875 819.461 0.117503 828.605 0.112198C834.719 0.109211 840.834 0.113552 846.949 0.123746C850.428 0.129349 853.907 0.131915 857.386 0.12558C874.156 0.102676 890.311 0.43186 906.701 4.32988C907.396 4.4865 908.09 4.64312 908.805 4.80449C928.16 9.24927 947.016 15.7008 964.389 25.3924C965.17 25.8253 965.951 26.2583 966.755 26.7044C978.313 33.1875 988.797 40.3739 998.823 49.0398C1000.09 50.1339 1001.37 51.2078 1002.66 52.2752C1014.28 62.0334 1024.41 73.1968 1033.39 85.3924C1034.02 86.2419 1034.65 87.0914 1035.31 87.9666C1060.46 122.794 1074.61 164.884 1074.51 207.844C1074.51 209.293 1074.51 210.741 1074.51 212.189C1074.51 216.145 1074.51 220.102 1074.51 224.059C1074.5 228.334 1074.5 232.609 1074.5 236.884C1074.5 244.284 1074.5 251.683 1074.49 259.083C1074.49 269.782 1074.48 280.48 1074.48 291.178C1074.48 308.537 1074.47 325.897 1074.46 343.256C1074.46 360.115 1074.45 376.974 1074.44 393.833C1074.44 394.873 1074.44 395.912 1074.44 396.984C1074.44 402.201 1074.44 407.417 1074.44 412.634C1074.43 455.887 1074.41 499.14 1074.39 542.392C1050.3 542.392 1026.21 542.392 1001.39 542.392C1001.38 531.971 1001.38 521.549 1001.38 510.812C1001.36 477.397 1001.32 443.982 1001.26 410.567C1001.25 405.37 1001.24 400.172 1001.24 394.974C1001.23 393.939 1001.23 392.905 1001.23 391.839C1001.2 375.125 1001.2 358.412 1001.19 341.699C1001.19 324.526 1001.17 307.353 1001.13 290.18C1001.1 279.599 1001.1 269.018 1001.11 258.437C1001.11 251.163 1001.1 243.89 1001.07 236.616C1001.06 232.431 1001.05 228.246 1001.06 224.061C1001.18 188.668 995.129 155.663 972.389 127.392C971.979 126.877 971.569 126.362 971.147 125.831C948.757 97.8454 916.515 78.9952 880.8 74.6102C876.137 74.1889 871.467 74.2532 866.788 74.261C865.631 74.2589 864.474 74.2569 863.282 74.2547C860.074 74.2501 856.867 74.2498 853.659 74.2515C850.167 74.2523 846.676 74.2472 843.185 74.2429C836.262 74.2354 829.338 74.2332 822.415 74.2326C814.122 74.2317 805.828 74.225 797.535 74.2183C777.49 74.2022 757.445 74.1963 737.4 74.1915C727.914 74.1892 718.429 74.1856 708.944 74.1818C676.465 74.169 643.987 74.1583 611.508 74.1548C609.47 74.1546 607.431 74.1544 605.393 74.1542C603.349 74.1539 601.306 74.1537 599.263 74.1535C595.163 74.153 591.064 74.1526 586.965 74.1522C585.949 74.152 584.932 74.1519 583.885 74.1518C550.938 74.1482 517.99 74.1323 485.043 74.109C450.197 74.0844 415.352 74.0706 380.507 74.0695C376.68 74.0693 372.853 74.0691 369.025 74.0688C368.083 74.0688 367.141 74.0687 366.17 74.0686C351.021 74.0675 335.873 74.0565 320.724 74.0419C305.49 74.0275 290.256 74.0243 275.022 74.0324C265.978 74.0368 256.935 74.033 247.892 74.0171C241.841 74.0073 235.79 74.0086 229.74 74.0186C226.298 74.0239 222.858 74.0247 219.417 74.0121C201.685 73.9589 184.287 74.214 167.451 80.4549C166.633 80.7509 165.816 81.0469 164.973 81.3519C150.911 86.6397 137.951 93.7959 126.389 103.392C125.829 103.843 125.268 104.294 124.691 104.759C99.5458 125.008 82.4776 153.647 76.3889 185.392C76.2257 186.1 76.0625 186.807 75.8943 187.536C73.6523 198.537 74.1115 209.696 74.1344 220.87C74.132 223.287 74.1288 225.704 74.1247 228.12C74.1179 233.383 74.1172 238.646 74.1221 243.909C74.1293 251.788 74.125 259.667 74.1184 267.546C74.1076 280.975 74.1062 294.405 74.1101 307.835C74.114 321.443 74.1135 335.051 74.1078 348.659C74.1073 349.949 74.1073 349.949 74.1067 351.265C74.1052 354.766 74.1037 358.268 74.1022 361.77C74.0865 397.315 74.0839 432.86 74.0863 468.406C74.0867 473.317 74.087 478.229 74.0873 483.14C74.0874 484.604 74.0874 484.604 74.0875 486.096C74.0888 507.716 74.0862 529.336 74.0828 550.956C74.082 555.892 74.0813 560.829 74.0805 565.766C74.0802 567.747 74.0799 569.728 74.0796 571.709C74.0795 572.691 74.0793 573.674 74.0792 574.685C74.0789 576.672 74.0785 578.658 74.0782 580.645C74.0696 637.014 74.0649 693.382 74.0692 749.751C74.0693 750.795 74.0693 751.839 74.0694 752.914C74.0703 764.554 74.0712 776.194 74.0722 787.835C74.0723 788.885 74.0724 789.936 74.0724 791.019C74.073 797.394 74.073 797.394 74.0735 803.769C74.079 870.987 74.0715 938.205 74.0527 1005.42C74.048 1022.36 74.0433 1039.29 74.0389 1056.23C74.0386 1057.27 74.0383 1058.32 74.038 1059.39C74.0297 1091.53 74.025 1123.67 74.0242 1155.81C74.0241 1156.82 74.0241 1157.83 74.0241 1158.87C74.0235 1181.02 74.0239 1203.18 74.0251 1225.33C74.0255 1233.26 74.0259 1241.18 74.0263 1249.11C74.0263 1251.08 74.0264 1253.06 74.0265 1255.03C74.028 1286.44 74.0208 1317.86 74.0095 1349.28C73.9979 1381.81 73.9973 1414.33 74.0094 1446.86C74.0106 1450.35 74.0118 1453.84 74.013 1457.34C74.0133 1458.19 74.0136 1459.05 74.0139 1459.94C74.0182 1473.5 74.0125 1487.07 74.0025 1500.64C73.993 1513.99 73.9942 1527.33 74.0068 1540.68C74.0138 1548.5 74.0127 1556.32 73.9994 1564.14C73.9904 1569.96 73.9972 1575.77 74.01 1581.58C74.0127 1583.92 74.0104 1586.25 74.0025 1588.58C73.9415 1607.75 75.8001 1625.27 82.3889 1643.39C82.6415 1644.09 82.8942 1644.78 83.1545 1645.5C96.3118 1680.91 121.752 1706.36 155.365 1722.85C161.52 1725.58 167.905 1727.59 174.326 1729.58C175.125 1729.83 175.923 1730.08 176.745 1730.34C187.535 1733.56 198.335 1734.69 209.561 1734.65C210.719 1734.65 211.877 1734.65 213.07 1734.66C216.257 1734.66 219.444 1734.66 222.632 1734.66C226.109 1734.65 229.587 1734.66 233.065 1734.66C239.152 1734.67 245.238 1734.67 251.325 1734.67C260.376 1734.67 269.428 1734.67 278.479 1734.68C295.588 1734.7 312.696 1734.7 329.804 1734.69C343.018 1734.69 356.231 1734.69 369.444 1734.7C371.344 1734.7 373.243 1734.7 375.143 1734.7C378.005 1734.7 380.868 1734.7 383.731 1734.7C410.34 1734.71 436.949 1734.72 463.559 1734.71C464.562 1734.71 465.564 1734.71 466.597 1734.71C471.68 1734.71 476.762 1734.71 481.844 1734.71C482.853 1734.71 483.862 1734.71 484.902 1734.71C486.943 1734.71 488.984 1734.71 491.026 1734.71C522.781 1734.7 554.537 1734.71 586.293 1734.73C621.987 1734.75 657.681 1734.76 693.376 1734.76C697.183 1734.76 700.991 1734.76 704.798 1734.75C705.736 1734.75 706.673 1734.75 707.639 1734.75C721.778 1734.75 735.917 1734.76 750.056 1734.77C766.14 1734.78 782.224 1734.78 798.308 1734.77C807.303 1734.77 816.298 1734.77 825.293 1734.78C831.31 1734.79 837.326 1734.79 843.343 1734.77C846.766 1734.77 850.188 1734.77 853.61 1734.78C867.536 1734.82 880.784 1734.59 894.389 1731.39C895.85 1731.05 895.85 1731.05 897.341 1730.71C928 1723.26 955.416 1705.59 974.389 1680.39C974.979 1679.63 975.57 1678.87 976.178 1678.08C979.962 1672.97 983.069 1667.55 986.076 1661.95C986.445 1661.28 986.814 1660.6 987.194 1659.9C989.293 1655.89 990.998 1651.87 992.521 1647.61C993.049 1646.14 993.049 1646.14 993.588 1644.64C993.852 1643.9 994.117 1643.16 994.389 1642.39C993.132 1642.39 993.132 1642.39 991.849 1642.4C942.138 1642.46 892.426 1642.51 842.715 1642.55C836.742 1642.55 830.769 1642.55 824.797 1642.56C823.608 1642.56 822.419 1642.56 821.193 1642.56C801.957 1642.57 782.72 1642.6 763.483 1642.62C743.735 1642.65 723.987 1642.67 704.238 1642.67C692.059 1642.68 679.88 1642.69 667.701 1642.72C659.341 1642.73 650.982 1642.74 642.623 1642.73C637.805 1642.73 632.987 1642.73 628.169 1642.75C623.748 1642.76 619.327 1642.77 614.906 1642.76C613.317 1642.75 611.727 1642.76 610.137 1642.77C596.488 1642.84 583.366 1641.22 570.389 1636.7C569.648 1636.45 568.907 1636.2 568.144 1635.94C560.2 1633.13 552.774 1629.42 545.389 1625.39C544.319 1624.81 543.249 1624.24 542.147 1623.64C530.54 1617.13 520.436 1608.95 510.85 1599.79C509.425 1598.43 507.983 1597.08 506.541 1595.74C492.098 1581.91 482.255 1564.64 474.389 1546.39C473.958 1545.45 473.528 1544.51 473.084 1543.53C465.479 1525.68 463.233 1505.71 463.255 1486.49C463.253 1484.97 463.251 1483.45 463.248 1481.93C463.242 1477.76 463.242 1473.59 463.243 1469.42C463.244 1464.92 463.238 1460.41 463.233 1455.91C463.225 1447.09 463.222 1438.28 463.222 1429.46C463.221 1422.29 463.219 1415.12 463.216 1407.95C463.207 1387.6 463.203 1367.26 463.203 1346.91C463.204 1345.26 463.204 1345.26 463.204 1343.59C463.204 1342.49 463.204 1341.39 463.204 1340.26C463.204 1322.48 463.195 1304.7 463.18 1286.93C463.166 1268.66 463.159 1250.39 463.16 1232.11C463.16 1221.86 463.158 1211.61 463.147 1201.36C463.138 1192.63 463.136 1183.9 463.142 1175.17C463.146 1170.72 463.146 1166.27 463.137 1161.82C463.129 1157.74 463.131 1153.65 463.139 1149.57C463.141 1148.1 463.139 1146.64 463.133 1145.17C462.99 1105.05 477.471 1066.45 505.389 1037.39C506.71 1035.98 506.71 1035.98 508.057 1034.53C532.045 1009.28 567.078 991.966 602.085 990.207C606.068 990.135 610.048 990.123 614.03 990.135C615.567 990.132 617.103 990.129 618.639 990.125C622.84 990.115 627.04 990.118 631.241 990.123C635.819 990.126 640.397 990.118 644.975 990.111C652.992 990.101 661.009 990.098 669.026 990.1C680.948 990.103 692.87 990.095 704.792 990.084C727.326 990.065 749.859 990.059 772.393 990.058C789.796 990.057 807.199 990.053 824.602 990.047C829.614 990.045 834.625 990.043 839.637 990.042C841.505 990.041 841.505 990.041 843.412 990.04C878.452 990.028 913.491 990.02 948.531 990.021C949.865 990.021 951.199 990.021 952.534 990.021C958.557 990.021 964.58 990.021 970.603 990.021C973.289 990.022 975.975 990.022 978.661 990.022C980.005 990.022 981.349 990.022 982.693 990.022C1025.19 990.023 1067.69 990.009 1110.19 989.981C1157.19 989.95 1204.19 989.933 1251.2 989.935C1256.21 989.935 1261.23 989.935 1266.24 989.935C1267.47 989.935 1268.71 989.935 1269.98 989.935C1289.83 989.935 1309.68 989.922 1329.53 989.905C1349.49 989.888 1369.44 989.886 1389.4 989.899C1401.25 989.907 1413.1 989.903 1424.95 989.883C1432.87 989.871 1440.8 989.874 1448.72 989.888C1453.23 989.896 1457.74 989.898 1462.25 989.881C1506.72 989.732 1546.42 999.688 1579.39 1031.39C1580.14 1032.09 1580.14 1032.09 1580.9 1032.81C1606.2 1056.58 1622.16 1088.9 1626.39 1123.39C1626.47 1124.06 1626.56 1124.74 1626.65 1125.43C1627.53 1133.08 1627.54 1140.7 1627.54 1148.4C1627.54 1149.91 1627.54 1151.41 1627.55 1152.92C1627.56 1157.05 1627.56 1161.17 1627.56 1165.3C1627.57 1169.76 1627.58 1174.21 1627.59 1178.67C1627.61 1189.43 1627.62 1200.18 1627.62 1210.94C1627.63 1216.02 1627.63 1221.09 1627.64 1226.17C1627.66 1243.07 1627.67 1259.96 1627.68 1276.86C1627.68 1281.24 1627.68 1285.62 1627.68 1290C1627.68 1291.09 1627.69 1292.18 1627.69 1293.3C1627.69 1310.9 1627.72 1328.51 1627.75 1346.11C1627.78 1364.22 1627.8 1382.33 1627.81 1400.44C1627.81 1410.6 1627.82 1420.75 1627.84 1430.9C1627.86 1439.56 1627.87 1448.21 1627.86 1456.86C1627.86 1461.26 1627.86 1465.67 1627.88 1470.07C1628.09 1520.94 1616.41 1563.42 1580.39 1600.39C1572.56 1608.25 1563.65 1614.37 1554.39 1620.39C1552.93 1621.35 1552.93 1621.35 1551.43 1622.33C1537.32 1631.05 1521.62 1637.12 1505.39 1640.39C1504.75 1640.56 1504.11 1640.72 1503.45 1640.9C1495.05 1642.91 1486.62 1642.66 1478.05 1642.63C1476.29 1642.63 1474.53 1642.64 1472.77 1642.64C1467.94 1642.64 1463.12 1642.63 1458.3 1642.62C1453.09 1642.62 1447.88 1642.62 1442.67 1642.62C1433.66 1642.62 1424.64 1642.62 1415.62 1642.6C1402.59 1642.59 1389.55 1642.58 1376.51 1642.58C1355.36 1642.58 1334.21 1642.56 1313.05 1642.54C1292.51 1642.52 1271.96 1642.51 1251.42 1642.5C1250.15 1642.5 1248.89 1642.5 1247.58 1642.5C1241.22 1642.5 1234.87 1642.5 1228.51 1642.49C1175.81 1642.47 1123.1 1642.44 1070.39 1642.39C1070.19 1643.33 1069.99 1644.27 1069.79 1645.24C1069.53 1646.48 1069.27 1647.72 1068.99 1649.01C1068.61 1650.85 1068.61 1650.85 1068.21 1652.73C1061.88 1681 1047.14 1708.42 1028.39 1730.39C1027.77 1731.12 1027.16 1731.84 1026.53 1732.59C1024.2 1735.25 1021.82 1737.83 1019.39 1740.39C1018.77 1741.05 1018.15 1741.7 1017.51 1742.38C1007.2 1753.15 996.604 1762.83 984.389 1771.39C983.818 1771.8 983.247 1772.2 982.659 1772.62C943.565 1800.03 900.083 1808.74 853.195 1808.66C849.684 1808.66 846.173 1808.67 842.662 1808.67C836.525 1808.68 830.389 1808.69 824.253 1808.68C815.128 1808.68 806.002 1808.69 796.877 1808.7C779.625 1808.72 762.373 1808.73 745.121 1808.73C731.793 1808.73 718.465 1808.73 705.136 1808.74C701.292 1808.74 697.449 1808.74 693.605 1808.74C692.649 1808.74 691.693 1808.74 690.708 1808.74C663.844 1808.76 636.98 1808.76 610.115 1808.76C609.103 1808.76 608.092 1808.76 607.049 1808.76C601.922 1808.76 596.794 1808.76 591.667 1808.76C590.139 1808.76 590.139 1808.76 588.581 1808.76C586.522 1808.76 584.463 1808.76 582.404 1808.76C550.378 1808.76 518.353 1808.78 486.327 1808.8C450.302 1808.83 414.277 1808.85 378.251 1808.85C374.405 1808.85 370.558 1808.85 366.712 1808.85C365.765 1808.85 364.818 1808.85 363.842 1808.85C348.649 1808.85 333.455 1808.86 318.261 1808.88C302.974 1808.9 287.686 1808.9 272.398 1808.89C263.334 1808.88 254.27 1808.88 245.207 1808.9C239.131 1808.91 233.056 1808.91 226.98 1808.9C223.533 1808.89 220.085 1808.89 216.638 1808.9C153.63 1809.15 102.822 1785.97 58.1389 1742.33C29.0159 1712.74 9.6956 1672.87 2.7014 1632.14C2.58184 1631.45 2.46228 1630.75 2.33909 1630.03C0.0848343 1616.03 0.245734 1602.01 0.257472 1587.86C0.255821 1585.44 0.253729 1583.02 0.251247 1580.6C0.246849 1575.32 0.245543 1570.05 0.246974 1564.77C0.2491 1556.87 0.245479 1548.98 0.240764 1541.08C0.2329 1527.62 0.229804 1514.16 0.22932 1500.69C0.228817 1487.05 0.226168 1473.41 0.220912 1459.77C0.220582 1458.91 0.220245 1458.05 0.219905 1457.16C0.218555 1453.65 0.217195 1450.14 0.215816 1446.63C0.199519 1405.09 0.193125 1363.55 0.188365 1322.01C0.185981 1301.32 0.182275 1280.63 0.178325 1259.94C0.165661 1193.58 0.154877 1127.21 0.151485 1060.85C0.151322 1057.67 0.151163 1054.5 0.150996 1051.33C0.150663 1044.97 0.150335 1038.61 0.150005 1032.25C0.149618 1024.8 0.149224 1017.36 0.14883 1009.91C0.148717 1007.78 0.148604 1005.65 0.148494 1003.52C0.144944 935.072 0.129857 866.626 0.106547 798.179C0.0898034 748.992 0.0743369 699.805 0.0698196 650.617C0.0697261 649.606 0.069626 648.594 0.0695297 647.551C0.0675105 625.339 0.0663583 603.127 0.0660049 580.915C0.0658687 572.966 0.0656579 565.018 0.0654098 557.07C0.0653482 555.093 0.065297 553.115 0.0652419 551.138C0.0643226 519.646 0.0543502 488.154 0.039775 456.662C0.025151 424.937 0.0201365 393.212 0.0282089 361.488C0.0293242 357.1 0.0303276 352.713 0.0312759 348.326C0.0314658 347.466 0.03166 346.606 0.0318557 345.72C0.0345854 332.122 0.02725 318.525 0.0156967 304.928C0.00453623 291.545 0.00414841 278.163 0.015071 264.78C0.0211486 256.943 0.0191213 249.106 0.00481713 241.269C-0.00490159 235.436 0.00119632 229.603 0.0132247 223.77C0.0156465 221.436 0.0131223 219.101 0.00483239 216.767C-0.0439631 202.052 1.00703 187.916 3.3889 173.392C3.49943 172.69 3.60997 171.988 3.72386 171.264C8.21818 142.725 21.0581 115.007 37.3889 91.3924C37.7829 90.8213 38.1768 90.2503 38.5827 89.6619C49.985 73.3657 63.7514 58.6424 79.3889 46.3924C80.3144 45.6615 81.24 44.9306 82.1936 44.1775C90.2374 37.9757 98.6363 32.5252 107.389 27.3924C108.519 26.7229 108.519 26.7229 109.672 26.0398C142.184 7.06266 178.553 -0.113087 215.791 0.013181Z" fill="black"/>
<path d="M238.775 135.421C241.451 135.417 244.126 135.411 246.801 135.402C252.585 135.387 258.369 135.39 264.153 135.406C272.754 135.43 281.354 135.424 289.955 135.414C305.321 135.395 320.686 135.405 336.052 135.426C349.496 135.445 362.94 135.453 376.384 135.451C377.277 135.451 378.17 135.451 379.091 135.451C382.718 135.451 386.345 135.45 389.972 135.45C423.958 135.445 457.943 135.468 491.929 135.504C522.102 135.536 552.275 135.548 582.447 135.542C584.385 135.541 586.324 135.541 588.262 135.541C589.699 135.54 589.699 135.54 591.166 135.54C595.99 135.539 600.814 135.538 605.638 135.537C606.59 135.537 607.541 135.537 608.522 135.537C633.763 135.532 659.005 135.542 684.246 135.557C685.144 135.558 686.043 135.558 686.968 135.559C687.864 135.559 688.761 135.56 689.685 135.56C691.027 135.561 691.027 135.561 692.396 135.562C694.198 135.563 696 135.564 697.802 135.565C710.349 135.572 722.897 135.574 735.444 135.573C751.612 135.571 767.78 135.579 783.948 135.605C792.492 135.618 801.036 135.623 809.581 135.616C815.294 135.612 821.008 135.62 826.722 135.636C829.973 135.644 833.223 135.647 836.474 135.64C864.401 135.582 888.362 139.695 909.908 159.043C910.616 159.656 911.324 160.27 912.053 160.902C927.435 175.101 936.406 197.462 937.361 218.093C937.566 225.862 937.541 233.629 937.489 241.401C937.467 245.473 937.474 249.546 937.478 253.619C937.481 260.653 937.465 267.687 937.437 274.722C937.396 284.892 937.383 295.062 937.377 305.232C937.366 321.738 937.333 338.243 937.286 354.749C937.24 370.77 937.204 386.792 937.183 402.813C937.182 403.803 937.18 404.793 937.179 405.812C937.173 410.778 937.166 415.744 937.16 420.709C937.108 461.82 937.02 502.932 936.908 544.043C936.145 544.209 935.381 544.375 934.595 544.546C931.081 545.312 927.569 546.084 924.057 546.855C922.256 547.247 922.256 547.247 920.418 547.646C911.702 549.567 903.198 551.881 894.69 554.562C891.497 555.567 888.297 556.499 885.065 557.367C839.658 569.596 795.893 590.474 755.908 615.043C754.963 615.623 754.017 616.202 753.043 616.8C741.017 624.219 729.361 632.042 718.021 640.472C715.918 642.035 713.806 643.587 711.694 645.136C704.2 650.663 696.959 656.395 689.908 662.476C687.181 664.81 684.404 667.057 681.596 669.293C674.636 674.958 668.168 681.149 661.688 687.351C660.209 688.757 658.708 690.139 657.201 691.515C642.172 705.597 633.441 725.581 632.67 745.988C632.436 757.064 633.17 766.515 636.908 777.043C637.259 778.064 637.61 779.085 637.971 780.136C645.897 801.052 661.157 817.183 681.221 826.855C693.315 832.301 704.451 834.38 717.658 834.48C718.688 834.49 719.717 834.501 720.777 834.511C727.284 834.437 733.068 833.478 739.323 831.684C741.908 831.043 741.908 831.043 745.908 831.043C746.146 832.622 746.146 832.622 746.389 834.234C750.337 859.158 760.273 880.644 780.908 896.043C796.083 906.089 812.747 912.486 831.096 912.293C831.999 912.289 832.901 912.285 833.831 912.281C841.643 912.181 849.211 911.367 856.908 910.043C857.03 911.033 857.151 912.023 857.276 913.043C858.278 921.454 858.278 921.454 860.033 929.73C860.908 933.043 860.908 933.043 860.908 937.043C860.356 937.044 859.803 937.045 859.233 937.047C826.415 937.128 793.597 937.219 760.778 937.323C756.832 937.335 752.886 937.348 748.939 937.36C748.154 937.363 747.368 937.365 746.559 937.367C733.862 937.407 721.166 937.44 708.469 937.47C695.428 937.501 682.386 937.54 669.344 937.585C661.306 937.613 653.268 937.635 645.23 937.65C639.052 937.662 632.873 937.684 626.695 937.71C624.171 937.719 621.647 937.725 619.124 937.727C606.559 937.739 594.303 937.83 581.908 940.043C580.05 940.36 580.05 940.36 578.154 940.684C536.436 948.077 499.768 969.491 469.908 999.043C469.309 999.625 468.709 1000.21 468.092 1000.81C464.266 1004.55 460.802 1008.43 457.533 1012.67C457.065 1013.27 456.597 1013.88 456.114 1014.5C447.683 1025.46 440.337 1036.8 433.908 1049.04C433.564 1049.7 433.22 1050.35 432.865 1051.03C418.696 1078.41 411.755 1108.77 411.761 1139.5C411.758 1141.07 411.754 1142.64 411.75 1144.22C411.74 1148.52 411.736 1152.82 411.734 1157.12C411.73 1161.76 411.72 1166.4 411.712 1171.05C411.692 1182.26 411.682 1193.47 411.673 1204.68C411.668 1209.97 411.663 1215.26 411.658 1220.55C411.641 1238.15 411.626 1255.75 411.619 1273.35C411.617 1277.91 411.615 1282.48 411.613 1287.04C411.613 1288.17 411.612 1289.31 411.612 1290.47C411.604 1308.82 411.578 1327.16 411.546 1345.51C411.513 1364.38 411.495 1383.24 411.491 1402.11C411.489 1412.69 411.481 1423.27 411.455 1433.85C411.433 1442.87 411.425 1451.88 411.435 1460.9C411.439 1465.49 411.438 1470.08 411.418 1474.67C411.341 1493.85 411.728 1512.21 415.908 1531.04C416.103 1531.95 416.297 1532.85 416.497 1533.78C419.309 1546.8 423.57 1558.85 428.908 1571.04C429.254 1571.85 429.599 1572.65 429.955 1573.48C447.141 1613.1 478.451 1645 514.728 1667.71C516.468 1668.8 518.191 1669.92 519.908 1671.04C519.908 1671.37 519.908 1671.7 519.908 1672.04C480.816 1672.13 441.724 1672.2 402.631 1672.25C398.01 1672.25 393.389 1672.26 388.768 1672.26C387.388 1672.26 387.388 1672.26 385.981 1672.27C371.109 1672.28 356.237 1672.31 341.365 1672.35C326.092 1672.39 310.818 1672.41 295.545 1672.42C286.129 1672.42 276.714 1672.44 267.299 1672.47C260.832 1672.5 254.365 1672.5 247.898 1672.5C244.173 1672.49 240.449 1672.5 236.725 1672.52C208.073 1672.68 184.161 1668.61 162.76 1647.91C146.905 1632.13 136.78 1610.25 136.642 1587.63C136.646 1586.75 136.651 1585.86 136.655 1584.95C136.652 1583.98 136.649 1583.01 136.646 1582.01C136.638 1578.76 136.645 1575.51 136.651 1572.26C136.648 1569.9 136.645 1567.53 136.641 1565.17C136.633 1560.01 136.632 1554.85 136.636 1549.7C136.642 1541.98 136.637 1534.26 136.629 1526.54C136.617 1513.38 136.614 1500.23 136.616 1487.07C136.618 1473.74 136.616 1460.4 136.609 1447.07C136.609 1446.23 136.608 1445.39 136.608 1444.52C136.606 1441.09 136.604 1437.66 136.602 1434.23C136.582 1398.44 136.575 1362.66 136.574 1326.88C136.574 1323.02 136.574 1319.17 136.574 1315.32C136.574 1314.36 136.574 1313.41 136.574 1312.42C136.573 1291.24 136.569 1270.06 136.564 1248.88C136.562 1240.16 136.56 1231.44 136.558 1222.72C136.557 1221.76 136.557 1220.79 136.557 1219.8C136.544 1164.58 136.536 1109.36 136.537 1054.14C136.537 1052.07 136.537 1050.01 136.537 1047.94C136.537 1038.61 136.537 1029.28 136.538 1019.95C136.538 1015.79 136.538 1011.63 136.538 1007.46C136.538 1005.38 136.538 1003.3 136.538 1001.22C136.539 935.363 136.525 869.51 136.497 803.657C136.49 787.066 136.483 770.475 136.476 753.883C136.476 752.862 136.475 751.84 136.475 750.787C136.463 719.301 136.455 687.815 136.453 656.328C136.452 655.34 136.452 654.351 136.452 653.333C136.451 631.631 136.45 609.93 136.451 588.229C136.451 580.464 136.451 572.699 136.451 564.933C136.451 563.002 136.451 561.07 136.451 559.138C136.451 528.358 136.44 497.578 136.423 466.798C136.405 435.796 136.401 404.794 136.414 373.792C136.416 369.506 136.418 365.221 136.419 360.936C136.42 360.096 136.42 359.256 136.42 358.39C136.425 345.097 136.416 331.803 136.402 318.509C136.388 305.433 136.389 292.357 136.404 279.281C136.412 272.288 136.414 265.295 136.398 258.302C136.383 251.937 136.387 245.573 136.405 239.207C136.409 236.922 136.406 234.637 136.395 232.352C136.274 204.963 142.441 181.931 161.487 161.48C183.398 139.427 208.825 135.263 238.775 135.421Z" fill="#F95F56"/>
<path d="M621.301 1063.14C622.807 1063.13 624.313 1063.13 625.819 1063.12C629.954 1063.12 634.088 1063.12 638.223 1063.12C642.723 1063.13 647.222 1063.12 651.722 1063.11C659.607 1063.1 667.492 1063.1 675.378 1063.1C687.104 1063.1 698.83 1063.09 710.556 1063.08C732.717 1063.06 754.878 1063.06 777.04 1063.06C794.154 1063.06 811.268 1063.05 828.382 1063.05C833.307 1063.05 838.233 1063.04 843.158 1063.04C844.995 1063.04 844.995 1063.04 846.869 1063.04C881.313 1063.03 915.758 1063.02 950.202 1063.02C951.501 1063.02 952.8 1063.02 954.138 1063.02C960.721 1063.02 967.304 1063.02 973.886 1063.02C975.194 1063.02 976.501 1063.02 977.848 1063.02C980.492 1063.02 983.136 1063.02 985.78 1063.02C1026.91 1063.02 1068.05 1063.01 1109.18 1062.98C1155.39 1062.95 1201.6 1062.93 1247.81 1062.93C1252.74 1062.93 1257.66 1062.93 1262.59 1062.93C1264.41 1062.93 1264.41 1062.93 1266.27 1062.94C1285.79 1062.94 1305.32 1062.92 1324.84 1062.91C1344.46 1062.89 1364.09 1062.89 1383.71 1062.9C1395.37 1062.91 1407.02 1062.9 1418.68 1062.88C1426.47 1062.87 1434.26 1062.87 1442.05 1062.89C1446.49 1062.9 1450.92 1062.9 1455.36 1062.88C1459.4 1062.87 1463.45 1062.87 1467.49 1062.89C1468.94 1062.89 1470.38 1062.89 1471.83 1062.88C1485.24 1062.78 1498.48 1064.9 1510.26 1071.64C1510.97 1072.03 1511.67 1072.42 1512.4 1072.82C1518.22 1076.11 1523.45 1079.88 1528.39 1084.39C1529.33 1085.24 1529.33 1085.24 1530.3 1086.1C1544.3 1099.27 1553.22 1118.78 1553.89 1137.97C1553.91 1140.69 1553.91 1143.41 1553.9 1146.14C1553.9 1147.66 1553.91 1149.19 1553.91 1150.72C1553.93 1154.87 1553.92 1159.03 1553.91 1163.18C1553.9 1167.68 1553.92 1172.17 1553.93 1176.67C1553.94 1185.46 1553.94 1194.26 1553.93 1203.05C1553.92 1210.2 1553.92 1217.35 1553.92 1224.5C1553.92 1225.52 1553.92 1226.54 1553.93 1227.59C1553.93 1229.66 1553.93 1231.74 1553.93 1233.81C1553.94 1253.22 1553.93 1272.63 1553.91 1292.04C1553.89 1308.67 1553.89 1325.3 1553.91 1341.93C1553.93 1361.27 1553.94 1380.61 1553.93 1399.95C1553.93 1402.02 1553.92 1404.09 1553.92 1406.15C1553.92 1407.17 1553.92 1408.18 1553.92 1409.23C1553.92 1416.37 1553.92 1423.5 1553.93 1430.64C1553.94 1439.34 1553.94 1448.05 1553.92 1456.75C1553.91 1461.19 1553.91 1465.62 1553.92 1470.06C1553.93 1474.13 1553.92 1478.2 1553.9 1482.27C1553.9 1483.73 1553.9 1485.19 1553.91 1486.66C1554 1501.15 1551.22 1514.51 1544.39 1527.39C1543.97 1528.21 1543.55 1529.02 1543.12 1529.86C1533.66 1547.03 1517.04 1560.13 1498.42 1566.02C1488.14 1568.88 1478.33 1569.97 1467.64 1569.9C1466.13 1569.9 1464.62 1569.91 1463.11 1569.91C1459 1569.93 1454.88 1569.92 1450.77 1569.91C1446.28 1569.9 1441.79 1569.91 1437.29 1569.92C1429.44 1569.93 1421.58 1569.93 1413.72 1569.92C1402.03 1569.91 1390.35 1569.92 1378.66 1569.93C1357.78 1569.95 1336.91 1569.95 1316.04 1569.94C1297.77 1569.93 1279.5 1569.92 1261.23 1569.93C1259.42 1569.93 1259.42 1569.93 1257.56 1569.93C1252.64 1569.93 1247.72 1569.93 1242.8 1569.93C1196.64 1569.94 1150.49 1569.93 1104.34 1569.91C1063.34 1569.89 1022.35 1569.89 981.356 1569.91C935.285 1569.94 889.215 1569.94 843.144 1569.93C838.232 1569.93 833.32 1569.93 828.408 1569.93C826.594 1569.93 826.594 1569.93 824.743 1569.93C806.487 1569.92 788.232 1569.93 769.977 1569.94C749.218 1569.95 728.46 1569.95 707.701 1569.92C696.087 1569.91 684.473 1569.91 672.858 1569.93C665.096 1569.94 657.335 1569.93 649.573 1569.91C645.153 1569.9 640.734 1569.9 636.314 1569.91C632.285 1569.93 628.256 1569.92 624.227 1569.9C622.787 1569.9 621.346 1569.9 619.906 1569.91C606.809 1570 593.68 1567.92 582.013 1561.64C581.352 1561.3 580.691 1560.95 580.011 1560.6C574.241 1557.5 569.208 1553.84 564.388 1549.39C563.536 1548.62 562.684 1547.85 561.806 1547.05C548.087 1534.03 538.067 1514.46 537.258 1495.31C537.255 1493.66 537.255 1493.66 537.251 1491.97C537.246 1490.69 537.241 1489.41 537.236 1488.1C537.235 1486.68 537.235 1485.27 537.234 1483.86C537.23 1482.35 537.226 1480.85 537.221 1479.34C537.209 1475.2 537.203 1471.07 537.199 1466.93C537.193 1462.47 537.181 1458.01 537.17 1453.55C537.146 1442.77 537.131 1431.99 537.118 1421.21C537.115 1418.17 537.111 1415.12 537.107 1412.08C537.081 1393.14 537.059 1374.21 537.047 1355.28C537.044 1350.9 537.041 1346.51 537.038 1342.13C537.037 1341.04 537.036 1339.95 537.036 1338.83C537.023 1321.2 536.99 1303.57 536.948 1285.93C536.906 1267.81 536.882 1249.7 536.877 1231.58C536.873 1221.41 536.862 1211.25 536.829 1201.08C536.801 1192.42 536.79 1183.76 536.801 1175.09C536.806 1170.68 536.803 1166.27 536.779 1161.85C536.616 1131.47 540.244 1107.86 561.759 1084.86C578.196 1069.12 599.038 1063.07 621.301 1063.14Z" fill="#A8A7AC"/>
<path d="M621.301 1063.14C622.807 1063.13 624.313 1063.13 625.819 1063.12C629.954 1063.12 634.088 1063.12 638.223 1063.12C642.723 1063.13 647.222 1063.12 651.722 1063.11C659.607 1063.1 667.492 1063.1 675.378 1063.1C687.104 1063.1 698.83 1063.09 710.556 1063.08C732.717 1063.06 754.878 1063.06 777.04 1063.06C794.154 1063.06 811.268 1063.05 828.382 1063.05C833.307 1063.05 838.233 1063.04 843.158 1063.04C844.995 1063.04 844.995 1063.04 846.869 1063.04C881.313 1063.03 915.758 1063.02 950.202 1063.02C951.501 1063.02 952.8 1063.02 954.138 1063.02C960.721 1063.02 967.304 1063.02 973.886 1063.02C975.194 1063.02 976.501 1063.02 977.848 1063.02C980.492 1063.02 983.136 1063.02 985.78 1063.02C1026.91 1063.02 1068.05 1063.01 1109.18 1062.98C1155.39 1062.95 1201.6 1062.93 1247.81 1062.93C1252.74 1062.93 1257.66 1062.93 1262.59 1062.93C1264.41 1062.93 1264.41 1062.93 1266.27 1062.94C1285.79 1062.94 1305.32 1062.92 1324.84 1062.91C1344.46 1062.89 1364.09 1062.89 1383.71 1062.9C1395.37 1062.91 1407.02 1062.9 1418.68 1062.88C1426.47 1062.87 1434.26 1062.87 1442.05 1062.89C1446.49 1062.9 1450.92 1062.9 1455.36 1062.88C1459.4 1062.87 1463.45 1062.87 1467.49 1062.89C1468.94 1062.89 1470.38 1062.89 1471.83 1062.88C1485.24 1062.78 1498.48 1064.9 1510.26 1071.64C1510.97 1072.03 1511.67 1072.42 1512.4 1072.82C1518.22 1076.11 1523.45 1079.88 1528.39 1084.39C1529.33 1085.24 1529.33 1085.24 1530.3 1086.1C1544.3 1099.27 1553.22 1118.78 1553.89 1137.97C1553.91 1140.69 1553.91 1143.41 1553.9 1146.14C1553.9 1147.66 1553.91 1149.19 1553.91 1150.72C1553.93 1154.87 1553.92 1159.03 1553.91 1163.18C1553.9 1167.68 1553.92 1172.17 1553.93 1176.67C1553.94 1185.46 1553.94 1194.26 1553.93 1203.05C1553.92 1210.2 1553.92 1217.35 1553.92 1224.5C1553.92 1225.52 1553.92 1226.54 1553.93 1227.59C1553.93 1229.66 1553.93 1231.74 1553.93 1233.81C1553.94 1253.22 1553.93 1272.63 1553.91 1292.04C1553.89 1308.67 1553.89 1325.3 1553.91 1341.93C1553.93 1361.27 1553.94 1380.61 1553.93 1399.95C1553.93 1402.02 1553.92 1404.09 1553.92 1406.15C1553.92 1407.17 1553.92 1408.18 1553.92 1409.23C1553.92 1416.37 1553.92 1423.5 1553.93 1430.64C1553.94 1439.34 1553.94 1448.05 1553.92 1456.75C1553.91 1461.19 1553.91 1465.62 1553.92 1470.06C1553.93 1474.13 1553.92 1478.2 1553.9 1482.27C1553.9 1483.73 1553.9 1485.19 1553.91 1486.66C1554 1501.15 1551.22 1514.51 1544.39 1527.39C1543.97 1528.21 1543.55 1529.02 1543.12 1529.86C1533.66 1547.03 1517.04 1560.13 1498.42 1566.02C1488.14 1568.88 1478.33 1569.97 1467.64 1569.9C1466.13 1569.9 1464.62 1569.91 1463.11 1569.91C1459 1569.93 1454.88 1569.92 1450.77 1569.91C1446.28 1569.9 1441.79 1569.91 1437.29 1569.92C1429.44 1569.93 1421.58 1569.93 1413.72 1569.92C1402.03 1569.91 1390.35 1569.92 1378.66 1569.93C1357.78 1569.95 1336.91 1569.95 1316.04 1569.94C1297.77 1569.93 1279.5 1569.92 1261.23 1569.93C1259.42 1569.93 1259.42 1569.93 1257.56 1569.93C1252.64 1569.93 1247.72 1569.93 1242.8 1569.93C1196.64 1569.94 1150.49 1569.93 1104.34 1569.91C1063.34 1569.89 1022.35 1569.89 981.356 1569.91C935.285 1569.94 889.215 1569.94 843.144 1569.93C838.232 1569.93 833.32 1569.93 828.408 1569.93C826.594 1569.93 826.594 1569.93 824.743 1569.93C806.487 1569.92 788.232 1569.93 769.977 1569.94C749.218 1569.95 728.46 1569.95 707.701 1569.92C696.087 1569.91 684.473 1569.91 672.858 1569.93C665.096 1569.94 657.335 1569.93 649.573 1569.91C645.153 1569.9 640.734 1569.9 636.314 1569.91C632.285 1569.93 628.256 1569.92 624.227 1569.9C622.787 1569.9 621.346 1569.9 619.906 1569.91C606.809 1570 593.68 1567.92 582.013 1561.64C581.352 1561.3 580.691 1560.95 580.011 1560.6C574.241 1557.5 569.208 1553.84 564.388 1549.39C563.536 1548.62 562.684 1547.85 561.806 1547.05C548.087 1534.03 538.067 1514.46 537.258 1495.31C537.255 1493.66 537.255 1493.66 537.251 1491.97C537.246 1490.69 537.241 1489.41 537.236 1488.1C537.235 1486.68 537.235 1485.27 537.234 1483.86C537.23 1482.35 537.226 1480.85 537.221 1479.34C537.209 1475.2 537.203 1471.07 537.199 1466.93C537.193 1462.47 537.181 1458.01 537.17 1453.55C537.146 1442.77 537.131 1431.99 537.118 1421.21C537.115 1418.17 537.111 1415.12 537.107 1412.08C537.081 1393.14 537.059 1374.21 537.047 1355.28C537.044 1350.9 537.041 1346.51 537.038 1342.13C537.037 1341.04 537.036 1339.95 537.036 1338.83C537.023 1321.2 536.99 1303.57 536.948 1285.93C536.906 1267.81 536.882 1249.7 536.877 1231.58C536.873 1221.41 536.862 1211.25 536.829 1201.08C536.801 1192.42 536.79 1183.76 536.801 1175.09C536.806 1170.68 536.803 1166.27 536.779 1161.85C536.616 1131.47 540.244 1107.86 561.759 1084.86C578.196 1069.12 599.038 1063.07 621.301 1063.14ZM600.388 1119.39C599.76 1119.98 599.132 1120.58 598.486 1121.19C594.46 1125.32 591.772 1129.99 589.138 1135.08C588.808 1135.7 588.479 1136.33 588.139 1136.97C582.995 1147.41 581.943 1158.48 582.014 1169.95C582.01 1171.26 582.006 1172.56 582.002 1173.9C581.991 1177.47 581.999 1181.05 582.01 1184.62C582.019 1188.5 582.011 1192.37 582.005 1196.24C581.995 1203.8 582.002 1211.37 582.014 1218.94C582.028 1227.76 582.026 1236.58 582.024 1245.4C582.021 1261.14 582.032 1276.89 582.052 1292.63C582.071 1307.89 582.078 1323.15 582.072 1338.41C582.066 1355.05 582.066 1371.69 582.078 1388.33C582.079 1390.11 582.08 1391.89 582.081 1393.66C582.082 1394.53 582.083 1395.41 582.083 1396.31C582.087 1402.45 582.087 1408.59 582.085 1414.73C582.083 1422.22 582.088 1429.71 582.102 1437.2C582.11 1441.02 582.114 1444.83 582.109 1448.65C582.104 1452.8 582.115 1456.94 582.127 1461.08C582.124 1462.28 582.12 1463.48 582.116 1464.71C582.203 1481.43 586.546 1495.76 596.388 1509.39C597.154 1510.45 597.154 1510.45 597.935 1511.54C607.944 1524.1 623.898 1531.53 639.388 1534.39C644.096 1534.79 648.774 1534.8 653.497 1534.77C654.89 1534.77 656.284 1534.78 657.677 1534.78C661.49 1534.79 665.303 1534.79 669.116 1534.78C673.271 1534.77 677.426 1534.78 681.58 1534.79C688.856 1534.8 696.132 1534.8 703.408 1534.79C714.228 1534.78 725.048 1534.78 735.868 1534.79C755.193 1534.81 774.518 1534.81 793.844 1534.8C810.755 1534.79 827.667 1534.79 844.579 1534.79C846.262 1534.79 846.262 1534.79 847.978 1534.79C852.532 1534.8 857.085 1534.8 861.639 1534.8C904.356 1534.81 947.072 1534.8 989.789 1534.78C1027.74 1534.77 1065.69 1534.77 1103.65 1534.78C1146.28 1534.8 1188.92 1534.81 1231.56 1534.8C1236.11 1534.8 1240.65 1534.79 1245.2 1534.79C1246.32 1534.79 1247.44 1534.79 1248.59 1534.79C1265.49 1534.79 1282.39 1534.79 1299.29 1534.8C1318.51 1534.81 1337.73 1534.81 1356.94 1534.79C1367.7 1534.78 1378.45 1534.78 1389.21 1534.79C1396.39 1534.8 1403.58 1534.8 1410.76 1534.78C1414.86 1534.78 1418.95 1534.77 1423.04 1534.78C1426.77 1534.79 1430.5 1534.79 1434.23 1534.77C1436.19 1534.77 1438.15 1534.78 1440.12 1534.79C1456.69 1534.69 1471.3 1529.53 1484.39 1519.39C1485.23 1518.75 1486.07 1518.11 1486.93 1517.45C1498.78 1507.52 1506.94 1490.74 1508.39 1475.39C1508.54 1471.1 1508.53 1466.82 1508.53 1462.53C1508.53 1461.23 1508.53 1459.93 1508.54 1458.59C1508.55 1454.99 1508.55 1451.4 1508.55 1447.8C1508.55 1443.92 1508.56 1440.04 1508.56 1436.15C1508.58 1427.67 1508.58 1419.18 1508.59 1410.7C1508.59 1405.39 1508.6 1400.09 1508.6 1394.79C1508.61 1380.1 1508.62 1365.41 1508.63 1350.71C1508.63 1349.3 1508.63 1349.3 1508.63 1347.87C1508.63 1346.92 1508.63 1345.98 1508.63 1345.01C1508.63 1343.1 1508.63 1341.2 1508.63 1339.29C1508.63 1337.87 1508.63 1337.87 1508.63 1336.42C1508.63 1321.09 1508.65 1305.75 1508.67 1290.42C1508.7 1274.66 1508.71 1258.91 1508.71 1243.15C1508.71 1234.31 1508.72 1225.47 1508.74 1216.63C1508.75 1209.1 1508.76 1201.57 1508.75 1194.04C1508.74 1190.21 1508.74 1186.37 1508.76 1182.53C1508.77 1178.36 1508.77 1174.19 1508.76 1170.02C1508.76 1168.82 1508.77 1167.62 1508.78 1166.39C1508.72 1155.54 1506.9 1145.03 1501.89 1135.33C1501.55 1134.66 1501.21 1134 1500.86 1133.31C1497.1 1126.31 1492.08 1120.86 1486.39 1115.39C1485.78 1114.78 1485.18 1114.17 1484.55 1113.53C1472.98 1102.58 1456.54 1098.78 1441.17 1098.89C1439.76 1098.88 1438.35 1098.88 1436.95 1098.87C1433.1 1098.85 1429.25 1098.86 1425.4 1098.87C1421.21 1098.88 1417.02 1098.87 1412.83 1098.86C1405.49 1098.84 1398.14 1098.84 1390.8 1098.85C1379.88 1098.86 1368.97 1098.85 1358.05 1098.84C1338.55 1098.81 1319.04 1098.81 1299.54 1098.82C1282.47 1098.83 1265.4 1098.83 1248.34 1098.82C1246.05 1098.82 1243.76 1098.82 1241.47 1098.82C1238.02 1098.81 1234.57 1098.81 1231.12 1098.81C1199.04 1098.8 1166.96 1098.79 1134.88 1098.8C1133.67 1098.81 1132.46 1098.81 1131.21 1098.81C1121.39 1098.81 1111.57 1098.81 1101.75 1098.82C1063.45 1098.83 1025.15 1098.82 986.85 1098.8C943.815 1098.76 900.779 1098.75 857.743 1098.76C853.154 1098.76 848.565 1098.76 843.976 1098.76C842.281 1098.76 842.281 1098.76 840.552 1098.76C823.497 1098.77 806.443 1098.76 789.388 1098.74C769.991 1098.72 750.594 1098.72 731.197 1098.75C720.344 1098.76 709.492 1098.76 698.64 1098.74C691.386 1098.72 684.132 1098.73 676.878 1098.75C672.748 1098.76 668.619 1098.76 664.489 1098.75C638.817 1098.64 619.572 1100.6 600.388 1119.39Z" fill="#FDFDFD"/>
<path d="M1094.39 586.392C1096.12 586.552 1097.86 586.709 1099.59 586.865C1110.29 587.861 1120.84 589.4 1131.39 591.392C1132.58 591.615 1133.77 591.838 1134.99 592.068C1191.2 602.685 1245.3 622.071 1294.79 650.886C1297.13 652.244 1299.48 653.582 1301.84 654.912C1326.43 668.913 1348.77 686.233 1370.39 704.392C1371.33 705.18 1371.33 705.18 1372.28 705.983C1375.78 708.929 1379.26 711.904 1382.7 714.916C1383.85 715.92 1385 716.92 1386.16 717.916C1394.75 725.354 1403.72 733.134 1404.7 745.201C1405.13 756.489 1404.02 764.891 1396.34 773.76C1391.31 778.632 1386.01 781.278 1379.39 783.392C1378.4 783.722 1377.41 784.052 1376.39 784.392C1366.36 785.41 1358.73 783.109 1350.7 777.08C1347.3 774.28 1344.18 771.282 1341.11 768.123C1338.77 765.768 1336.29 763.606 1333.77 761.443C1331.99 759.913 1330.23 758.366 1328.47 756.81C1318.55 748.084 1308.06 740.173 1297.39 732.392C1296.79 731.953 1296.18 731.514 1295.57 731.061C1261.92 706.667 1224.32 688.553 1185.39 674.392C1184.35 674.009 1183.31 673.625 1182.24 673.229C1159.17 664.776 1135.06 659.374 1110.83 655.517C1109.64 655.326 1108.46 655.135 1107.24 654.939C1086.83 651.888 1066.34 651.059 1045.73 651.132C1042.13 651.143 1038.52 651.132 1034.92 651.119C1020.96 651.11 1007.25 651.729 993.388 653.392C991.532 653.603 991.532 653.603 989.638 653.819C965.246 656.728 940.734 661.67 917.388 669.392C915.832 669.901 915.832 669.901 914.244 670.419C897.565 675.896 881.331 682.015 865.388 689.392C863.873 690.084 863.873 690.084 862.327 690.79C832.607 704.412 803.781 721.689 778.388 742.392C777.09 743.427 775.79 744.461 774.49 745.494C764.622 753.374 755.035 761.475 746.326 770.642C737.967 779.106 728.629 783.608 716.701 783.892C707.691 783.891 700.904 781.292 694.013 775.342C689.151 770.31 686.503 765.011 684.388 758.392C684.058 757.402 683.728 756.412 683.388 755.392C682.408 746.776 684.071 738.832 689.306 731.826C691.583 729.251 693.948 726.814 696.388 724.392C697.222 723.534 698.056 722.675 698.916 721.791C703.873 716.734 709.001 711.982 714.388 707.392C715.405 706.502 716.42 705.61 717.435 704.717C725.431 697.719 733.699 691.21 742.274 684.94C744.435 683.358 746.585 681.764 748.736 680.17C759.306 672.382 770.198 665.254 781.388 658.392C782.028 657.996 782.668 657.6 783.327 657.191C839.503 622.394 903.691 597.931 969.388 589.392C970.779 589.208 970.779 589.208 972.198 589.019C978.547 588.185 984.902 587.428 991.268 586.733C993.236 586.518 995.203 586.297 997.169 586.067C1029.11 582.407 1062.46 583.103 1094.39 586.392Z" fill="black"/>
<path d="M736.893 1185.47C745.863 1192.38 751.432 1202.98 757.303 1212.46C760.136 1217.02 763.079 1221.5 766.076 1225.96C773.957 1237.7 781.665 1249.55 789.389 1261.39C790.033 1262.38 790.676 1263.37 791.34 1264.38C793.189 1267.22 795.039 1270.06 796.889 1272.89C798.763 1275.77 800.638 1278.64 802.513 1281.52C803.751 1283.41 804.988 1285.31 806.226 1287.21C816.297 1302.66 826.429 1318.06 836.576 1333.46C837.535 1334.91 837.535 1334.91 838.513 1336.39C840.361 1339.2 842.209 1342 844.057 1344.8C844.606 1345.64 845.156 1346.47 845.722 1347.33C846.248 1348.13 846.774 1348.92 847.315 1349.74C847.766 1350.43 848.217 1351.11 848.681 1351.81C851.242 1355.68 853.816 1359.54 856.389 1363.39C856.389 1362.55 856.39 1361.71 856.391 1360.84C856.405 1340.35 856.448 1319.86 856.521 1299.37C856.556 1289.46 856.581 1279.55 856.584 1269.64C856.587 1261 856.608 1252.36 856.649 1243.72C856.671 1239.15 856.683 1234.58 856.675 1230.01C856.667 1225.7 856.683 1221.39 856.717 1217.08C856.725 1215.5 856.725 1213.93 856.715 1212.35C856.662 1202.55 857.203 1194.04 864.129 1186.5C869.222 1181.69 874.684 1179.26 881.701 1178.96C889.546 1179.22 895.886 1181.35 901.326 1187.14C906.889 1193.65 907.833 1200.84 907.777 1209.05C907.785 1210.46 907.785 1210.46 907.793 1211.91C907.807 1215.05 907.8 1218.19 907.793 1221.33C907.799 1223.59 907.806 1225.85 907.814 1228.11C907.832 1234.23 907.83 1240.36 907.825 1246.49C907.822 1251.61 907.828 1256.73 907.834 1261.84C907.849 1274.62 907.845 1287.39 907.833 1300.16C907.823 1311.23 907.836 1322.3 907.86 1333.37C907.884 1344.76 907.893 1356.15 907.887 1367.54C907.884 1373.92 907.886 1380.31 907.903 1386.69C907.919 1392.7 907.915 1398.71 907.896 1404.72C907.892 1406.92 907.896 1409.12 907.906 1411.32C908.023 1437.87 908.023 1437.87 899.174 1446.89C891.22 1453.59 883.121 1454.42 873.026 1453.93C862.287 1452.97 854.839 1446.89 847.825 1439.11C842.527 1432.77 838.199 1425.62 833.701 1418.71C832.538 1416.94 831.374 1415.17 830.208 1413.4C827.405 1409.14 824.614 1404.87 821.829 1400.6C819.924 1397.68 818.012 1394.76 816.1 1391.85C813.781 1388.3 811.471 1384.75 809.166 1381.2C804.815 1374.5 800.425 1367.82 796.037 1361.15C788.846 1350.2 781.67 1339.25 774.581 1328.24C773.342 1326.32 772.098 1324.4 770.854 1322.48C764.635 1312.9 758.465 1303.28 752.31 1293.65C748.76 1288.1 745.204 1282.55 741.639 1277C741.228 1276.36 740.817 1275.72 740.393 1275.06C739.392 1273.51 738.39 1271.95 737.389 1270.39C737.387 1271.22 737.386 1272.05 737.384 1272.91C737.347 1293.15 737.288 1313.39 737.205 1333.63C737.165 1343.42 737.133 1353.21 737.118 1363C737.105 1371.53 737.078 1380.07 737.034 1388.6C737.012 1393.12 736.996 1397.63 736.997 1402.15C736.998 1406.41 736.98 1410.66 736.948 1414.92C736.939 1416.47 736.937 1418.03 736.943 1419.59C736.976 1430.14 736.432 1439.25 729.014 1447.33C724.127 1452.04 719.265 1453.81 712.514 1453.77C704.69 1453.56 699.488 1452.58 693.639 1447.27C686.712 1439.82 685.24 1431.22 685.242 1421.41C685.238 1420.49 685.234 1419.57 685.231 1418.62C685.22 1415.54 685.216 1412.45 685.212 1409.37C685.206 1407.16 685.199 1404.95 685.192 1402.74C685.171 1395.48 685.161 1388.21 685.151 1380.95C685.147 1378.45 685.142 1375.95 685.138 1373.45C685.121 1363.04 685.107 1352.64 685.099 1342.23C685.098 1339.53 685.096 1336.84 685.094 1334.14C685.093 1333.47 685.093 1332.8 685.092 1332.1C685.084 1321.25 685.059 1310.39 685.026 1299.54C684.993 1288.38 684.975 1277.22 684.972 1266.07C684.969 1259.81 684.961 1253.55 684.935 1247.29C684.912 1241.4 684.908 1235.5 684.918 1229.61C684.919 1227.45 684.912 1225.29 684.899 1223.14C684.742 1197.17 684.742 1197.17 694.326 1187.12C706.797 1176.7 723.6 1176.97 736.893 1185.47Z" fill="#FEFEFD"/>
<path d="M1040.08 711.077C1043.62 711.08 1047.16 711.056 1050.71 711.031C1065.82 710.989 1080.45 712.091 1095.39 714.392C1096.1 714.499 1096.82 714.606 1097.56 714.717C1131.11 719.76 1162.87 729.51 1193.39 744.392C1194.94 745.15 1194.94 745.15 1196.53 745.923C1212.27 753.675 1227.12 762.182 1241.39 772.392C1242.01 772.834 1242.63 773.277 1243.27 773.732C1250.55 778.978 1257.51 784.632 1264.39 790.392C1265.24 791.095 1265.24 791.095 1266.1 791.812C1288.68 810.541 1288.68 810.541 1290.8 821.53C1291 823.751 1291.05 825.913 1291.01 828.142C1291.01 828.925 1291 829.708 1290.99 830.514C1290.66 839.361 1287.57 846.801 1281.01 852.892C1271.53 860.013 1261.18 862.777 1249.39 861.392C1241.16 858.833 1235.23 853.834 1229.09 847.963C1202.59 822.732 1169.38 805.084 1135.39 792.392C1134.29 791.979 1134.29 791.979 1133.18 791.557C1116.29 785.247 1098.19 781.917 1080.39 779.392C1079.69 779.288 1078.99 779.183 1078.27 779.076C1012.02 769.472 940.813 787.85 886.389 826.392C881.499 830.065 876.8 833.958 872.139 837.914C869.586 840.07 866.986 842.166 864.389 844.267C861.24 846.832 858.197 849.464 855.201 852.205C847.28 859.202 838.169 861.919 827.697 861.693C817.887 860.801 810.787 855.698 804.389 848.392C798.554 839.132 797.304 830.128 798.389 819.392C801.519 806.019 817.177 795.359 827.389 787.392C828.718 786.324 830.046 785.255 831.373 784.185C874.752 749.493 926.074 726.584 980.514 716.142C981.787 715.896 983.06 715.649 984.372 715.395C1002.91 711.985 1021.25 711.042 1040.08 711.077Z" fill="black"/>
<path d="M1375.33 1203.95C1377.03 1205.42 1378.72 1206.89 1380.39 1208.39C1381.09 1209.01 1381.8 1209.64 1382.53 1210.28C1394.8 1221.78 1405.25 1238.55 1405.87 1255.63C1405.94 1263.86 1405.33 1270.12 1399.39 1276.39C1392.04 1282.43 1384.71 1283.21 1375.39 1282.39C1368.23 1280.61 1364.07 1275.51 1360.39 1269.39C1359.03 1266.65 1357.77 1263.87 1356.51 1261.08C1349.29 1245.02 1338.84 1233.26 1322.39 1226.39C1305.18 1220.12 1286.96 1220.79 1270.33 1228.39C1253.81 1237.13 1241.51 1253 1235.63 1270.66C1231.07 1285.78 1228.99 1300.67 1229.08 1316.45C1229.08 1317.54 1229.08 1317.54 1229.08 1318.64C1229.19 1345.22 1233.37 1372.27 1252.39 1392.39C1265.43 1404.72 1280.94 1410 1298.7 1409.89C1300.34 1409.88 1300.34 1409.88 1302 1409.87C1318.76 1409.51 1333.37 1402.96 1345.26 1391.09C1351.05 1383.76 1354.57 1375.96 1357.51 1367.14C1362.44 1352.51 1362.44 1352.51 1368.83 1347.14C1369.66 1346.42 1369.66 1346.42 1370.51 1345.69C1376.08 1341.84 1381.83 1341.55 1388.39 1342.39C1395.21 1344.58 1400.56 1348.29 1404.39 1354.39C1406.51 1358.56 1406.7 1362.42 1406.64 1367.02C1406.63 1367.73 1406.62 1368.44 1406.61 1369.18C1406.11 1391.34 1394.76 1410.82 1379.19 1426.12C1357.43 1446.49 1328.87 1453.86 1299.7 1453.7C1298.58 1453.7 1298.58 1453.7 1297.44 1453.7C1267.8 1453.54 1241.15 1446.18 1218.39 1426.39C1217.78 1425.92 1217.17 1425.44 1216.54 1424.95C1190.98 1404.61 1178.27 1366.64 1174.58 1335.41C1173.96 1328.95 1174 1322.44 1174.01 1315.95C1174.01 1315.17 1174.02 1314.38 1174.02 1313.57C1174.15 1276.89 1185.39 1243.43 1209.39 1215.39C1209.89 1214.8 1210.4 1214.21 1210.92 1213.6C1252.42 1168.92 1328.88 1166.97 1375.33 1203.95Z" fill="#FDFDFD"/>
<path d="M353.389 137.392C475.159 137.392 596.929 137.392 722.389 137.392C722.389 173.847 722.389 173.847 717.389 183.392C716.858 184.408 716.327 185.424 715.78 186.47C709.059 198.001 698.823 205.496 685.947 208.953C679.612 210.5 673.668 210.817 667.169 210.78C665.415 210.788 665.415 210.788 663.625 210.796C660.414 210.808 657.204 210.807 653.993 210.799C650.517 210.794 647.04 210.807 643.564 210.817C636.767 210.834 629.971 210.835 623.175 210.83C617.648 210.826 612.121 210.827 606.594 210.833C605.805 210.833 605.017 210.834 604.204 210.835C602.602 210.837 600.999 210.838 599.397 210.84C584.394 210.853 569.392 210.848 554.389 210.836C540.682 210.826 526.976 210.839 513.269 210.863C499.171 210.888 485.072 210.897 470.974 210.891C463.068 210.887 455.163 210.889 447.257 210.907C440.529 210.922 433.801 210.922 427.073 210.905C423.644 210.896 420.216 210.894 416.788 210.91C413.061 210.923 409.336 210.911 405.609 210.894C404.005 210.908 404.005 210.908 402.368 210.923C388.477 210.788 375.343 205.125 365.389 195.392C350.48 177.909 353.389 160.267 353.389 137.392Z" fill="black"/>
<path d="M991.388 1182.13C993.156 1182.11 993.156 1182.11 994.96 1182.1C996.879 1182.1 996.879 1182.1 998.838 1182.1C1000.21 1182.1 1001.58 1182.09 1002.95 1182.08C1006.67 1182.06 1010.39 1182.06 1014.11 1182.06C1016.43 1182.06 1018.76 1182.05 1021.09 1182.05C1029.22 1182.03 1037.35 1182.02 1045.48 1182.02C1053.03 1182.02 1060.59 1182 1068.15 1181.97C1074.65 1181.94 1081.16 1181.93 1087.66 1181.93C1091.54 1181.94 1095.42 1181.93 1099.3 1181.91C1102.95 1181.89 1106.6 1181.89 1110.25 1181.9C1112.21 1181.91 1114.18 1181.89 1116.14 1181.87C1125.13 1181.94 1132.56 1183.51 1140.33 1188.14C1144.5 1192.7 1146.61 1197.17 1146.83 1203.39C1146.5 1210.03 1145.14 1215.13 1140.14 1219.7C1133.35 1225.34 1126.79 1225.82 1118.31 1225.73C1117.22 1225.73 1116.12 1225.73 1115 1225.73C1111.4 1225.73 1107.8 1225.71 1104.2 1225.69C1101.7 1225.68 1099.2 1225.68 1096.7 1225.67C1090.8 1225.66 1084.9 1225.64 1079 1225.61C1070.44 1225.57 1061.88 1225.55 1053.32 1225.53C1041.34 1225.5 1029.36 1225.44 1017.39 1225.39C1017.39 1247.5 1017.39 1269.61 1017.39 1292.39C1024.22 1292.36 1031.06 1292.32 1038.11 1292.29C1042.44 1292.27 1046.78 1292.26 1051.12 1292.25C1058 1292.23 1064.89 1292.21 1071.77 1292.17C1077.32 1292.13 1082.87 1292.12 1088.42 1292.11C1090.53 1292.1 1092.65 1292.09 1094.76 1292.08C1097.73 1292.05 1100.7 1292.05 1103.67 1292.05C1104.54 1292.04 1105.4 1292.03 1106.3 1292.02C1112.78 1292.05 1118.53 1293 1123.67 1297.29C1124.49 1298.3 1124.49 1298.3 1125.33 1299.33C1125.89 1300 1126.46 1300.67 1127.04 1301.36C1130.53 1306.63 1129.82 1313.32 1129.39 1319.39C1127.7 1324.77 1124.07 1328.37 1119.39 1331.39C1114.15 1333.6 1109.48 1333.67 1103.89 1333.62C1102.49 1333.62 1102.49 1333.62 1101.05 1333.62C1097.97 1333.62 1094.89 1333.6 1091.8 1333.59C1089.66 1333.58 1087.51 1333.58 1085.37 1333.58C1079.74 1333.57 1074.11 1333.55 1068.47 1333.53C1062.72 1333.51 1056.97 1333.5 1051.22 1333.49C1039.94 1333.47 1028.67 1333.43 1017.39 1333.39C1017.4 1334.6 1017.41 1335.8 1017.41 1337.04C1017.5 1348.41 1017.56 1359.78 1017.59 1371.16C1017.62 1377 1017.64 1382.85 1017.69 1388.69C1017.73 1394.34 1017.76 1399.99 1017.77 1405.63C1017.77 1407.78 1017.79 1409.93 1017.81 1412.08C1018.05 1436.41 1018.05 1436.41 1011.08 1445.83C1004.05 1452.53 997.241 1453.78 987.778 1453.66C980.85 1453.11 975.447 1450.9 970.513 1445.95C961.843 1434.39 962.813 1420.34 962.87 1406.62C962.865 1404.44 962.858 1402.26 962.849 1400.08C962.831 1394.19 962.838 1388.3 962.85 1382.41C962.861 1376.23 962.851 1370.04 962.845 1363.86C962.838 1353.49 962.847 1343.11 962.866 1332.74C962.888 1320.76 962.881 1308.79 962.859 1296.81C962.841 1286.5 962.838 1276.2 962.849 1265.89C962.855 1259.75 962.856 1253.6 962.842 1247.46C962.831 1241.68 962.839 1235.9 962.862 1230.13C962.867 1228.01 962.866 1225.9 962.857 1223.78C962.812 1211.99 962.822 1201.89 969.138 1191.52C975.463 1185.54 982.61 1182.15 991.388 1182.13Z" fill="#FDFDFD"/>
<path d="M1069.34 837.046C1070.79 837.291 1072.24 837.519 1073.69 837.734C1094.71 840.857 1114.86 848.005 1133.39 858.392C1134.01 858.737 1134.64 859.082 1135.28 859.438C1145.05 864.878 1153.82 871.217 1162.39 878.392C1162.94 878.844 1163.5 879.295 1164.07 879.76C1172.23 886.452 1179.34 893.574 1180.81 904.537C1181.1 915.952 1177.91 924.676 1170.2 933.08C1162.7 940.252 1153.59 942.875 1143.42 942.724C1134.15 941.709 1127.62 937.142 1121.06 930.853C1096.89 908.591 1066.32 901.289 1034.26 902.271C1010.93 903.254 989.051 913.347 971.577 928.549C965.852 933.526 960.498 937.517 953.388 940.392C952.419 940.825 951.449 941.258 950.451 941.705C940.149 944.017 932.323 941.597 923.263 936.705C915.111 930.148 909.266 922.817 908.013 912.22C907.639 902.253 909.823 895.082 916.263 887.455C922.057 881.384 928.661 876.372 935.388 871.392C936.689 870.418 936.689 870.418 938.017 869.423C944.802 864.505 952.034 860.385 959.388 856.392C960.49 855.793 961.592 855.193 962.728 854.576C979.13 846.021 996.25 840.82 1014.39 837.392C1015.44 837.193 1015.44 837.193 1016.51 836.99C1033.58 833.939 1052.27 834.129 1069.34 837.046Z" fill="black"/>
</svg>
